<?xml version="1.0" encoding="UTF-8"?>
<!DOCTYPE svg PUBLIC "-//W3C//DTD SVG 1.1//EN" "http://www.w3.org/Graphics/SVG/1.1/DTD/svg11.dtd">
<!-- Creator: CorelDRAW 2020 (64-Bit) -->
<svg xmlns="http://www.w3.org/2000/svg" xml:space="preserve" width="215.9mm" height="279.4mm" version="1.1" style="shape-rendering:geometricPrecision; text-rendering:geometricPrecision; image-rendering:optimizeQuality; fill-rule:evenodd; clip-rule:evenodd"
viewBox="0 0 21590 27940"
 xmlns:xlink="http://www.w3.org/1999/xlink"
 xmlns:xodm="http://www.corel.com/coreldraw/odm/2003">
 <defs>
  <style type="text/css">
   <![CDATA[
    .fil39 {fill:none}
    .fil0 {fill:#021A34}
    .fil45 {fill:#121315}
    .fil33 {fill:#193E65}
    .fil18 {fill:#1B4266}
    .fil68 {fill:#1C436B}
    .fil43 {fill:#2A130D}
    .fil4 {fill:#2A374B}
    .fil56 {fill:#322E29}
    .fil41 {fill:#383636}
    .fil14 {fill:#4B739C}
    .fil65 {fill:#52392D}
    .fil67 {fill:#553D37}
    .fil48 {fill:#593E32}
    .fil57 {fill:#593E32}
    .fil9 {fill:#5B5656}
    .fil59 {fill:#66728E}
    .fil7 {fill:#6A1126}
    .fil37 {fill:#6A6464}
    .fil32 {fill:#6F6F73}
    .fil69 {fill:#779AC3}
    .fil27 {fill:#7A7675}
    .fil25 {fill:#837B7B}
    .fil66 {fill:#866351}
    .fil10 {fill:#8B8585}
    .fil35 {fill:#8D233B}
    .fil19 {fill:#8E8989}
    .fil11 {fill:#918A8A}
    .fil58 {fill:#996633}
    .fil70 {fill:#9EBADC}
    .fil5 {fill:#A8324F}
    .fil46 {fill:#B3ACAC}
    .fil20 {fill:#B5B4B4}
    .fil16 {fill:#BAB6B5}
    .fil15 {fill:#BDB6B6}
    .fil13 {fill:#BDBAB9}
    .fil2 {fill:#BDBCBA}
    .fil61 {fill:#BDCDE0}
    .fil17 {fill:#BFB8B8}
    .fil3 {fill:#C0BABA}
    .fil22 {fill:#C2BDBD}
    .fil38 {fill:#C73E06}
    .fil34 {fill:#C9DCF2}
    .fil36 {fill:#D48B57}
    .fil55 {fill:#D5966D}
    .fil6 {fill:#D85A70}
    .fil26 {fill:#DBAC11}
    .fil23 {fill:#DCDBDB}
    .fil24 {fill:#E2E2E2}
    .fil53 {fill:#E48E51}
    .fil30 {fill:#E4E1DE}
    .fil1 {fill:#E4E4E4}
    .fil21 {fill:#E5E3E3}
    .fil31 {fill:#E5E5E5}
    .fil47 {fill:#E9B891}
    .fil42 {fill:#E9E9E9}
    .fil60 {fill:#EAE7E5}
    .fil52 {fill:#EBA56B}
    .fil12 {fill:#EDECEA}
    .fil51 {fill:#EFC191}
    .fil29 {fill:#F3F3F2}
    .fil28 {fill:whitesmoke}
    .fil50 {fill:#F6D2AC}
    .fil44 {fill:#F8D61F}
    .fil49 {fill:#F8D6B2}
    .fil54 {fill:#F9F5F2}
    .fil64 {fill:#F9F5F2}
    .fil40 {fill:#FAFAFA}
    .fil63 {fill:#FCFCFB}
    .fil62 {fill:#FEFEFD}
    .fil8 {fill:white}
   ]]>
  </style>
     <clipPath id="id0">
      <rect x="8502.5" y="871.74" width="6452.85" height="481.68"/>
     </clipPath>
     <clipPath id="id1">
      <rect x="8479.86" y="1327.32" width="6452.85" height="431.61"/>
     </clipPath>
 </defs>
 <g id="Capa_x0020_1">
  <metadata id="CorelCorpID_0Corel-Layer"/>
  <path class="fil0" d="M8332.94 14032c1819.85,4466.4 -1148.22,-2813.66 0,0zm85.93 -917.76c-324.49,153.06 -620.49,290.47 -939.68,475.2 -149.31,86.44 -292.02,190.84 -415.33,292.24 -181.07,148.89 -223.02,261.08 -366.24,361.67 -88.6,196.83 -200.74,311.72 -250.28,581.97 373.3,600.24 1108.3,864.07 1246.91,1019.9 0.13,0.13 451.06,1080.2 896.4,1373.47 172.37,60.19 151.97,4.07 252.01,118.29 123.08,19.68 64.56,-45.47 148.33,112.48l329.54 0.13c160.05,-388.18 -95.27,-375.86 205.2,-492.84 18.94,-53.04 37.55,-101.32 58.06,-200.42 110.7,-535.19 149.56,-380.63 97.3,-764.88l119.57 -36.39 150.39 -354.03 -49.56 -317.03c-182.78,-123.98 -43.39,-196.25 -495.73,-548.24 -199.54,-155.28 -464.52,-339.82 -587.9,-531.53 -2.93,-396.14 52.48,-880.19 -30.84,-1242.76 -175.73,138.28 -111.72,227.09 -259.9,415.32l-108.25 -262.55z"/>
  <path class="fil1" d="M7220.85 12382.95c-58.79,393.67 -311.86,543.71 -621.19,644.94l-119.81 134.71c305.13,1001.59 543.45,641.31 1489.29,-0.08 -116.99,-91.63 -317.01,-35.33 -459.18,-42.77 7.7,-17.04 34.94,-13.3 -25.51,-87.61 -208.71,-256.48 228.42,160.35 -121.3,-102.4 362.54,-108.81 617.93,-22.27 923.28,-91.82 339.57,-500.37 -383.24,-772.03 -637.87,-865.02 133.73,-83.36 98.55,-16.2 220.37,-52.4l160.52 -80.6c7.47,-23.07 25.33,-18.29 35.67,-31.16l-71.78 -78.49c42.01,-158.03 -86.68,-176.84 124.6,-137.81 -259.75,-42.73 -81.18,-2.15 -136.5,-130.04l-387.27 -58.24 -2.85 506.17c-87.23,87.99 -169.98,85.88 -236.7,158.53 -81.39,97.5 -80.16,64.37 -133.77,314.09z"/>
  <path class="fil2" d="M6559.25 11805.98l634.93 98.33c32.13,-86.11 384.27,-1972.72 566.58,-1817.42l203.27 -89.98c34.99,-436.27 -149.47,-53.09 31.77,-452.34 -15.9,-15.33 -185.17,98.59 -46.31,-298.3 78.67,-224.83 1027.27,-1581.86 977.19,282.23 55.6,-195.98 -8.48,-91.93 135.83,-122.26 16.43,-330.19 -49.15,-551.28 -135.45,-799.34 74.04,264.87 76.07,277.95 298.71,248.77 -92.66,-813.66 -527.02,-503.07 -658.57,-657.59l-176.18 193.25c-349.45,358.44 -496.47,823.07 -845.41,1151.38 -327.18,307.81 -784.93,1995.39 -986.36,2263.27z"/>
  <path class="fil3" d="M6599.66 13027.89l-289.31 62.11c48.72,373.25 211.65,911.27 387.27,1153.35 143.22,-100.59 185.17,-212.78 366.24,-361.67 123.31,-101.4 266.02,-205.8 415.33,-292.24 319.19,-184.73 615.19,-322.14 939.68,-475.2 102.12,-448.91 10.1,-807.16 -188.89,-1075.96 -26.4,-34.26 -77.93,-110.07 -90.76,-128.09 -25.52,-35.78 -24.95,59.2 -48.74,-67.09 -4.01,-21.32 -16.77,-23.08 -25.36,-34.36 -10.34,12.87 -28.2,8.09 -35.67,31.16l-160.52 80.6c-121.82,36.2 -86.64,-30.96 -220.37,52.4 254.63,92.99 977.44,364.65 637.87,865.02 -305.35,69.55 -560.74,-16.99 -923.28,91.82 349.72,262.75 -87.41,-154.08 121.3,102.4 60.45,74.31 33.21,70.57 25.51,87.61 142.17,7.44 342.19,-48.86 459.18,42.77 -945.84,641.39 -1184.16,1001.67 -1489.29,0.08l119.81 -134.71z"/>
  <path class="fil4" d="M6481.09 11932.1c211.31,81.27 628.23,-137.31 588.42,383.83 -36.21,473.88 -503.72,571.63 -812.44,587.86l53.28 186.21 289.31 -62.11c309.33,-101.23 562.4,-251.27 621.19,-644.94l16.99 -77.64c18.79,-114.54 5.01,-80.93 -20.85,-319.95 -27.79,-309.8 -495.49,-194.2 -657.74,-179.38l-78.16 126.12z"/>
  <path class="fil5" d="M6261.29 12609.06c55.26,98.83 22.26,-126.87 68.05,167.71 344.82,-6.12 609.45,-107.96 686.68,-455.73 -151.9,135.99 -275.26,187.14 -549.41,154.33l47.29 -394.81 -62.52 -61.7c-88.79,134.54 -160.69,372.73 -190.09,590.2z"/>
  <path class="fil6" d="M6513.9 12080.56l-47.29 394.81c274.15,32.81 397.51,-18.34 549.41,-154.33 16.85,-328.14 -10.15,-132.03 -35.27,-207.01 -145.48,-72.85 -344.41,-134.5 -466.85,-33.47z"/>
  <path class="fil7" d="M6451.38 12018.86l62.52 61.7c122.44,-101.03 321.37,-39.38 466.85,33.47 25.12,74.98 52.12,-121.13 35.27,207.01 -77.23,347.77 -341.86,449.61 -686.68,455.73 -45.79,-294.58 -12.79,-68.88 -68.05,-167.71l-4.22 294.73c308.72,-16.23 776.23,-113.98 812.44,-587.86 39.81,-521.14 -377.11,-302.56 -588.42,-383.83l-32.42 0.16 2.71 86.6z"/>
  <path class="fil8" d="M8813.88 9124.85c854.45,-4.11 6605.29,20.24 6609.43,880.28 0.52,107.44 687.54,179.23 1110.14,720.22 286.99,367.37 420.72,1255.38 256.26,1339.46 -1532.42,783.44 -7285.59,171.33 -7960.82,174.59 -486.91,2.34 -1247.98,783.88 -1533.25,431.34 -215.34,-266.11 -19.59,-1611.22 -21.38,-1981.16 -4.14,-860.04 685.18,-1560.61 1539.62,-1564.73z"/>
  <path class="fil8" d="M11504.47 8203.52c955.32,-20.3 1355.39,-710.44 1744.08,-435.57 313.42,221.59 454.9,1009.97 743.21,1720.26 645.89,1591.15 -1211.57,2019.1 -2718.05,2026.36 -1506.48,7.26 -2732.08,-888.21 -2737.44,-2000.08 -2.31,-479.15 -21.44,-1252.28 340.7,-1625.31 284.6,-293.19 800.04,169.37 1459.3,367.08 357.07,107.05 802.38,-44.98 1168.2,-52.74z"/>
  <path class="fil9" d="M9666.06 11303.2l11.75 10.11 1392.38 30.34 29.6 1118.17c-246.36,148.27 -1186.56,59.57 -1520.52,42.42l91.76 -1269.82 -126.08 11.38 -29.08 366.75c-48.58,-30.1 -170.31,103.42 -75.84,-478.3l253.45 -19.69c-10.82,152.97 -18.62,110.25 -22.45,119.86l-4.97 68.78zm-432.45 -1298.94c-46.89,-218.6 -110.07,-468.16 89.16,-486.35 151.62,244.03 78.65,382.87 -89.16,486.35zm85.49 -872.35c50.34,181.29 -1.31,222.3 -22.96,285.71 -27.95,-4.68 -234.83,214.75 -166.86,-413.21 156.44,8.4 129.33,-90.49 189.82,127.5zm-751.89 -933.83c321.28,377.43 525.36,603.31 495.32,1208.16 -64.7,430 53.11,784.57 72.14,1247.76 18.07,439.4 -4.1,920.82 0.4,1367.36 67.79,182.18 -114.3,1687.74 65.43,2021.23 89.81,156.93 108.47,144.7 325.47,158.6 139.61,8.96 283.77,15.92 421.87,12.16l1085.8 31.83c-5.44,-215.53 14.4,-131.76 -26.31,-168.56 -309,-16.94 -621.27,-26.21 -930.73,-38.52 -909.07,-36.15 -847.99,108.12 -830.01,-1126.34 2.43,-167.01 -0.56,-316.36 -2.18,-481.74 -4.71,-482.68 7.26,-335.92 90.63,-363.65 51.76,170.42 3.02,-72.34 -1.6,154.53 -8.61,423.03 -91.26,337.76 689.67,368.27 476.6,18.64 1083.39,185.76 1153.21,-168.52l-0.22 -527.48c-8.89,-463.14 64.3,-915.7 -379.94,-941.88l-1010.11 -0.74c-324.3,-92.01 -493.63,-101.84 -449.28,162.19l-3.93 495.2c-97.63,-79.76 -14.81,123.87 -97.2,-173.1 114.18,-450.13 -169.34,-901.2 410.02,-801.8 203.11,34.86 181.03,85.96 418.11,41.95l158.78 -31.66c247.19,-21.49 426.71,76.93 570.03,85.58 383.43,23.21 -62.15,-125.6 523.9,14.17 135.73,-15.55 111.07,-60.76 301.45,-43.95 204.27,13.53 227.19,56.84 451.69,20.9l661.34 51.94c6.44,-32.94 -234.72,-197.06 -401.85,-327.25l-302.74 -22.58c-155.05,-15.98 -1058.86,-88.16 -1081.93,-99.48l-16.66 -1.59 -1304.58 -53.04c-135.62,-12.48 -113.29,-42.74 -150.63,-278.62l-146.68 -1155.71c1269.43,274.83 2053.45,290.36 3346.14,22.6l-83.49 242.73 -197.55 1035.3 -61.88 310.39 352.66 271.18 49.19 56.07c22.6,-215.3 -16.54,-491.43 -21.96,-840.08 19.9,-74.38 41,-247.44 33.84,-405.69 17.9,-82.98 9.43,-233.07 16.45,-194.01 28.31,-278.42 94.59,14.44 33.25,-325.47 64.23,-252.23 -8.04,-94.02 60.1,-461.2 -91.32,-139.65 119.11,-202.37 -192.83,5.99 -1001.68,669.13 -3671.62,540.44 -3782.85,-662.35 307.36,27 765.55,437.67 1074.23,521.31 1354.71,367.18 2302.01,-361.28 3015.69,-202.95 66.26,-375.58 232.51,-291.92 359.75,-564.95 -135.33,4.09 -184.93,-43.37 -350.26,-40.98 -211.65,134.39 -590.65,332.31 -841.24,336.61 -669.39,135.49 -1120.58,156.23 -1861.87,131.2 -309.89,-10.44 -189.79,27.41 -384.42,-131.37l-1133.46 -379.62c-116.68,94.23 -189.95,121.31 -195.76,312.66 -4.44,144.58 21.1,89.22 28.25,210.88 8.22,140.57 48.85,29.17 -20.66,116.13z"/>
  <path class="fil10" d="M13332.73 24048.88c235.2,41.16 493.17,390.03 617.34,565.02 1075.75,1515.85 -677,1740.47 -2194.72,727.57 -249.78,-166.69 -530.64,-334.2 -510.34,-729.65l749.9 -351.86c-107.32,329.29 -342.05,357.92 -394.23,818.37 127.89,-98.92 204.59,-324.9 308.52,-483.57 521.57,-796.24 1192.72,-911.39 1423.53,-545.88zm-1256.33 -803.9c116.73,21.23 -33.96,10.86 101.54,1.09l64.49 -21.1c-593.51,-195.97 -788.62,-560.08 -857.51,-1434.46 273.57,96.98 404.66,318.87 793.69,422.89 656.01,175.38 1178.99,-178 927.32,488.28 -94.1,249.12 -243.35,372.59 -436.32,507.31 -57.32,40.02 -100.85,62.8 -153.23,101.95l-121.98 106.59c356.4,-40.71 410.73,-213.23 711.44,-269.65 2.47,394.94 10.2,487.61 -266.61,528.93 -885.25,132.13 -1187.75,730.84 -1427.85,446.82 67.73,-264.97 104.37,-103.92 258.03,-244.47 104.45,-95.57 -123.58,-190.23 161.23,-132.49 -235.21,-142.52 -343.63,-348.08 -356.5,-765.48 191.01,47.18 428.64,232.19 602.26,263.79zm1177.1 -1215.82c-411.76,101.92 -666.76,66.52 -1077.89,-46.81 -312.32,-86.1 -675.36,-309.02 -867.14,-353.2 -90.57,46.15 -64.58,174.9 -65.36,350.96l31.98 1253.53c27.99,1137.59 -331.15,1561.57 -89.92,2070.32l38.65 72.82c33.66,63.28 35.45,68.2 57.07,103.93l254.06 330.78c533.42,588.54 1417.51,859.27 2155.97,724.6 511.87,-93.36 561.56,-259.79 637.24,-842.48 124.88,-961.59 -726.4,-1595.18 -1096.23,-1935.02 -2.28,-515.84 98.4,-1250.98 21.57,-1729.43z"/>
  <path class="fil11" d="M9880.88 24251.46l736.26 305.35c54.91,590.11 -1002.93,1046.52 -1353.29,1182.72 -468.94,182.33 -1799.53,485.64 -1643.25,-510.37 127.49,-812.54 1349.55,-1961.74 2074.93,-1014.89 60.72,79.23 76.17,118.17 131.2,187.69 275.08,347.54 233.77,407.96 426.78,613.67 8.14,8.66 21.97,23.21 34.18,32.32 -107.09,-478.49 -254.3,-496.43 -406.81,-796.49zm-1201.96 -1981.77c363.42,-2.83 698.12,13.25 1029.75,-95.81 304.44,-100.14 514.02,-288.18 739.82,-428.76 -0.94,388.92 -86.23,856.76 -253.42,1058.63 -84.76,102.36 -517.61,386.17 -658.39,476.15 204.31,-37.39 722.87,-323.51 827.29,-298.2 22.46,131.99 -6.98,269.3 -69.17,419.32 -71.39,172.24 -106.1,191.46 -240.37,256.37l135.66 160.27c4.45,5.11 13.89,17.51 19.02,22.41 5.84,5.6 17.64,15.64 24.33,21.04 210.04,169.38 193.95,-76.84 202.04,267.22 -192.41,82.19 -568.31,-197.34 -732.69,-283.98 -351.36,-185.22 -480.07,-158.18 -861.17,-233.11 -76.84,-170.79 -93.05,-250.91 -78.57,-465.46 260.32,17.33 490.82,324.48 748.53,222.71 -415.29,-251.6 -798.26,-398.34 -832.66,-1098.8zm-62.2 -242.09c-137.7,245.13 3.31,1323.93 16.19,1693.77 -137.06,167.2 -477.08,307.88 -814.58,866.11 -164.45,272.03 -442.43,923.98 -186.45,1315.76 92.69,-62.27 90.66,51.72 322.36,142.83 205.64,80.84 268.21,55.51 486.14,52.32 661.77,-9.68 1178.74,-134.96 1722.03,-632.96l51.72 -50.32c318.99,-301.3 198.82,-131.05 443.36,-552.2 7.04,-12.12 18.8,-30.78 24.71,-40.77 6.06,-10.26 16.49,-28.32 25.46,-41.68 55.32,310.27 69.32,73.79 1.64,331.05 171.44,-256.46 -132.74,-1239.54 -129.09,-1635.17 4.21,-458.01 71.28,-1491.44 -11.13,-1875.56 -110.86,-4.99 -682.48,274.93 -904.47,343.59 -450.49,139.33 -606.42,91.64 -1047.89,83.23z"/>
  <path class="fil0" d="M15144.12 12878.35c-221.62,268.41 -26.34,138.31 -130.25,427.37l130.33 825.1c-229.84,219.93 -235.33,37.92 -509.51,393.28 -218.98,283.93 -405.15,131.53 -550.5,442.55 50.5,397.28 324.94,430.95 654.57,407.7 491.25,-419.61 363.31,145.44 341.06,677.82 -116.87,63.4 -256.72,150.63 -407.9,228.72 -217.6,112.39 -264.1,119.14 -334.39,357.96 16.98,250.31 37.8,246.11 113.68,433.13 354.8,122.12 456.55,16.37 700.1,67.07 128.58,26.81 162.78,88.61 337.83,99.46 925.46,57.31 663.38,-86.88 1014.14,-196.61 255.97,-80.09 360.32,-72.93 479.58,-386.32 186.58,-490.12 -10.68,-1163.84 3.92,-1464.13 14.14,-290.19 64.09,-169.8 104.28,-389.14 39.98,-218.22 -45.14,-131.38 4.4,-418.65 26.97,-156.37 84.37,-196.72 107.52,-393.53 21.99,-186.9 -1.32,-312.28 29.82,-502.94 34.54,-211.13 72.55,-112.82 57.27,-341.13 -271.95,-179.09 -734.89,-559.74 -1032.57,-638.72 -492.03,-130.53 -776.27,207.58 -1113.38,371.01z"/>
  <path class="fil12" d="M9525.73 16956.75c115.52,277.01 872.08,413.24 1070.19,446.55 501.85,84.33 894.86,-38.19 1281.59,-255.16l297.06 -104.42c146.24,12.35 112.74,59.24 111.86,-124.76 -324.26,-134.89 -481.89,-315.3 -621.39,-690.12 -99.76,-220.53 11.42,-81.55 -128.13,-175.84 -606.91,3.82 -1156.24,17.52 -1736.25,-97.94l-119.57 36.39c52.26,384.25 13.4,229.69 -97.3,764.88 -20.51,99.1 -39.12,147.38 -58.06,200.42z"/>
  <path class="fil13" d="M11877.51 17148.14c-43.03,61.42 -22.05,85.93 -233.8,199.6 -314.69,168.92 -627.49,279.29 -984.12,221.93 -351.7,-56.57 -916.1,-258.34 -1194.72,-448.94 90.9,395.34 815.26,484.32 1042.95,661.38l-469.65 127.61 637.11 25.24c-70.48,581.3 -624.19,850.66 -1171.19,866.29 -716.86,20.47 -741.2,-595 -779.61,-1433.69l118.18 -30.58c-100.04,-114.22 -79.64,-58.1 -252.01,-118.29l-2.51 1170.2 -99.62 90.98c230.82,87.35 309.59,373.23 1070.01,444.28 581.35,54.32 745.33,-187.19 1173.3,-240.22l81.47 -878.01c236.95,39.93 163.28,-9.57 194.7,380.41 17.18,213.29 52.26,351.29 66.73,561.84 275.86,-33.2 695.19,282.5 1177.79,218.25 325.31,-43.3 867.45,-158.43 1001.69,-516.34l-53.02 -1230.14 -218.3 -24.33c145.12,147.07 58.89,-54.26 85.42,210.41 94.99,1912.39 -2045.68,1296.44 -1849.63,720.99 8.34,-11.57 22.31,-43.31 27.25,-31.76l121.29 -96.86c44.35,-22.97 137.44,-46.19 185.31,-58.62 131.05,-34.01 298.92,-73.29 394.83,-138.29 -289.36,3.1 -471.62,102.1 -803.34,22.39 159.85,-133.62 398.38,-229.28 554.78,-345.5l475.77 -434.65 -297.06 104.42z"/>
  <path class="fil14" d="M11200.31 12774.92c-79.24,193.4 -63.04,353.08 -125.23,536.24l-56.36 530.91 -11.39 234.55c40.71,36.8 20.87,-46.97 26.35,168.53l29.33 90.22 142.15 956.63 118.5 222.36c-50.31,64.95 17.15,29.43 -95.3,83.56 -137.89,66.39 -86.66,15.41 -103.32,8.69l258.88 -13.18c75.8,334.67 131.07,203.5 152.97,459.55 139.58,94.33 28.41,-44.67 128.15,175.85 187.65,-98.11 241.68,375.05 1163.51,541.32 476.65,85.97 1101.36,106.36 1509.01,-131.3 70.26,-238.78 116.76,-245.57 334.36,-357.96 151.14,-78.09 291.03,-165.32 407.9,-228.72 5.66,-135.38 26.96,-295.87 27.12,-423.27 2.22,-1659.21 -489.14,-2599.06 -1698.44,-2386.41 -1437.71,252.85 -1330.73,2896.18 -1361.2,1066.85 -17.59,-1052.8 466.74,-879.45 974.3,-1111.59l204.78 -68.79c152.65,-3.79 190.42,-153.59 356.25,-100.83l331.31 -154.49 976.11 1271.9 112.96 317.67 135.37 -369.19 -115.41 -688.66 -98.23 -868.71 -479.12 -786.66c-196.48,-89.54 -533.08,-224.49 -729.56,-313.99 -186.08,6.13 -365.93,-38.48 -552.01,-32.35l-1157.85 493.16c-440.18,256.93 -503.31,465.76 -805.89,878.11z"/>
  <path class="fil15" d="M13332.73 24048.88c124.94,219.91 -13.67,17.22 121.17,136.86 1570,1393.11 56.75,1953.44 -744.16,918.81 -149.42,-193.01 -339.29,-585.36 -125.27,-884.22 182.51,-254.83 476.1,-168.89 748.26,-171.45zm0 0c-230.81,-365.51 -901.96,-250.36 -1423.53,545.88 -103.93,158.67 -180.63,384.65 -308.52,483.57 52.18,-460.45 286.91,-489.08 394.23,-818.37l-749.9 351.86c-20.3,395.45 260.56,562.96 510.34,729.65 1517.72,1012.9 3270.47,788.28 2194.72,-727.57 -124.17,-174.99 -382.14,-523.86 -617.34,-565.02z"/>
  <path class="fil16" d="M11543.2 20258.53l673.58 166.12c-198.33,-321.71 -659.98,-428.45 -711.89,-943.46 1085.72,-23.46 1170.39,776.7 997.88,1935.87l-241.63 135.22c114.19,69.3 215.41,123.95 330.29,178.88 155.31,74.25 208.67,60.68 316.83,197.5 -255.76,65.51 -1259.05,-96.38 -1392.26,-755.92 -42.26,-209.29 -89.7,-515.21 -35.6,-658.17 94.99,110.23 167.89,282.53 265.28,418.3 70.49,98.27 189.07,239.69 247.38,287.07l-337.46 -591.04c-61.9,-115.31 -130.04,-218.16 -119,-341.65 0.57,-6.39 5.31,-23.07 6.6,-28.72zm-234.73 1370.62c191.78,44.18 554.82,267.1 867.14,353.2 411.13,113.33 666.13,148.73 1077.89,46.81l-15.3 -60.85 -32.09 -79.31c-4.02,-7.45 -12.34,-28.64 -17.65,-37.36 -99.82,-164.06 -146.96,-118.34 -300.48,-202.25 -36.74,-212.79 -6.45,-1568.14 -7.97,-1570.79 -120.9,-402.08 15.23,-462.89 -235.73,-620.64 5.43,-20.25 16.31,-44.42 21.07,-58.25 4.21,-12.21 14.56,-38.24 18.88,-51.32 82.65,-250.03 98.2,65.94 18.67,-94.49 -559.27,75.06 -921.46,269.89 -1463.83,-77.32 24.06,281.58 -13.17,426.35 -36.09,668.97 -21.76,230.48 9.66,229.33 54.61,456.59 44.37,224.35 68.15,1083.12 50.88,1327.01z"/>
  <path class="fil17" d="M8615.28 24048.55c861.44,-416.45 1181.64,1060.37 -95.35,1500.6 -430.99,148.58 -998.17,30.82 -698.74,-658.98 139.26,-320.82 450.5,-675.52 794.09,-841.62zm1265.6 202.91c152.51,300.06 299.72,318 406.81,796.49 -12.21,-9.11 -26.04,-23.66 -34.18,-32.32 -193.01,-205.71 -151.7,-266.13 -426.78,-613.67 -55.03,-69.52 -70.48,-108.46 -131.2,-187.69 -725.38,-946.85 -1947.44,202.35 -2074.93,1014.89 -156.28,996.01 1174.31,692.7 1643.25,510.37 350.36,-136.2 1408.2,-592.61 1353.29,-1182.72l-736.26 -305.35z"/>
  <path class="fil16" d="M9592.87 21490.66c-255.14,-143.52 -287.37,-27.87 -313.63,-560.02 -13.77,-279.2 1.59,-626.77 55.61,-884.67 118.56,-565.97 697.21,-653.26 974.51,-580.48 -12.93,287.7 -491.87,715.64 -690.1,937.52l565.58 -362.95c5.6,8.71 9.77,26.29 11.58,30.49l134.6 139.39c-107.19,359.55 -300.38,669.74 -437.28,943.65 175.75,-172.35 308.44,-533.39 480.88,-696.22 25.02,619.41 -58.63,946.02 -412.33,1162.58 -232.58,142.38 -799.64,454.09 -1024.28,247.64l654.86 -376.93zm-533.19 -2289.66l112.75 123.86c-80.11,230.15 -84.43,-4.44 -165.03,465.47 -31.18,181.88 -79.99,295.46 -167.59,426.49 32.03,-9.02 121.59,-142.39 139.4,338.69 32.17,870.02 84.88,972.02 -192.22,1155.28l-149.36 110.19 -20.91 206.62c441.47,8.41 597.4,56.1 1047.89,-83.23 221.99,-68.66 793.61,-348.58 904.47,-343.59 -78.43,-180.34 -41.3,-1074.85 -1.31,-1325.11 114.34,-715.73 25.88,-402.36 2.97,-852.03 -8.59,-168.83 -8.62,-108.37 25.8,-280.27 -653.99,262.96 -833.96,253.65 -1536.86,57.63z"/>
  <path class="fil18" d="M8487.2 16092.78c8.27,2.1 23.24,19.76 33.65,26.18 76.72,47.48 212.34,187.4 339.58,244.39 237.19,106.3 472.85,85.48 414.25,-65.17 -60.31,-154.94 -935.26,-870.92 -857.78,-1134.12 61.53,167.23 13.74,93.1 134.51,234.74 413.2,484.75 1358.24,633.1 1258.67,16.57 -51.87,-320.97 -509.81,-565.48 -733.44,-759.09 -532.32,-460.89 -362.17,-846.46 -353.25,-1097.35 -136.07,111.98 -234.41,313.89 -286.29,505.16 -10.31,-15.59 -19.05,-36.94 -25.28,-52.18 -155.9,-382.06 -42.53,-488.1 -359.7,-467.64 -469.19,30.28 -1262.52,903.7 -1252.56,1200.3 8.7,260.09 549.61,669.06 794.25,627.99 337.71,-56.66 -38.07,-582.84 533,-983.23 -516.12,1326.59 -38.5,1752.15 245.67,2260.38 159.37,284.99 106.15,411.91 482.62,422.85l-97.35 -81.31c-158.86,-128.03 -269.35,-191 -312.29,-522.22 131.17,120.23 187.35,340.55 374.37,438.35 209.74,109.69 469.5,66.56 585.92,-170.82 -139.42,-9.69 -462.32,-82.33 -578.2,-140.55 -159.5,-80.09 -264.22,-269.1 -395.68,-371.07 -14.6,-74.53 14.48,-105.32 35.8,-119.9 11.62,-7.98 5.48,-6.96 19.53,-12.26z"/>
  <path class="fil19" d="M11007.33 14076.62l11.39 -234.53 -1479.17 -18.59 -179.76 -81 2.91 -902.63 1575.97 0.13c229.36,66.86 90.23,36.48 145.27,148.01l-8.83 323.13c62.16,-183.14 45.94,-342.84 125.19,-536.24 12.75,-493.98 31.17,-246.68 124.76,-574.28 3.2,-11.23 -15.78,-1167.35 -8.56,-1457.55 -107.62,-103.1 -115.42,-127.45 -498.85,-150.63 -508.37,-30.76 -1063.47,-57.83 -1574.49,16.62l-7.52 825.78c82.39,296.97 -0.45,93.35 97.18,173.1l9.76 -627.4c262.19,-20.54 119.24,-5.71 432.02,-27.53l1021.56 -1.71c444.23,26.16 371.03,478.73 379.94,941.87l0.22 527.46c-69.83,354.3 -676.61,187.18 -1153.21,168.55 -780.94,-30.52 -698.29,54.77 -689.67,-368.28 4.63,-226.86 53.34,15.89 1.59,-154.55 -83.38,27.74 -95.31,-119.01 -90.6,363.66 1.61,165.39 4.6,314.72 2.18,481.77 -18.01,1234.46 -79.07,1090.17 829.99,1126.32 309.44,12.31 621.72,21.58 930.73,38.52z"/>
  <path class="fil20" d="M16438.51 10710.21c902.2,859.18 -258.48,1723.26 -137.57,26.58 -873.21,794.83 881.09,1815.93 767.88,2024.56 -296.49,-102.92 -533.02,-324.24 -860.3,-424.48 -523.13,-160.24 -614.95,192.43 -1019.21,133.84l-73.52 -357.35c18.39,-9.17 37.8,-33.03 45.45,-17.57 0.52,1.06 313.81,137.58 428.19,-72.53 -279.45,-402.32 -330.27,-396.71 -410.14,-395.06 -86.35,546.71 7.24,206.18 -219.09,494.06 78.05,335.71 -33.78,490.93 183.93,756.1 337.11,-163.45 621.33,-501.54 1113.37,-371.02 297.68,78.97 760.61,459.63 1032.59,638.74 -297.18,-1628.11 -279.61,-763.83 -126.28,-1578.76 -315.27,-268.76 -331.03,-359.71 -510.57,-769.97 -29.12,-66.54 -33.29,-78.94 -59.81,-154.1 -5.05,-14.34 -10.62,-32.3 -15.26,-45.83l-51.67 -154.9c-45.84,281.12 51.17,65.83 -87.99,267.69z"/>
  <path class="fil21" d="M9592.87 21490.66l-654.86 376.93c224.64,206.45 791.7,-105.26 1024.28,-247.64 353.7,-216.56 437.35,-543.17 412.33,-1162.58 -172.44,162.83 -305.13,523.87 -480.88,696.22 136.9,-273.91 330.09,-584.1 437.28,-943.65l-134.6 -139.39c-1.81,-4.2 -5.98,-21.78 -11.58,-30.49l-565.58 362.95c198.23,-221.88 677.17,-649.82 690.1,-937.52 -277.3,-72.78 -855.95,14.51 -974.51,580.48 -54.02,257.9 -69.38,605.47 -55.61,884.67 26.26,532.15 58.49,416.5 313.63,560.02z"/>
  <path class="fil22" d="M13326.63 7642.57c-127.22,273.01 -293.49,189.37 -359.76,564.96l-114.23 338.01c-63.33,341.3 -143.22,1384.83 -143.62,1386.36l-22.03 262.61 -5.23 521.39c103.31,831.23 894.38,257.02 945.5,-159.79 -758.34,-141.82 -319.18,-327.43 -306.9,-351.74 92.9,-183.86 176.64,-45.86 257.14,-286.84l-313.6 -175.4 40.32 -366.75c-212.64,110.06 -247.59,72.12 -385.74,242.25 -99.97,-723.39 80.65,-1633.17 548.47,-1778.99 676.82,-210.99 806.64,447.97 904.1,574.91 158.1,205.96 126.83,79.44 335.23,137.36 -80.32,188.53 -241.83,174.95 -423.02,326.16 -120.35,100.41 -231.94,262.09 -241.98,482.36 115.01,-156.28 433.35,-467.44 733.55,-492.99 459.26,-39.07 211.45,190.15 631.71,631.14 -50.21,173.29 -32.8,91.17 -118.19,227.81l257.72 145.93 320.12 -168.91c-257.96,-234.36 -461.13,-319.36 -624.55,-756.81 -180.44,-483 -176.96,-26.5 -462.29,-474.18 -522.37,-819.58 -862.42,-706.48 -1335.26,-891.87 -42.79,122.58 83.36,145.64 -117.46,63.02z"/>
  <path class="fil21" d="M12216.78 20424.65l-673.58 -166.12c-1.29,5.65 -6.03,22.33 -6.6,28.72 -11.04,123.49 57.1,226.34 119,341.65l337.46 591.04c-58.31,-47.38 -176.89,-188.8 -247.38,-287.07 -97.39,-135.77 -170.29,-308.07 -265.28,-418.3 -54.1,142.96 -6.66,448.88 35.6,658.17 133.21,659.54 1136.5,821.43 1392.26,755.92 -108.16,-136.82 -161.52,-123.25 -316.83,-197.5 -114.88,-54.93 -216.1,-109.58 -330.29,-178.88l241.63 -135.22c172.51,-1159.17 87.84,-1959.33 -997.88,-1935.87 51.91,515.01 513.56,621.75 711.89,943.46z"/>
  <path class="fil1" d="M8615.28 24048.55c-343.59,166.1 -654.83,520.8 -794.09,841.62 -299.43,689.8 267.75,807.56 698.74,658.98 1276.99,-440.23 956.79,-1917.05 95.35,-1500.6z"/>
  <path class="fil23" d="M8787.02 12961.47c83.32,362.57 27.91,846.62 30.84,1242.76 123.38,191.71 388.36,376.25 587.9,531.53 452.34,351.99 312.95,424.26 495.73,548.24 181.07,100.4 166,80.04 364.38,54.22l237.59 -1003.69 -555.61 -121.18c-138.12,3.76 -282.26,-3.19 -421.89,-12.14 -216.99,-13.92 -235.64,-1.69 -325.47,-158.63 -179.71,-333.48 2.37,-1839.04 -65.41,-2021.23 -349.19,-103.69 1.15,-116.85 -290.67,-303.99l-36.97 8.98 -20.42 1235.13z"/>
  <path class="fil1" d="M13332.73 24048.88c-272.16,2.56 -565.75,-83.38 -748.26,171.45 -214.02,298.86 -24.15,691.21 125.27,884.22 800.91,1034.63 2314.16,474.3 744.16,-918.81 -134.84,-119.64 3.77,83.05 -121.17,-136.86z"/>
  <path class="fil15" d="M12318.29 22381.29c219.93,35.61 502.96,20.99 667.33,91.85 -8.73,704.75 -1309.84,831.08 -1289.75,-224.65 186.53,-77.16 413.95,99.05 622.42,132.8zm-75.86 843.68l-64.49 21.1c-135.5,9.77 15.19,20.14 -101.54,-1.09 -173.62,-31.6 -411.25,-216.61 -602.26,-263.79 12.87,417.4 121.29,622.96 356.5,765.48 -284.81,-57.74 -56.78,36.92 -161.23,132.49 -153.66,140.55 -190.3,-20.5 -258.03,244.47 240.1,284.02 542.6,-314.69 1427.85,-446.82 276.81,-41.32 269.08,-133.99 266.61,-528.93 -300.71,56.42 -355.04,228.94 -711.44,269.65l121.98 -106.59c52.38,-39.15 95.91,-61.93 153.23,-101.95 192.97,-134.72 342.22,-258.19 436.32,-507.31 251.67,-666.28 -271.31,-312.9 -927.32,-488.28 -389.03,-104.02 -520.12,-325.91 -793.69,-422.89 68.89,874.38 264,1238.49 857.51,1434.46z"/>
  <path class="fil1" d="M13577.5 9917.53l7.04 -306.33c-171.64,-2.27 -34.63,43.66 -146.33,-30.87 -21.82,-351.25 89.26,-434.05 64.92,-701.25 -156.52,32.6 -267.27,196.7 -347.07,7.44 -64.13,-152.04 229.46,-907.23 821.55,-751.21 2.14,263.41 2.17,428.73 -173.03,591.14 194.47,-141.33 245.71,-222.15 513.93,-201.48 -47.36,274.65 -441.12,831.83 -469.65,776.91 -7.27,-13.97 -27.26,17.91 -40.24,28.27 170.7,86.15 25.08,-59.2 77.75,124.72 46.29,161.59 7.53,342.41 36.51,557.26l311.11 31.3 63.36 10.98c-81.18,-154.26 -82.91,-101.82 -297.47,-134.42 97.75,-651.25 666.29,-1065.47 1194.73,-628.97 38.18,419.64 -80.37,347.76 -161.48,606.14l-197.82 146.86c227.7,-10.67 327.8,-37.83 552.85,13.18 65.07,-101.12 73.32,-95.32 157.91,-185.88l-257.72 -145.93c85.39,-136.64 67.98,-54.52 118.19,-227.81 -420.26,-440.99 -172.45,-670.21 -631.71,-631.14 -300.2,25.55 -618.54,336.71 -733.55,492.99 10.04,-220.27 121.63,-381.95 241.98,-482.36 181.19,-151.21 342.7,-137.63 423.02,-326.16 -208.4,-57.92 -177.13,68.6 -335.23,-137.36 -97.46,-126.94 -227.28,-785.9 -904.1,-574.91 -467.82,145.82 -648.44,1055.6 -548.47,1778.99 138.15,-170.13 173.1,-132.19 385.74,-242.25l-40.32 366.75 313.6 175.4z"/>
  <path class="fil1" d="M9320.53 17449.59c161.18,91.29 231.63,193.37 308.81,388.64l-328.67 171.48c229.64,194.11 583.95,81.7 718.69,361.04 -262.98,317.19 -1019.04,362.85 -1066.8,-653.54 -15.81,-336.45 -49.38,-137.07 38.43,-267.75 -83.77,-157.95 -25.25,-92.8 -148.33,-112.48l-118.18 30.58c38.41,838.69 62.75,1454.16 779.61,1433.69 547,-15.63 1100.71,-284.99 1171.19,-866.29l-637.11 -25.24 469.65 -127.61c-227.69,-177.06 -952.05,-266.04 -1042.95,-661.38 278.62,190.6 843.02,392.37 1194.72,448.94 356.63,57.36 669.43,-53.01 984.12,-221.93 211.75,-113.67 190.77,-138.18 233.8,-199.6 -386.73,216.97 -779.74,339.49 -1281.59,255.16 -198.11,-33.31 -954.67,-169.54 -1070.19,-446.55 -300.47,116.98 -45.15,104.66 -205.2,492.84z"/>
  <path class="fil15" d="M8876.73 22421.59c235.05,-32.97 455.57,-31.55 686.36,-71.75 215.17,-37.47 411.55,-184.99 582.81,-162.32 60.48,1058.49 -1278,1002.91 -1269.17,234.07zm-197.81 -151.9c34.4,700.46 417.37,847.2 832.66,1098.8 -257.71,101.77 -488.21,-205.38 -748.53,-222.71 -14.48,214.55 1.73,294.67 78.57,465.46 381.1,74.93 509.81,47.89 861.17,233.11 164.38,86.64 540.28,366.17 732.69,283.98 -8.09,-344.06 8,-97.84 -202.04,-267.22 -6.69,-5.4 -18.49,-15.44 -24.33,-21.04 -5.13,-4.9 -14.57,-17.3 -19.02,-22.41l-135.66 -160.27c134.27,-64.91 168.98,-84.13 240.37,-256.37 62.19,-150.02 91.63,-287.33 69.17,-419.32 -104.42,-25.31 -622.98,260.81 -827.29,298.2 140.78,-89.98 573.63,-373.79 658.39,-476.15 167.19,-201.87 252.48,-669.71 253.42,-1058.63 -225.8,140.58 -435.38,328.62 -739.82,428.76 -331.63,109.06 -666.33,92.98 -1029.75,95.81z"/>
  <path class="fil14" d="M8555.78 16084.79c236.35,154.26 430.49,339.65 720.7,212.65 -133.27,-337.12 -264.23,-148.22 -463.56,-461.62 -158.83,-71.25 -395.32,-326.99 -440.01,-545.99 -53.38,-73.48 -41.11,32.16 -90.13,-201.32 -43.27,-206.11 30.41,-388.3 101.97,-534.72l75.93 161.26c5.06,15.53 24.66,108.84 31.34,135.63 26.43,106.15 30.77,144.03 82.03,250.73 57.21,119.06 201.98,304.35 263.89,375.97 262.55,303.74 612.47,293.15 895.62,98.74 7.7,-413.65 -331.4,-472.82 -586.69,-687.57 -375.72,-316.05 -404.68,-687.65 -566.89,-697.17 -543.01,241 -741.83,1481.16 -276.99,2037.56 9.55,-12.07 14.6,-34.17 18.66,-45.91l96.31 -337.21c39.16,103.34 21.56,54.7 73.16,143.1 1.59,2.72 19.48,136.53 42.47,64.63 2.98,-9.3 15.24,20.33 22.19,31.24z"/>
  <path class="fil24" d="M10927.78 10321.07l16.67 1.59c206.51,-46.78 199.61,40.14 368.13,-73.63 7.81,-5.27 18.5,-16.04 26.23,-21.68l84.14 -63.56c201.66,-139.39 291.82,-162.87 549.75,-145.26l53.67 403.61 99.81 -34.85c77.27,-221.32 79.59,-159.24 264.81,-252.96l197.55 -1035.32c-357.54,16.91 -794.81,161.62 -1177.18,200.29 -499.47,50.53 -639.35,94.44 -721.13,755.4 203.89,163.31 186.76,99.87 237.55,266.37z"/>
  <path class="fil25" d="M11740.09 11553.51c-72.81,61.18 -144.27,153.39 -175.81,190.87l-40.71 323.34c282.47,-142.81 142.04,-102.71 320.02,-246.03 100.21,-80.7 177.64,-108.21 282.76,-101.55l761.3 -317.89c106.76,-66.34 51.81,-190.54 326.45,-32.98 44.08,25.29 182.24,-6.6 383.43,107.86 187.48,-26.57 388.4,109.89 721.34,238.58 63.38,7.75 270.86,191.78 327.58,222.24 185.88,99.99 171.87,78.9 313.75,184.34 226.32,-287.91 132.72,52.6 219.1,-494.09 -70.63,-1.94 -142.99,2.55 -213.26,-11.67 -203.77,-41.06 -208.37,-120.46 -459.47,-236.01 -650.06,-299.03 -611.34,11.31 -607.4,-562.19 -200.44,167.97 -79.14,159.42 -308.47,244.65l4.66 -246.87c-337.28,162.55 -793.51,24.25 -1112.7,-43.77 114.09,341.02 105.53,102.92 136.87,455.97 -170.43,-6.46 -726.11,196.17 -879.44,325.2z"/>
  <path class="fil26" d="M9697.67 11313.86c86.01,197.1 24.23,75.86 90.84,241.75 200.13,498.27 825.53,574.23 1097.4,308.68 -95.93,303.48 -207.19,326.47 -509.9,367.68 -242.1,32.98 -494.29,67.49 -734.86,34.95 -14.93,-347.31 -41.82,-695.68 51.55,-965.61l-38.48 2.76 -61.76 13.88 -13.2 1186.29c333.98,17.14 1274.15,105.85 1520.53,-42.44l-29.6 -1118.15 -1372.52 -29.79z"/>
  <path class="fil12" d="M14804.53 10473.1l88.3 350c221.65,70.75 33.27,74.64 148.58,121.53 8.38,3.41 38.32,6.9 49.04,9.93 6.77,1.92 21.06,4.38 28.4,6.5l269.82 67.52c115.06,-203.66 191.05,-144 401.2,-107.89 -32.45,285.27 0.35,681.98 -107.13,879.45 -114.38,210.12 -520.98,296.71 -521.5,295.65 -7.65,-15.46 -27.06,8.4 -45.45,17.57l73.52 357.35c404.26,58.59 496.08,-294.08 1019.21,-133.84 327.28,100.24 563.81,321.56 860.3,424.48 -422.43,-1465.13 -1120.2,138.8 -1118.88,-1918.5 -313.44,-4.39 -477.79,-133.29 -593.54,-409.89l-551.87 40.14z"/>
  <path class="fil27" d="M7631.88 25903.24c-27.89,1294.18 2889.45,478.09 3077.42,-791.73 67.68,-257.26 53.68,-20.78 -1.64,-331.05 -8.97,13.36 -19.4,31.42 -25.46,41.68 -5.91,9.99 -17.67,28.65 -24.71,40.77 -244.54,421.15 -124.37,250.9 -443.36,552.2l-51.72 50.32c-543.29,498 -1060.26,623.28 -1722.03,632.96 -217.93,3.19 -280.5,28.52 -486.14,-52.32 -231.7,-91.11 -229.67,-205.1 -322.36,-142.83z"/>
  <path class="fil28" d="M12882.92 17178.36l-425.07 -101.86c-233.28,-15.65 -124.1,60.07 -332.58,241 -68.3,59.29 -111.11,78.29 -175.18,128.98 -168.96,133.65 -81.82,15.46 -181.18,214.38l420.84 28.4c-41.83,323.72 -334.32,251.32 -527.54,379.95 -196.51,130.82 -133.7,115.02 -177.8,275.71 857.26,395.25 1640.28,-220.66 1398.51,-1166.56z"/>
  <path class="fil29" d="M14297.35 10054.41l-2.84 361.58c-55.66,10.25 -124.23,18.32 -166.79,29.03l-187.06 69.04c192.08,298.79 437.1,334.94 474.72,445.79 126.35,-519.3 -21.16,-779.68 419.93,-915.83l197.82 -146.86c81.11,-258.38 199.66,-186.5 161.48,-606.14 -528.44,-436.5 -1096.98,-22.28 -1194.73,628.97 214.56,32.6 216.29,-19.84 297.47,134.42z"/>
  <path class="fil30" d="M8637.63 21820.98l149.36 -110.19c277.1,-183.26 224.39,-285.26 192.22,-1155.28 -17.81,-481.08 -107.37,-347.71 -139.4,-338.69 -207.94,40.39 -428.08,188.27 -535.66,-93.3l-50.4 0.24c-55.03,313.98 -25.51,713.65 -22.26,1048.6 5.03,521.61 72.26,497.22 406.14,648.62z"/>
  <path class="fil30" d="M13238.2 21968.31c-11.03,-329.71 14.64,-78.89 226.66,-260.65 145.92,-125.07 123.9,-217.69 127.78,-441.01 6.04,-347.71 26.29,-775.88 -30.4,-1102.86 -288.59,221.56 -453.21,193 -682.23,-85.19 1.52,2.65 -28.77,1358 7.97,1570.79 153.52,83.91 200.66,38.19 300.48,202.25 5.31,8.72 13.63,29.91 17.65,37.36l32.09 79.31z"/>
  <path class="fil31" d="M12174.57 17043.72l-475.77 434.65c-156.4,116.22 -394.93,211.88 -554.78,345.5 331.72,79.71 513.98,-19.29 803.34,-22.39 -95.91,65 -263.78,104.28 -394.83,138.29 -47.87,12.43 -140.96,35.65 -185.31,58.62l-121.29 96.86c-4.94,-11.55 -18.91,20.19 -27.25,31.76 -196.05,575.45 1944.62,1191.4 1849.63,-720.99 -26.53,-264.67 59.7,-63.34 -85.42,-210.41l-99.97 -17.25c241.77,945.9 -541.25,1561.81 -1398.51,1166.56 44.1,-160.69 -18.71,-144.89 177.8,-275.71 193.22,-128.63 485.71,-56.23 527.54,-379.95l-420.84 -28.4c99.36,-198.92 12.22,-80.73 181.18,-214.38 64.07,-50.69 106.88,-69.69 175.18,-128.98 208.48,-180.93 99.3,-256.65 332.58,-241l-171.42 -157.54c0.88,184 34.38,137.11 -111.86,124.76z"/>
  <path class="fil32" d="M12286.43 16918.96l171.42 157.54 425.07 101.86 99.97 17.25 218.3 24.33c260.28,26.02 456.4,25.48 716.31,-17.92 181.97,-30.38 368.53,-126.67 533.71,-130.04 -75.87,-187.02 -96.7,-182.84 -113.68,-433.13 -407.6,237.66 -1032.33,217.25 -1508.98,131.29 -921.82,-166.23 -975.88,-639.4 -1163.51,-541.3 139.5,374.82 297.13,555.23 621.39,690.12z"/>
  <path class="fil28" d="M13584.54 9611.2c53.32,-251.95 93.28,-98.67 224.08,-281.05 12.98,-10.36 32.97,-42.24 40.24,-28.27 28.53,54.92 422.29,-502.26 469.65,-776.91 -268.22,-20.67 -319.46,60.15 -513.93,201.48 175.2,-162.41 175.17,-327.73 173.03,-591.14 -592.09,-156.02 -885.68,599.17 -821.55,751.21 79.8,189.26 190.55,25.16 347.07,-7.44 24.34,267.2 -86.74,350 -64.92,701.25 111.7,74.53 -25.31,28.6 146.33,30.87z"/>
  <path class="fil33" d="M8588.95 18931.28l470.73 269.72c702.9,196.02 882.87,205.33 1536.86,-57.63 78.68,-167.29 159.82,-144.1 135.29,-459.44 -427.97,53.03 -591.95,294.54 -1173.3,240.22 -760.42,-71.05 -839.19,-356.93 -1070.01,-444.28 -27.8,236.83 -55.16,397.94 100.43,451.41z"/>
  <path class="fil18" d="M11074.73 18748.17c-3.11,221.6 99.31,321.22 164.34,428.41 542.37,347.21 904.56,152.38 1463.83,77.32l515.33 -290.61c92.22,-14.4 30.91,16.81 99.25,-40.15 26.46,-289.41 67.45,-259.83 -63.27,-473.06 -134.24,357.91 -676.38,473.04 -1001.69,516.34 -482.6,64.25 -901.93,-251.45 -1177.79,-218.25z"/>
  <path class="fil34" d="M11480.32 13806.69c664.18,208.72 1244.36,-890.43 989.8,-1219.52 -294.58,-380.83 -1279,200.68 -989.8,1219.52z"/>
  <path class="fil14" d="M7559.69 15137.3c84.84,-198.01 152.81,-458.58 243.8,-685.2 106.55,-265.34 247.75,-390.5 268.25,-680.52 -1124.98,-14.34 -1424.94,1584.15 -512.05,1365.72z"/>
  <path class="fil15" d="M9901.49 15284l49.56 317.03 1173.99 5.6c16.64,6.69 -34.57,57.66 103.3,-8.71 112.44,-54.13 45.01,-18.58 95.33,-83.57l-118.51 -222.35 -485.86 61.17 -0.97 -1024.45 344.7 6.62 -29.37 -90.18 -1085.81 -31.81 555.61 121.18 -237.59 1003.69c-198.38,25.82 -183.31,46.18 -364.38,-54.22z"/>
  <path class="fil21" d="M12985.62 22473.14c-164.37,-70.86 -447.4,-56.24 -667.33,-91.85 -208.47,-33.75 -435.89,-209.96 -622.42,-132.8 -20.09,1055.73 1281.02,929.4 1289.75,224.65z"/>
  <path class="fil35" d="M9800.66 15955.06c580.01,115.46 1129.34,101.76 1736.25,97.94 -21.91,-256.07 -77.16,-124.9 -152.97,-459.57l-258.9 13.2 -1173.99 -5.6 -150.39 354.03z"/>
  <path class="fil36" d="M9636.98 13639.95c430.67,42.43 1090.69,41.71 1245.62,-341.31 139.61,-345.11 -225.76,-240.06 -444.12,-240.89 -263.19,-1.02 -544.22,-22.49 -804.36,4.23l2.86 577.97z"/>
  <path class="fil21" d="M8876.73 22421.59c-8.83,768.84 1329.65,824.42 1269.17,-234.07 -171.26,-22.67 -367.64,124.85 -582.81,162.32 -230.79,40.2 -451.31,38.78 -686.36,71.75z"/>
  <path class="fil28" d="M9320.53 17449.59l-329.54 -0.13c-87.81,130.68 -54.24,-68.7 -38.43,267.75 47.76,1016.39 803.82,970.73 1066.8,653.54 -134.74,-279.34 -489.05,-166.93 -718.69,-361.04l328.67 -171.48c-77.18,-195.27 -147.63,-297.35 -308.81,-388.64z"/>
  <path class="fil24" d="M9591.39 9913.13c322.99,-102.26 142.74,-80.3 423.79,-21.86 134.12,-78.4 158.92,-100.44 339.67,-18.92l-44.76 -523.22 -784.23 -167.4 65.53 731.4z"/>
  <path class="fil37" d="M11200.31 12774.92c302.58,-412.35 365.71,-621.18 805.89,-878.11l1151.6 -442.3c381.15,-24.9 843.67,46.93 -8.15,-228.08 -105.12,-6.63 -1201.71,476.43 -1301.89,557.11 -177.99,143.32 -100.88,41.53 -324.19,284.18l40.71 -323.34 50.69 -506.56c204.91,24.88 229.83,-194.4 321.63,-316.84l-496.5 -31.54c-125.27,37.75 -168.34,-115.44 -133.85,488.99 10.18,116.09 6.84,204.84 13.59,250.64 5.9,426.91 14.93,537.52 5.2,571.57 -93.58,327.6 -111.99,80.3 -124.73,574.28z"/>
  <path class="fil38" d="M9634.12 13061.98c260.14,-26.72 541.17,-5.25 804.36,-4.23 218.36,0.83 583.73,-104.22 444.12,240.89 -154.93,383.02 -814.95,383.74 -1245.62,341.31l-2.86 -577.97zm-94.57 761.52l1479.17 18.59 56.39 -530.95 8.83 -323.13c-261.82,12.85 -521.7,-2.42 -783.66,-5.94 -138.16,-1.84 -275.24,-5.1 -413.29,-8.31 -347.95,-8.07 -385.12,-65 -347.44,849.74z"/>
  <path class="fil39" d="M14813.99 11147.52c25.23,-298 -20.92,-180.08 -44.47,-303.19 -27.06,-141.49 -33.03,83.78 -24.22,-157.84 13.23,-362.48 -105.15,346.47 37.05,-160.43 4.33,-15.44 13.18,-36.62 22.18,-52.96l551.87 -40.14 -53.42 -162.98c33.91,-121.8 34.54,-90.71 85.18,-212.78 -225.05,-51.01 -325.15,-23.85 -552.85,-13.18 -441.09,136.15 -293.58,396.53 -419.93,915.83"/>
  <path class="fil40" d="M8314.22 12025.07l-84.24 13.21c198.99,268.8 291.01,627.05 188.89,1075.96l108.25 262.55c148.18,-188.23 84.17,-277.04 259.9,-415.32l20.42 -1235.13 36.97 -8.98 -6.29 -338.74c-258.42,195.33 -208.24,209.21 -206,690.21l-317.9 -43.76z"/>
  <path class="fil28" d="M8098.39 9410.38l152.61 -74.05 25.65 433.4c154.38,166.49 99.55,290.2 522.49,212.22 4.61,-457.27 118.22,-755.41 -165.39,-1025.1 -164.98,4.89 -700.42,287.07 -535.36,453.53z"/>
  <path class="fil27" d="M8298.5 19260.18l173.89 133.29c189.05,105.65 123.16,11.71 396,229.74 -10.61,177.19 -72.87,329 -213.48,429.74 -70.43,50.47 -81.39,39.39 -168.41,24.87 -157.07,-26.19 -81.58,-143.33 -182.35,45.7 107.58,281.57 327.72,133.69 535.66,93.3 87.6,-131.03 136.41,-244.61 167.59,-426.49 80.6,-469.91 84.92,-235.32 165.03,-465.47l-112.75 -123.86 -470.73 -269.72 -290.45 328.9z"/>
  <path class="fil27" d="M12702.9 19253.9c79.53,160.43 63.98,-155.54 -18.67,94.49 -4.32,13.08 -14.67,39.11 -18.88,51.32 -4.76,13.83 -15.64,38 -21.07,58.25 250.96,157.75 114.83,218.56 235.73,620.64 229.02,278.19 393.64,306.75 682.23,85.19l-5.33 -174.67 -248.03 179.22c-230.26,-121.12 -297.98,-212.87 -389.89,-523.04 479.67,-312.26 407.65,-342.88 632.13,-250.73 -70.43,-194.13 -44.06,-155.97 -161.75,-262.72 -1.66,-1.5 -84.87,-65.92 -88.98,-69.77 -95.15,-89.1 -14.63,13.99 -82.16,-98.79l-515.33 290.61z"/>
  <path class="fil21" d="M7995.8 9544.57l102.59 -134.19c-165.06,-166.46 370.38,-448.64 535.36,-453.53 283.61,269.69 170,567.83 165.39,1025.1 -422.94,77.98 -368.11,-45.73 -522.49,-212.22l6.22 284.75c220.81,-0.44 352.91,55.85 565.12,-24.77 54.41,-460.56 -58.63,-438.26 78.69,-501.21 50.08,-1864.09 -898.52,-507.06 -977.19,-282.23 -138.86,396.89 30.41,282.97 46.31,298.3z"/>
  <path class="fil41" d="M15546.07 9871.32c-84.59,90.56 -92.84,84.76 -157.91,185.88 -50.64,122.07 -51.27,90.98 -85.18,212.78l53.42 162.98c115.75,276.6 280.1,405.5 593.54,409.89l351 -106.06 137.57 -26.58c139.16,-201.86 42.15,13.43 87.99,-267.69l2.78 -15.45c-8.44,-9.91 -19.76,-42.4 -23.34,-32.29 -24.38,68.98 -38.99,-51.8 -47.38,-61.83 -83.03,-99.05 2.85,-26.72 -99.39,-106.03 -24.61,119.27 -8.75,101.84 -58.85,233.6l-356.32 124.61c-224.49,99.32 -714.51,-380.99 -168.53,-639.14l136.84 -164.26 -46.12 -79.32 -320.12 168.91z"/>
  <path class="fil24" d="M6752.18 11499.02c22.62,200.5 104.48,224.77 295.4,225.63 235.9,1.09 201.19,-29.41 197.09,-289.94 -2.43,-154.69 -5.26,-22.63 13.3,-238.65 39.12,-455.29 -9.04,-544.1 1.73,-920.45 -286.58,278.88 -387.69,1090.42 -507.52,1223.41z"/>
  <path class="fil29" d="M7760.76 10086.89c-182.31,-155.3 -144.03,-44.26 -176.17,41.85 5.25,419.33 -31.01,820.29 30.77,1255.29l332.79 7.85c5.04,-176.72 47.44,-730.84 -12.64,-876.98 -103.83,-252.6 -133.94,101.41 -174.75,-428.01z"/>
  <polygon class="fil1" points="11205.16,15292 11063.03,14335.34 10718.33,14328.72 10719.3,15353.17 "/>
  <path class="fil42" d="M8286.25 11387.19c272.83,-92.05 584.34,-473.91 548.77,-927.09 -655.6,-98.67 -591.55,-61.98 -548.77,927.09z"/>
  <path class="fil43" d="M9539.55 13823.5c-37.68,-914.74 -0.51,-857.81 347.44,-849.74 138.05,3.21 275.13,6.47 413.29,8.31 261.96,3.52 521.84,18.79 783.66,5.94 -55.04,-111.53 84.09,-81.15 -145.27,-148.01l-1575.97 -0.13 -2.91 902.63 179.76 81z"/>
  <path class="fil14" d="M15013.87 13305.72c103.91,-289.06 -91.33,-158.96 130.25,-427.34 -217.69,-265.21 -105.86,-420.41 -183.92,-756.09 -141.88,-105.44 -86.13,-93.47 -271.97,-193.41 -149.97,-80.64 -248.19,-208.89 -438.91,-224.27 34.67,48.23 32.11,234.8 94.3,306.76 281.08,325.2 360.97,365.52 670.25,1294.35z"/>
  <path class="fil11" d="M8253.75 20123.76l50.4 -0.24c100.77,-189.03 25.28,-71.89 182.35,-45.7 87.02,14.52 97.98,25.6 168.41,-24.87 140.61,-100.74 202.87,-252.55 213.48,-429.74 -272.84,-218.03 -206.95,-124.09 -396,-229.74l-173.89 -133.29c-95.44,266.95 -35.49,552.93 -44.75,863.58z"/>
  <path class="fil19" d="M13556.91 19989.12l-5.79 -594.55c-224.48,-92.15 -152.46,-61.53 -632.13,250.73 91.91,310.17 159.63,401.92 389.89,523.04l248.03 -179.22z"/>
  <path class="fil44" d="M9697.67 11313.86l-4.97 -12.55c-93.37,269.93 -66.48,618.3 -51.55,965.61 240.57,32.54 492.76,-1.97 734.86,-34.95 302.71,-41.21 413.97,-64.2 509.9,-367.68 -223.18,205.39 -603.98,194.43 -1004.05,-141.63 -93.35,-167.05 -98.18,-211.7 -184.19,-408.8z"/>
  <path class="fil6" d="M15944 10585.13c51.72,-297.41 0.6,-84.75 99.34,-271.7 58.47,-110.73 63.16,-125.36 109.88,-262.98 -200.95,-45.49 -90.9,-135.78 -377.75,-104.46 -545.98,258.15 -55.96,738.46 168.53,639.14z"/>
  <path class="fil18" d="M8463.83 16046.57c151.68,391.22 912.75,671.6 1050.92,187.94 -86.75,-168.58 22.22,-60.43 -152.65,-169.58l-641.13 -267.32c199.33,313.4 330.29,124.49 463.56,461.62 -290.21,126.99 -484.35,-58.39 -720.7,-212.66z"/>
  <path class="fil19" d="M8222.52 11796.74c203.1,266.9 94.58,1185.59 196.34,1317.5l4.88 -1074.08 131.8 -371.68c-16.23,17.85 -23.98,-785.22 -213.07,-935.89 -109.67,-87.37 -115.85,356.64 -160.85,191.03l158.71 345.91c42.54,98.33 -345.76,277.89 -117.81,527.21z"/>
  <path class="fil35" d="M15775.47 9945.99c286.85,-31.32 176.8,58.97 377.75,104.46 -46.72,137.62 -51.41,152.25 -109.88,262.98 -98.74,186.95 -47.62,-25.71 -99.34,271.7l356.32 -124.61c50.1,-131.76 34.24,-114.33 58.85,-233.6l-120.77 -219.1 -326.09 -226.09 -136.84 164.26z"/>
  <path class="fil45" d="M9544.93 11245.8l-29.06 366.73c-48.6,-30.08 -170.32,103.46 -75.83,-478.27l253.45 -19.68c9.49,190.43 62.41,111.09 -22.44,119.83l-126.12 11.39z"/>
  <path class="fil15" d="M9296.15 9417.64c21.65,-63.43 73.28,-104.46 22.97,-285.73 -60.51,-217.97 -33.42,-119.1 -189.86,-127.49 -67.97,627.97 138.94,408.52 166.89,413.22z"/>
  <path class="fil46" d="M9233.6 10004.26c167.82,-103.5 240.8,-242.34 89.15,-486.35 -199.2,18.18 -136.02,267.75 -89.15,486.35z"/>
  <path class="fil47" d="M8944.99 6503.63c41.43,152.31 74.91,308.97 125.1,449.39 49.01,137.11 117.22,262.47 191.19,366.38 122.15,171.59 125.43,161.29 245.9,295.21 42.15,46.85 90.1,82.96 133.56,129.79 36.09,38.89 100.6,88.5 143.44,124.95l106.66 84.9c16.9,12.76 22.67,13.37 39.98,27.86 15.46,12.94 18.72,16.36 34.7,26.76 103.68,67.43 138.66,102.96 275.83,176.35 253,135.35 524.85,202.17 814.37,170.67 59.25,-6.44 213.4,9.31 245.81,-11.71 163.2,-9.19 122.52,-38.03 316.15,-142.54 19.97,-16.55 74.64,-40.82 106.21,-55.34 59.04,-33.28 272.68,-171.31 316.36,-178.38l324.96 -238.46c48.9,-38.67 268.23,-228.53 289.93,-271.02 19.55,-40.14 41.63,-57.54 66.07,-85.07 37.06,-41.78 83.23,-116.28 115.44,-166.79l257.18 -444.54c72.76,7.36 106.76,43.64 202.5,12.92 159.96,-51.3 255.9,-258.52 301.82,-413.18l105.07 -364.06c48.97,-132.25 85.35,-206.28 96.31,-363.44 7.39,-106.14 -18.02,-223.31 -111.01,-272.77 -178.07,-94.72 -268.46,36.05 -339.9,187.99 -122.27,260.04 -118.96,554.8 -166.45,758.51 -12.99,-12.32 -15.01,-18.9 -18.81,-50.71 -1.89,-15.96 -3.01,-33.69 -4.55,-49.91 -3.15,-33.42 -6.32,-66.06 -10.61,-99.33 -8.44,-65.52 -16.89,-129.17 -27.94,-195.3 -45.9,-274.58 -66.13,-517.18 -79.88,-795.75 -23.58,-477.58 31.24,-325.24 -117.31,-485.43 -33.4,-36.03 -62.91,-63.65 -95.02,-100.03 -209.38,-237.24 -337.04,-414.75 -499.24,-708.49 -326.11,27.91 -661.45,-75.24 -925.6,-232.8 -43.83,-26.14 -224.6,-139.86 -235.56,-163.39 71.28,170.44 203.83,286.94 341.75,375.81 34.4,22.16 119.93,64.95 135.64,98.03 -67.3,42.85 -420.8,-26.89 -497.31,-49.39 -58.87,-17.32 -380.05,-139.22 -395.82,-177.34 26.13,69.39 499.41,380.08 509.78,464.93 34.66,80.82 23.87,168.91 -591.43,100.7 -242.46,22.66 -348.32,40.19 -810.01,-15.39 -42,-1.05 -230.92,-76.24 -270.99,-94.81 -43.8,-20.31 -84.95,-39.31 -124.05,-62.74 -117.84,-70.59 -214.35,-151.38 -303.48,-269.9 -99.35,-132.14 -103.16,-200.03 -139,-256.29 0.28,5.54 -58.62,100.56 -72.86,127.04 -22.27,41.39 -44.78,92.8 -62.22,140.62 -82.78,226.93 -106.79,475.07 -81.81,723.85 3.83,38.01 69.11,233.63 92.79,369.3 92.51,529.94 36.91,732.04 29.72,1200.61 -0.76,48.68 16.72,401.48 16.64,401.73z"/>
  <path class="fil48" d="M9017.1 6621.8c0.08,-0.26 -17.39,-353.05 -16.64,-401.73 7.19,-468.57 62.79,-670.68 -29.72,-1200.61 -23.68,-135.67 -88.96,-331.28 -92.78,-369.3 -24.99,-248.79 -0.97,-496.92 81.8,-723.84 17.45,-47.83 39.95,-99.24 62.22,-140.63 14.24,-26.47 73.14,-121.51 72.86,-127.04 35.85,56.26 39.65,124.15 139.01,256.29 360.46,479.37 1021.36,796 1545.15,735.31 177.27,-20.51 1115.55,-130.39 1167.21,-171.65 81,-72.47 -678.54,-459.1 -801.36,-526.68 39.93,18.54 39.48,16.39 74.99,17.57 42.22,-0.36 493.67,16.25 560.98,-26.59 13.55,-12.19 3.94,-8.86 -30.68,-28.09 -154.59,-105 -79.16,-90 -290.1,-238.37 -11.82,-5.68 13.37,-6.37 18.51,-5.86 34.2,3.33 47.3,25.84 85.68,40.82 235.65,97.49 510.58,257.73 836.69,229.83 162.2,293.74 289.87,471.25 499.24,708.49 32.12,36.39 61.62,64.01 95.02,100.03 39.42,213.5 49.5,288.92 73.07,766.51 13.76,278.57 39.79,366.84 85.68,641.42 11.06,66.13 2.29,85.33 10.74,150.85 52.12,404.19 253.58,-635.49 256.06,-640.85 71.44,-151.95 161.82,-282.72 339.91,-188 53.88,89.99 41.71,98.02 34.3,204.15 -44.31,261.86 -110.29,311.46 -159.26,443.7l-256.13 603.58c-194.37,110.52 -138.06,0.89 -298.01,52.19 -95.74,30.72 -41.05,168.39 -113.8,161.02l-215.6 390.02c-32.22,50.51 -73.06,100.43 -110.12,142.21 -24.43,27.54 13.26,27.6 85.23,100.06 217.08,-23.61 348.46,-84.72 518.96,-182.27 188.05,-107.6 380.7,-331.5 496.8,-520.5 12.11,-19.73 32.52,-59.67 45.03,-71.63 0.63,33.49 -5.07,84.04 -9.02,115.59 -3.86,30.86 -11.24,80.77 -3.01,107.78 43.55,-8.65 87.49,-78.56 112.61,-110.89l280.92 -381.59c106.39,-158.17 201.59,-376.71 250.98,-563.16l13.55 -40.28c25.69,78.88 2.38,222.78 16.15,234.63 49.48,42.56 208.86,-213.94 230.84,-249.4 15.86,-25.6 28.22,-49.33 42.27,-74 177.12,-310.95 -304.05,-1017.17 -344.1,-1427.06 72.92,45.16 274.75,244.33 340.83,298.18 65.24,-57.28 133.19,-253.93 136.76,-339.1 -196.02,-342.34 193.62,-200.13 128.97,-359.49 -28.02,-69.08 -54.84,-137.94 -94.83,-196.17 -11.92,-17.37 -31.67,-38.79 -39.48,-60.48 98.89,42.28 353.61,36.64 369.66,-97.51 -55.75,-50.6 -164.66,-17.65 -243.04,-75.23 -2.63,-1.94 -13.45,-10.29 -15.4,-11.92 -130.33,-108.15 -206.51,-429.27 -274.44,-593.6 -43.76,-105.88 -82.7,-198.21 -130.16,-294 -95.87,-193.47 -208.05,-328.93 -355.33,-456.39 -69.83,-60.42 -152.52,-118.17 -234.19,-158.65 -67.14,-33.28 -195.58,-96.03 -274.18,-106.6 19.14,-127.09 323.69,-117.45 396.92,-164.95 -22.12,-61.44 -346.22,-155.33 -541.86,-89.58 -67.15,22.56 -120.78,73.91 -155.84,86.67 -9.97,-101.97 -114.97,-238.69 -169.02,-291.37 -65.86,-64.18 -175.48,-165.42 -274.06,-154.7 -2.6,25.87 -2.45,28.52 15.4,51.47 85.31,109.68 208,180.37 186.95,356.32 -38.93,-21.83 -80.86,-79.45 -117.47,-110.8 -103.18,-88.38 -218.16,-162.07 -336.48,-225.27l-74.8 -38.48c-53.26,-24.09 -97.57,-45.99 -150.91,-67.28 -163.81,-65.4 -329.23,-115.89 -501.76,-154.01 -866.65,-191.47 -920.11,509.88 -2050.57,713.94 -178.47,132.07 -826.42,148.94 -981.44,308.51 -109.23,112.42 -226.4,262.4 -368.26,332.44 -158.52,78.26 -334.32,92.62 -434.54,-80.02 -14.8,-25.49 -7.45,-25.37 -32.51,-29.6 -38.83,34.08 -14.78,123.87 -10.22,173.07 15.12,163.03 95.27,302.92 226.42,376.47 -34.79,69.48 -94.76,106.53 -178.18,294.69 -52.32,117.99 -81.15,219.26 -109.74,353.55 -29.29,137.53 -33.62,270.13 -38.76,414.63 -3.12,87.54 19.02,402.6 44.01,479.33 32.21,-12.97 32.01,-73.45 41.65,-107 11.54,-40.13 25.05,-70.8 41.06,-107.51 23.43,-53.74 74.15,-147.52 115.08,-186.66 -0.95,7.94 -52.07,214.57 -65.53,313.68 -15.18,111.79 -26.4,238.71 -18.4,354.23 16.11,232.37 55.39,425.7 127.07,634.09 10.02,29.13 16.61,59.22 36.91,71.8 24.16,-23.1 26.77,-241.59 31.04,-278.44 9.21,-79.5 17.01,-168.81 51.75,-241.14 6.65,-13.83 2.18,-5.35 7.36,-13.14 6.98,91.25 -8.46,157.27 13.1,262.57 93.03,454.37 276.43,717.49 472.26,1111.14l88.62 204.24c11.8,31.65 24.58,75.93 37.45,106.04z"/>
  <path class="fil49" d="M13108.88 6227.92c6.64,73.39 16.63,131.65 62.39,182.06 174.57,-12.3 51.94,-170.53 20.67,-198.78 -21.53,-19.46 -55.79,-32.18 -87.72,-34.44l4.66 51.16z"/>
  <path class="fil50" d="M8962.07 6485.31c41.41,152.32 74.89,308.95 125.12,449.4 49.02,137.13 117.22,262.44 191.16,366.39 122.17,171.55 125.41,161.27 245.88,295.17 42.18,46.88 90.16,82.95 133.62,129.81 36.05,38.88 100.57,88.51 143.4,124.91l106.65 84.93c16.95,12.79 22.69,13.37 40.02,27.89 15.43,12.9 18.69,16.31 34.67,26.75 103.7,67.42 138.64,102.97 275.82,176.37 253,135.32 524.85,202.17 814.4,170.62 59.24,-6.45 206.72,-26.45 239.08,-47.49 3.3,33.77 7.54,29.02 12.14,56.01 168.44,-51.24 73.78,-26.25 213.39,-94.69l97.33 -68.08c19.97,-16.54 74.66,-40.78 106.19,-55.34 59.09,-33.24 272.73,-171.28 316.4,-178.39l324.96 -238.42c48.87,-38.65 268.22,-228.54 289.91,-271.03 19.54,-40.12 41.65,-57.53 66.08,-85.05 37.06,-41.81 83.23,-116.3 115.44,-166.83l257.21 -444.52c72.74,7.34 106.71,43.63 202.46,12.93 159.97,-51.32 255.91,-258.56 301.86,-413.17l105.06 -364.06c48.93,-132.27 85.31,-206.3 96.28,-363.48 7.42,-106.11 -18.02,-223.28 -111.02,-272.74 -178.05,-94.72 -268.46,36.05 -339.86,187.99 -122.3,260.02 -118.98,554.81 -166.46,758.51 -13.01,-12.33 -15.04,-18.9 -18.84,-50.73 -1.85,-15.95 -3,-33.7 -4.52,-49.89 -3.17,-33.42 -6.31,-66.05 -10.6,-99.34 -8.47,-65.5 -16.92,-129.17 -27.97,-195.28 -45.9,-274.59 -66.1,-517.22 -79.88,-795.78 -23.59,-477.58 31.26,-325.2 -117.33,-485.42 -33.35,-36.03 -62.87,-63.65 -94.98,-100.03 -209.4,-237.21 -337.06,-414.76 -499.22,-708.47 -326.17,27.9 -661.47,-75.26 -925.64,-232.84 -43.8,-26.12 -224.59,-139.82 -235.54,-163.39 71.29,170.45 203.8,286.94 341.75,375.82 34.38,22.19 119.92,64.97 135.64,98.02 -67.29,42.86 -420.82,-26.87 -497.32,-49.38 -58.89,-17.32 -380.03,-139.22 -395.8,-177.32 26.09,69.39 499.38,380.06 509.75,464.95 34.67,80.77 23.87,168.86 -591.42,100.7 -242.46,22.66 -348.33,40.19 -810,-15.42 -41.99,-1.03 -230.93,-76.22 -271.02,-94.8 -43.78,-20.32 -84.95,-39.31 -124.04,-62.75 -117.85,-70.59 -214.36,-151.38 -303.44,-269.88 -99.36,-132.18 -103.18,-200.07 -139.06,-256.31 0.3,5.55 -58.58,100.6 -72.84,127.01 -22.24,41.41 -44.78,92.83 -62.19,140.66 -82.79,226.92 -106.82,475.05 -81.81,723.85 3.81,37.99 69.1,233.6 92.79,369.3 92.48,529.93 36.89,732.05 29.72,1200.59 -0.78,48.69 16.69,401.47 16.62,401.74z"/>
  <path class="fil51" d="M10757.41 7977.03c31.82,-6.65 56.43,-12.79 97.48,-17.82 44.28,-5.43 57.17,-16.56 92.38,-23.17 53.75,-10.1 162.18,-24.31 208.19,-28.85l113.62 38.28c18.04,15.57 -20.01,-0.63 25.6,16.52 19.95,7.5 16.52,0.55 34.08,26.37l37.11 27.13c0.09,0.09 34.27,89.38 25.86,108.37 -13.36,30.14 -91.72,101.28 -131.21,109.64 -96.35,20.41 -178.58,56.04 -299.11,55.6 -25.25,-0.09 -71.11,3.41 -100.67,1.84 -28.13,-1.49 -56.85,-12.57 -89.88,-10.89l-1.42 -8.72c-7.33,-13.03 25.2,7.51 -4.67,-4.7l-74.85 -2.43c-27.35,-3.88 -4.42,-8.22 -37.7,-7.99 7.62,-8.54 8.09,-11.64 30.04,-14.76 -59.57,2.23 -58.13,-23.85 -103.6,-39.29l-20.2 -6.18c-130.04,-40.47 -46.23,-35.08 -113.29,-110.25 -9.7,-10.87 -8.32,-3.36 -14.12,-21.54 -7.53,-23.61 3.43,-40.04 10.72,-52.94l27.88 -37.83c57.12,-56.03 39.37,-30.08 106.4,-59.25 61.72,-26.87 158.45,-29.72 239.29,-38.3 -17.32,20.31 -1.9,0.76 -21.08,18.69 -1.22,1.15 -2.7,2.45 -3.89,3.61 -33.95,33.27 -39.21,42.94 -32.96,78.86zm-371.22 -438.09c142.2,-39.72 463.79,-85.7 646.69,-129.6 87.18,-20.93 376.11,-91.08 447.72,-134.87 48.34,-29.56 65.13,-55.02 74.69,-113.4 -5.55,5.44 -18.93,51.12 -29.14,66.45 -61.61,92.46 -364.88,276.58 -470.63,332.51 -227.1,120.09 -273.4,94.57 -511.28,19.13 -26.29,-8.34 -50.65,-16.15 -79.31,-24.86l-60.3 -18.74c-32.76,-4.64 -10.38,-6.02 -18.44,3.38zm-995.52 -893.68c-110.01,-22.76 -113.52,-419.12 -106.65,-538.52 5.37,-93.26 22.31,-179.99 45.96,-257.78 30.03,-98.79 103.98,-224.66 182.45,-281.92 265.36,-193.62 510.33,171.18 539.47,468.16 24.76,19.95 22.59,279.69 19.54,333.55 -3.27,57.53 -6.43,91.82 -13.25,144.08 -9.78,75.03 -10.31,71.32 -53.62,111.54 -25.5,23.69 -58.2,60.25 -91.48,75.35 -151.98,68.98 -439.07,39.13 -522.42,-54.46zm2041.44 -1785.13c130.05,-47.1 210.75,-88.17 369.05,-87.21 226.67,1.39 402.51,113.37 529.63,301 49.18,72.59 139.06,245.44 78.37,333.43 -74.16,52.17 -234.97,-233.9 -466.48,-339.86 -256.33,-117.31 -567.29,89.94 -594.93,157.46 15.78,17.53 -9.36,14.12 25.54,55 62.73,-49.87 129.76,-96.72 214.14,-131.14 61.67,-25.16 212.05,-72.88 277.37,-25.38 -29.34,12.33 -5.32,9.12 -39.39,30.9 -11.7,7.47 -0.1,-1.25 -9.25,5 -8.71,5.95 -3.38,0.31 -11.2,9.22 -13.07,14.9 -4.02,8.23 -10.41,16.8l-27.48 22.75c-92,53.82 25.98,23.82 -91.67,90.02 -1.52,0.85 -3.25,1.69 -4.82,2.5 -22.21,11.44 8.13,-4.38 -10.1,4.43 -25.46,12.3 -19.15,10.63 -41.04,35.27 -54.35,61.18 5.78,45.06 -58.29,73.13 -182.2,79.84 -144.12,87.01 -117.17,152.45l77.71 -57.62c136.78,-96.6 354.4,-89.44 442.86,1.44 13.55,13.92 19.66,17.99 34.46,28.08 41.4,28.19 84.35,106.31 108.15,151.6 124.16,236.28 138.52,611.34 91.45,919.59 140.27,-55.17 126.46,-61.66 290.32,-79.48 -14.38,21.27 -5.04,12.44 -27.22,23.34 -70.16,34.47 -128.64,16.18 -331.76,155.95l-108.35 81.77c-14.87,14.07 -17.34,17.88 -32.4,30.22l-95.26 92.9c-25.93,29.41 -0.18,17.12 -40.74,33.76 18.36,-41.46 15.63,-49.75 43.52,-76.62 28.51,-27.45 14.13,-35.18 46.1,-59.54 -90.91,26.79 -205.47,33.84 -298.18,19.85 -30.36,-4.58 -62.44,-16.07 -86.71,-16.91 8.93,26.24 1.27,27.44 -9.57,48.12 -25.99,49.59 -51.76,117.38 -91.96,181.02 -10.82,17.12 -17.94,23.54 -27.95,40.68l-72.5 100.12c-1.21,1.65 -4.66,6.46 -5.97,8.03 -3.6,4.34 -3.58,4.42 -10.35,11.03 -126.83,123.69 -3.02,62.55 -362.01,141.58l-712.61 166.09c-99.32,22.2 -159.27,38.2 -208.66,-29.13l-10.22 33.62c-28.55,-9.49 -60.81,-26.34 -86.33,-33.66 -20.17,-5.79 -14.83,0.3 -41.54,-0.86 -24.43,-1.05 -28.22,-5.91 -49.17,-1.66 -12.77,2.58 -29.53,12.53 -55.2,8.92 -14.3,-2.01 -32.8,-15.83 -38.63,-16.68 -3.07,-0.45 -34.07,7.95 -51.75,4.67 -18.75,-3.48 -50.27,-17.52 0.9,-26.55 -46.57,9.45 -15.68,-0.16 -28.23,-11.73l32.55 -3.17c-65.56,-29.74 -67.4,-5.67 -117.63,-27.34l-26.57 -14.13c-49.6,-32.71 -46.16,-24.56 -66.82,-59.19 -26.9,-45.11 -18.74,-4.56 -87.45,-76.36 -23.34,-24.4 -58.19,-100.04 -60.7,-112.56 6.98,46.76 0.4,15.31 -9.27,28.05 -8.59,-26.88 -16.99,-28.94 -25.64,-54.52 -0.43,2.32 -1.52,11.18 -2.07,12.78 -4.37,12.56 -1.77,6.65 -7.18,15.49 -6.75,-56.08 -18.57,-99.59 -26.28,-163.02 -0.55,0.25 -14.11,2.19 -25.25,-1.76 -6.97,-63.79 -10.88,-152.5 -18.27,-195.34 -10.63,-61.65 -5.96,-48.55 7.71,-90.57 9.77,-30.05 -1.84,-44.28 -5.71,-83.47 30.11,36.84 107.99,90.02 114.1,98.17 49.4,13.88 63.69,42.48 193.57,64.15 137.1,22.87 326.5,-1.8 435.41,-99.64 124.4,-111.75 72.71,-68.06 112.14,-158.75 7.82,75.23 15.2,150.53 22.53,225.83 9.32,95.85 12.22,56.4 -3.9,131.97 -26.52,124.34 54.73,280.6 106.39,315.79 20.9,14.24 58.28,19.28 89.75,18.4 -19.08,-49.48 -168.19,-151.9 -136.07,-314.76 5.97,-30.23 20.39,-52.76 37.69,-67.43 55.07,-46.74 95.85,-23.47 168.91,-2.11 32.96,9.64 42.7,19.65 80.48,23.09 -21.98,-34.91 -24.64,-34.36 -65.76,-55.01l-54.43 -22.33c-4.71,-2.08 -20.63,0.59 0.63,-1.9 8.8,-27.78 6.77,-16.43 17.63,-37.82 58.1,-114.48 39.34,-285.46 -8.02,-401.18 -10,-24.45 -17.92,-60.27 -21.44,-96.85 -4.78,-49.64 -33.55,-235 -51.91,-284.71l-9.82 -18.65c-0.86,-1.74 -8.68,-20.9 -8.71,-21 -4.96,-16.3 -4.93,-27.8 -9.99,-43.46 -18.9,-58.44 -96.79,-21.93 -142.45,-44.72 -73.04,-36.45 -65.86,-53.1 -94.42,-107.25 -40.23,-76.26 -60.95,-87.56 -83.43,-125.47l19.24 -11.9c10.69,-3.01 2.11,-2.37 17.99,0.41l-9.49 -26.69c-1.21,-25.64 1.08,-35.83 48.61,-43.62l-23.17 -32.98 19.21 -2.14c-14.18,-26.79 -20.17,-20.74 -38.47,-62.71 -67.29,-154.37 -180.42,-289.65 -339.94,-340.57 -151.07,-48.24 -288.71,89.86 -387.32,178.83 -28.95,26.12 -69.61,75.78 -114.86,75.78 -30.47,-140.5 119.49,-418.86 372.13,-464.03 383.48,-68.57 486.82,245.12 529.42,285.01l-7.47 -25.1c51.4,-11.23 -0.57,-14.67 41.8,-44.44 -5.99,-15.44 -11.03,-21.51 -18.76,-36.81 -23.05,-45.64 30.2,-59.77 4.34,-89.83l-25.58 -25.26c-11.58,-16.7 -26.21,-29.72 -51.95,-22.38l-22.18 16.34c-1.67,-58.8 -12.6,-78.22 30.13,-106.84 23.3,-15.61 -3.82,4.81 12.31,-6.79 -6.51,-19.17 -12.62,-36.27 -18.48,-56.7 52.38,-33.1 14.27,-26.46 52.24,-46.9 80.28,-43.19 -4.35,-27.82 60.49,-37.91 -3.63,-38.01 -11.4,-33.46 12.75,-48.35 21.19,-13.05 27.84,-4.61 41.74,-21.64 14.18,-17.38 5.55,-24.82 22.31,-39.61l22.74 -13.06c1.12,-0.85 2.66,-2.14 3.7,-3.07 1.03,-0.92 2.28,-2.52 3.24,-3.51 54.53,-55.99 -0.37,5.97 72.59,-54.66 23.96,-19.92 162.08,-52.34 204.82,-48.57l155.3 5.88c11.78,2.02 13.41,3.6 20.15,6.65 40.16,18.15 16.21,14.05 60.94,10.9 35.11,-2.46 91.64,25.2 129.57,36.19 96.86,28.05 131.7,68.27 199.04,84.14l122.98 40.18c63.83,21.23 89.64,42.79 140.26,90.37 46.21,43.43 26.42,54.25 51.17,21.23 8.5,72.7 33.08,-8.82 43.35,95.38 23.09,11.05 19.01,3.12 36.11,24.92l-7.37 16.9zm-1630.04 -606.89c-6.94,7.27 -5.17,4.79 -15.96,11.66l-108.21 62.18c-72.18,48.53 -72.1,59.55 -134.47,36.07 -129.87,-48.88 -86.33,-58.96 -152.78,-5.18 -217.25,175.87 -263.33,270.51 -423.42,467.12 -1.55,1.9 -0.59,19.57 -7.97,9 -0.92,-1.31 -2.77,3.17 -4.27,4.64l6.38 29.1c-0.19,44.73 27.15,158.7 34.92,214.87 10.54,76.3 17.41,149.95 23.53,226.7 30.24,378.85 -9.11,507.31 -11.6,834.77 -0.39,51.57 18.43,426.6 18.09,427.79 63.77,235.39 91.28,419.42 209.8,642.92 69.02,130.17 158.05,252.17 251.84,359.37 79.12,90.43 312.17,323.56 405.05,383.7 33.74,21.84 52.43,44.58 79.17,64.76 152.6,115.08 390.04,300.14 579.85,306.88l175.09 35.7c79.19,12.41 752.11,33.19 767.83,-89.74 120.9,-28.39 260.94,-248.33 372.79,-333.25 133.74,-101.54 258.7,-214.03 362.85,-349.64 117.99,-153.62 58.34,-83.91 147.53,-127.26 49.41,-24.02 39.29,-23.49 70.04,-43.25 75,-48.2 111.33,-2.62 187.79,-148.9 6.15,-11.77 7.32,-15.87 13.38,-27.52 64.63,-124.05 95.78,-195.29 136.85,-336.42 16.37,-56.22 6.05,-97.51 7.18,-161.98 0.73,-41.97 10.19,-27.28 0.25,-72.48 -12.57,-57.2 -18.3,-34.6 -30.89,-63.69 -17.22,-39.77 22.84,-72.93 -54.14,-103.59 -2.5,-31.57 2.69,-58.82 6.29,-87.94l11.78 -281.38c-24.09,-357.64 -62.81,-580.36 -209.09,-901.18 -11.8,-25.89 -23.08,-47.59 -35.95,-72.97 -104.01,-205.04 -249.08,-395.31 -400.13,-549.22 -18.44,-18.8 -36.37,-29.35 -54.86,-48.48 -21.69,-22.43 -29.35,-30.71 -52.78,-50.98l-296.36 -213.34c-86.98,-53.24 -54.05,-9.1 -73.52,-57.64 -6.13,-15.27 -3.13,-0.39 -1.86,-10.17 2.88,-22.08 20.22,7 3.06,-6.06 -34.24,-43.63 -99.36,-63.96 -154.37,-85.88 -28.18,-11.23 -51.04,-24.8 -84.36,-30.37 -37.05,-6.19 -67.11,-12.42 -96.33,-19.38 -106.43,-25.34 -253.32,-72.57 -351.77,-128.68 9.66,4.08 5.62,-2.88 3.98,9.71 5.19,70.3 87.63,209.18 60.08,272.59 -58.23,48.09 -457.84,-115.61 -540.79,-138.39 -34,3.83 -108.99,6.38 -138.02,22 -51.6,27.77 -70.79,58.65 -126.48,45.8 -110.93,-25.61 -489.71,-297.42 -534.79,-380.26 84.47,293.56 267.09,434.03 299.13,497.21 -51.35,-1.14 -94.12,-39.99 -139.36,-39.32z"/>
  <path class="fil52" d="M13345.14 5901.8c31.92,2.26 66.19,14.98 87.72,34.44 31.27,28.25 153.9,186.48 -20.67,198.78 -45.76,-50.4 -55.75,-108.67 -62.39,-182.06l-4.66 -51.16zm-1599.66 2232.14c100.1,-34.52 370.21,-138.27 468.98,-178.79 123.97,-40.97 220.13,-58.79 294.35,-116.72l181.91 -395.46c18.52,-35.01 43.76,-57.33 65.84,-82.56 92.21,-105.4 246.03,-380.7 322.64,-520.71 16.61,-30.33 28.3,-64.51 47.71,-90.06 73.55,9.09 106.67,42.62 203.09,12.84 122.09,-37.73 182.85,-142.59 238.34,-249.25 81.54,-156.76 123.74,-407.48 171.77,-534.29 46.99,-124.02 85.8,-209.6 94.97,-365.93 9.98,-170.12 -62.7,-281.58 -200.94,-297.44 -148.86,-17.07 -215.32,129.07 -257.53,221.79 -47.01,103.21 -80.01,240.79 -105.1,364 -5.75,28.3 -52.24,377.35 -62.91,389.37l-106.5 -800.69 -17.61 -242.77c-19.61,-5.56 -32.43,-2.44 -40.29,-29.65 -13.69,-47.34 -0.94,-14.81 7.41,-38.35l-13.77 -14.37c-34.96,-32.85 -16.27,-4.63 -31.81,-31.54 -22.98,-39.84 -9.44,-60.56 -47.36,-88.25 -26.09,-19.05 -3.97,9.02 -22.53,-20.35 -9.42,-14.91 -23.41,-67.34 -41.57,-97.99 -9.91,-16.74 -6.68,-11.71 -19.38,-20.86 -26.02,-18.75 -24.1,-8.44 -41.86,-43.65 -25.55,-50.61 -31.52,-45.06 -40.83,-66.93 -13.97,-32.81 1.11,-27.08 -30.22,-45.53 36.36,372.21 58.12,756.83 91.6,1134.93 36.92,416.76 63.53,657.43 -52.48,1021.19 -47.31,148.38 -105.69,268.86 -173.46,383.24 -88.26,148.98 -130.35,199.61 -237.11,327.88 -252.97,303.93 -618.39,483.42 -645.35,516.9z"/>
  <path class="fil53" d="M11648.47 3867.4c64.6,9.54 263.95,187.74 557.81,184.16 137.2,197.92 253.51,356.47 403.31,537.72 25.44,30.83 135.95,147.26 142.8,166.74 31.29,18.49 16.26,12.76 30.19,45.58 9.29,21.88 15.27,16.31 40.81,66.89 17.77,35.23 15.87,24.93 41.91,43.68 12.7,9.12 9.44,4.09 19.37,20.83 18.17,30.69 32.13,83.1 41.54,98.02 18.58,29.38 -3.53,1.27 22.54,20.33 37.92,27.7 24.39,48.4 47.4,88.28 15.52,26.9 -3.19,-1.32 31.78,31.51l13.75 14.39c-8.32,23.53 -21.08,-9 -7.41,38.33 7.89,27.2 20.68,24.08 40.29,29.69l-24.97 -530.64c-16.2,-19.71 -35.6,-36.21 -52.92,-54.24 -132.95,-138.71 -192.73,-193.92 -325.87,-366.99 -168.5,-218.98 -190.49,-269.58 -324.88,-496.92 -378.49,31.34 -738.56,-98.24 -1042.64,-303.83l-114.62 -84.68c58.75,195.9 316.62,376.99 459.81,451.15z"/>
  <path class="fil49" d="M13474.21 5793.95c6.64,73.38 16.63,131.65 62.39,182.05 174.57,-12.3 51.94,-170.52 20.67,-198.78 -21.54,-19.46 -55.8,-32.18 -87.72,-34.44l4.66 51.17z"/>
  <path class="fil54" d="M11996.64 6328.8c-19.48,123.34 -104.81,258.81 -192.96,314.51 -61.47,38.84 -140.78,46.26 -202.42,15.25 -59.96,-30.17 -86.25,-69.09 -127.13,-133.14 -6.69,-5.7 -5.54,-3.25 -13.1,-13.24l-18.66 -41.15c-47.04,-125.8 -48.2,-315.37 -22.91,-438.94 30.99,-151.41 99.23,-273.18 206.06,-346.67 65.21,-44.86 148.33,-44.96 214.6,-9.73 125.53,66.74 175.68,266.3 187.05,412.91 2.88,37.21 -3.08,178.4 -16.25,217.31 -10.3,30.46 -5.64,14.9 -14.28,22.89zm-293 -828.18c-35.89,12.99 -65.58,25.51 -93.71,48.13 -50.89,40.93 -90.58,89.51 -128.39,141.65 -149.63,206.29 -220.76,850.1 -65.75,985.9 104.2,91.29 253.93,121.57 390.22,120.09 203.43,-2.22 154.6,-25.36 282.34,-117.25 46.36,-33.35 38.32,-23.42 50.56,-83.36 31.95,-156.34 46.75,-305.22 38.73,-480.58 -6.64,-145.22 -56.37,-348.41 -128.93,-455.03 -52.54,-77.21 -196.63,-213.29 -345.07,-159.55z"/>
  <path class="fil55" d="M11705.59 5502.4c148.45,-53.74 292.53,82.34 345.08,159.54 72.56,106.62 122.28,309.81 128.92,455.04 8.02,175.35 -6.78,324.23 -38.73,480.57 -12.24,59.94 -4.2,50.01 -50.56,83.36 -127.74,91.89 -78.91,115.04 -282.33,117.25 -136.29,1.49 -286.03,-28.8 -390.22,-120.08 -155.02,-135.8 -83.89,-779.62 65.74,-985.91 37.82,-52.13 77.5,-100.72 128.39,-141.65 28.13,-22.62 57.82,-35.13 93.71,-48.12zm-252.38 60.46c-30.53,36.67 -78.8,76.62 -98.63,150.78 39.03,-24.66 53.56,-68.29 96.16,-93.42 -9.6,31.98 -12.31,24.87 -31.22,55.87 -10.31,16.9 -18.14,30.88 -27.26,48.03 -54.49,102.45 -85.45,224.14 -103.47,345.8 -33.17,223.96 -33.39,341.51 37.79,543.7l-82.99 -85.38c11.9,42.64 45.56,86.96 64.18,113.87 53.17,47.68 43.49,47.09 116.1,100.33 42.81,31.39 85.69,41.64 143.3,68.75 24.26,0.83 56.34,12.33 86.7,16.91 92.71,13.99 207.28,6.93 298.19,-19.85 -31.98,24.35 -17.6,32.09 -46.1,59.54 -27.89,26.87 -25.16,35.16 -43.52,76.62 40.56,-16.65 14.8,-4.35 40.74,-33.76l95.26 -92.9c15.05,-12.35 17.53,-16.15 32.4,-30.22l108.35 -81.77c203.11,-139.77 261.59,-121.48 331.75,-155.95 22.18,-10.9 12.85,-2.07 27.23,-23.35 -163.86,17.83 -150.06,24.31 -290.33,79.49 47.08,-308.25 32.72,-683.31 -91.44,-919.59 -23.8,-45.29 -66.76,-123.41 -108.15,-151.6 -14.81,-10.09 -20.91,-14.17 -34.47,-28.09 -88.46,-90.87 -306.08,-98.03 -442.86,-1.43l-77.71 57.62z"/>
  <path class="fil56" d="M11523.81 6005.6c-10.08,68.2 -31.27,99 -23.92,188.48 22.47,273.55 211,350.12 340.56,205.19 138.78,-155.26 103.17,-494.63 -50.39,-562.71 -20.16,-8.94 -58.89,-24.33 -77.89,-5.67 49.05,26.29 50.2,148.44 -20.21,239.1 -20.69,26.64 -59.74,66.16 -110.34,54.83 -48.95,-10.95 -52.63,-62.92 -57.81,-119.22z"/>
  <path class="fil57" d="M11481.87 6533.56c38.43,60.15 63.09,96.72 119.41,125.03 57.87,29.14 136.32,26.14 194.06,-10.29 34.99,-22.1 77.73,-59.88 107.15,-102.06 40.35,-57.75 93.94,-154.4 104.54,-221.29 -6.81,-6.53 -18.16,-10.47 -28.57,-3.27 -6.34,4.4 -11.38,21.56 -17.98,19.77 -33.83,230.59 -282.66,320.47 -288.65,217.13 24.03,-15.37 134.97,-31.09 168.53,-111.35l-180.54 69.33c-100.26,10.38 -62.91,10.87 -144.25,-5.11 -42.46,-8.34 -32.17,16.51 -33.7,22.11z"/>
  <path class="fil54" d="M12003.5 6342.36c-19.46,123.36 -111.02,252.05 -199.14,307.78 -61.5,38.83 -140.8,46.25 -202.42,15.22 -59.95,-30.16 -86.28,-69.05 -127.17,-133.11 -6.68,-5.71 -5.5,-3.27 -13.1,-13.26l-18.64 -41.14c-47.02,-125.8 -48.2,-315.37 -22.93,-438.94 31,-151.42 99.28,-273.18 206.1,-346.68 65.17,-44.87 148.3,-44.92 214.58,-9.7 125.52,66.72 175.69,266.28 187.05,412.88 2.89,37.21 -3.07,178.43 -16.26,217.33 -10.26,30.44 -2.51,13.76 -8.07,29.62zm-299.17 -834.89c-35.93,13 -65.58,25.47 -93.75,48.08 -50.88,40.97 -90.54,89.54 -128.38,141.68 -149.62,206.29 -220.73,850.12 -65.74,985.91 104.2,91.24 253.93,121.57 390.22,120.08 203.44,-2.22 154.6,-25.39 282.36,-117.26 46.33,-33.36 38.31,-23.4 50.54,-83.36 31.95,-156.33 46.74,-305.2 38.75,-480.55 -6.68,-145.23 -56.37,-348.44 -128.93,-455.05 -52.55,-77.22 -196.65,-213.3 -345.07,-159.53z"/>
  <path class="fil58" d="M11519.48 6030.2c13.16,-33.63 18.51,-87.04 66.57,-144.74 37.36,-44.88 79.29,-126.41 127.17,-91.85 14.31,50.44 48.56,32.39 52.33,52.31 151.65,67.23 186.82,402.35 49.8,555.69 -127.94,143.09 -262.04,49.71 -311.31,-196.71 -7.25,-88.36 5.47,-107.36 15.44,-174.7zm-37.79 497.95c1.54,-5.92 -2.45,-24.03 42.22,-15.25 85.57,16.82 45.09,13.02 150.48,2.13l165.97 -67.8c-35.28,84.36 -143.24,95.17 -168.54,111.35 6.32,108.63 277.56,9.99 313.19,-232.49 18.17,4.92 1.13,-3.16 12.68,7.87 8.51,-7.88 3.89,7.47 14.09,-22.6 12.99,-38.41 18.88,-177.85 16.03,-214.59 -11.23,-144.79 -60.76,-341.85 -184.72,-407.75 -65.44,-34.79 -147.53,-34.69 -211.91,9.62 -105.49,72.57 -172.88,192.77 -203.47,342.32 -24.98,122.02 -23.82,309.24 22.6,433.48l18.43 40.59c7.49,9.9 6.32,7.46 12.95,13.12z"/>
  <path class="fil55" d="M11705.59 5502.4c148.45,-53.74 292.53,82.34 345.08,159.54 72.56,106.62 122.28,309.81 128.92,455.04 8.02,175.35 -6.78,324.23 -38.72,480.57 -12.25,59.94 -4.21,50.01 -50.57,83.36 -127.74,91.89 -78.91,115.04 -282.33,117.25 -136.29,1.49 -286.03,-28.8 -390.22,-120.08 -155.01,-135.8 -83.89,-779.62 65.74,-985.91 37.82,-52.13 77.5,-100.72 128.39,-141.65 28.13,-22.62 57.82,-35.13 93.71,-48.12zm-252.37 60.46c-30.54,36.67 -78.81,76.62 -98.64,150.78 39.03,-24.66 53.56,-68.29 96.16,-93.42 -9.6,31.98 -12.31,24.87 -31.22,55.87 -10.31,16.9 -18.14,30.88 -27.26,48.03 -54.49,102.45 -85.45,224.14 -103.47,345.8 -33.17,223.96 -33.39,341.51 37.79,543.7l-82.99 -85.38c11.9,42.64 45.57,86.96 64.19,113.87 53.16,47.68 43.48,47.09 116.09,100.33 42.81,31.39 85.69,41.64 143.3,68.75 24.26,0.83 56.34,12.33 86.7,16.91 92.71,13.99 207.28,6.93 298.19,-19.85 -31.98,24.35 -17.6,32.09 -46.1,59.54 -27.89,26.87 -25.16,35.16 -43.52,76.61 40.56,-16.64 14.8,-4.34 40.74,-33.75l95.26 -92.9c15.05,-12.35 17.53,-16.15 32.4,-30.22l108.35 -81.77c203.11,-139.77 261.59,-121.48 331.75,-155.96 22.18,-10.89 12.85,-2.06 27.23,-23.34 -163.86,17.83 -150.06,24.31 -290.33,79.49 47.08,-308.25 32.72,-683.31 -91.44,-919.59 -23.8,-45.29 -66.76,-123.41 -108.15,-151.6 -14.81,-10.09 -20.91,-14.17 -34.47,-28.09 -88.46,-90.87 -306.08,-98.03 -442.86,-1.43l-77.7 57.62z"/>
  <path class="fil56" d="M11526.47 6000.45c-10.08,68.2 -31.27,99 -23.92,188.48 22.47,273.55 211,350.12 340.55,205.19 138.79,-155.26 103.18,-494.63 -50.38,-562.71 -20.16,-8.94 -58.89,-24.33 -77.89,-5.67 49.05,26.29 50.2,148.44 -20.21,239.1 -20.69,26.64 -59.74,66.16 -110.34,54.83 -48.95,-10.95 -52.63,-62.92 -57.81,-119.22z"/>
  <path class="fil56" d="M9418.61 5978.66c-24.09,74.6 -24.39,168.01 -0.47,250.6 10.76,37.18 25.67,69.69 46.36,99.53 31.19,45 36.54,35.92 70.99,65.92 71.67,9.92 131.37,20.84 186.46,-51.66 80.9,-106.45 86.5,-167.31 74.75,-333.73 -6.07,-61.22 -36.43,-121.63 -69.37,-157.27 -22.65,-24.51 -84.58,-80.14 -140.73,-52.56 73.27,49.55 28.66,180.43 -8.31,231.2 -19.47,26.74 -52.75,67.45 -103.95,55.3 -42.98,-10.19 -49.89,-57.12 -55.73,-107.33z"/>
  <path class="fil59" d="M9608.67 6496.84c159.18,-31.46 208.88,-198.63 222.95,-342.27 5.18,-52.84 -0.04,-129.41 10.65,-172.34 94.92,20.46 69.88,394.95 -91.91,508.54 -22.35,15.7 -154.95,78.31 -141.69,6.07zm-50.53 -841.81c11.66,25.43 -4.88,5.37 24.37,16.4 18.45,6.96 31.6,9.21 49.62,24.02l72.82 73.04c41.14,41.31 23.28,47.99 49.88,87.45l6.08 7.82c41.95,58.19 30.75,149.94 30.51,149.28 -0.32,-0.9 -0.9,3.45 -1.72,4.99 11.75,166.41 6.15,227.27 -74.75,333.73 -55.1,72.49 -114.79,61.57 -186.47,51.66l-29.06 2.03c10.99,18.65 15.77,17.65 16.51,40.47 -78.21,49.12 -145.5,-97.75 -152.3,-104.75l0.27 5.04c6.31,91.81 91.91,207.3 141.35,233.5 93.71,81.08 264.94,-0.66 310.51,-83.06 16.39,-29.65 36.36,-64.57 50.34,-100.18 68.12,-173.41 58.57,-340.55 9.59,-527.06 -37.83,-81.61 -56.43,-125.71 -114.12,-174.69 -76.95,-65.33 -99.67,-51.51 -203.43,-39.69z"/>
  <path class="fil60" d="M9869.29 5856.15c49,186.52 58.56,353.64 -9.56,527.08 -14.01,35.6 -33.96,70.53 -50.33,100.17 -45.59,82.4 -216.83,164.1 -310.55,83.05 2.95,24.61 -1.9,50.32 -4.5,73.76 -45.76,1.89 -82.4,-7.66 -115.09,-31.22 83.34,93.57 370.45,123.43 522.42,54.43 33.3,-15.06 65.99,-51.65 91.48,-75.32 43.3,-40.25 43.86,-36.49 53.62,-111.55 6.84,-52.28 9.97,-86.53 13.24,-144.06 3.08,-53.9 5.22,-313.6 -19.5,-333.59 -2.33,91.4 14.69,88.19 -0.05,249.28 -4.05,43.97 -11.71,70.21 -32.56,100.54 -24.26,35.35 -40.29,51.25 -91.56,41.68 -28.33,-55.82 27.53,-45.8 9.86,-115.42 7.77,-39.31 18.09,-112.7 15.92,-157.62 -0.94,-19.28 -41.24,-274.47 -72.84,-261.21z"/>
  <path class="fil61" d="M9372.76 6351.47l-0.27 -5.04c6.8,7 74.09,153.86 152.3,104.75 -0.74,-22.83 -5.52,-21.82 -16.51,-40.48l29.07 -2.03c-34.45,-30 -39.8,-20.92 -71,-65.92 -20.68,-29.84 -35.59,-62.35 -46.36,-99.53 -23.91,-82.59 -23.61,-176 0.48,-250.6 8.64,-17.91 8.3,-49.61 16.26,-71.47 27.82,-76.42 73.64,-128.45 151.73,-107.7 56.15,-27.58 118.08,28.05 140.73,52.56 32.94,35.64 63.3,96.05 69.37,157.27 0.82,-1.54 1.4,-5.88 1.73,-4.98 0.24,0.66 11.43,-91.1 -30.52,-149.29l-6.08 -7.81c-26.6,-39.47 -8.74,-46.15 -49.87,-87.46l-72.83 -73.04c-18.02,-14.8 -31.17,-17.06 -49.62,-24.02 -29.24,-11.03 -12.71,9.03 -24.36,-16.4 -90.83,18.31 -172,172.61 -200.75,271.93 -29.7,102.54 -34,204.57 -21.34,313.12l27.84 106.14z"/>
  <path class="fil61" d="M9609.25 6497.14c-13.27,72.25 119.33,9.63 141.68,-6.06 161.79,-113.59 186.83,-488.09 91.91,-508.54 -10.68,42.92 -5.46,119.49 -10.64,172.33 -14.08,143.65 -63.78,310.81 -222.95,342.27z"/>
  <path class="fil56" d="M9420.47 5992.62c-24.09,74.6 -24.39,168.01 -0.48,250.6 10.77,37.18 25.68,69.69 46.36,99.53 31.2,45 36.55,35.92 71,65.92 71.67,9.92 131.37,20.84 186.46,-51.66 80.9,-106.45 86.5,-167.31 74.75,-333.73 -6.07,-61.22 -36.43,-121.63 -69.37,-157.27 -22.65,-24.51 -84.58,-80.14 -140.73,-52.56 73.27,49.55 28.65,180.43 -8.31,231.2 -19.47,26.74 -52.75,67.45 -103.95,55.3 -42.98,-10.19 -49.89,-57.12 -55.73,-107.33z"/>
  <path class="fil57" d="M9615.46 6494.06c159.18,-31.46 208.88,-198.62 222.96,-342.27 5.18,-52.84 -0.04,-129.41 10.64,-172.33 94.92,20.45 69.88,394.95 -91.91,508.54 -22.35,15.69 -154.95,78.31 -141.69,6.06zm-50.52 -841.81c11.65,25.43 -4.88,5.37 24.36,16.4 18.45,6.96 31.6,9.21 49.62,24.02l72.83 73.04c41.13,41.31 23.27,47.99 49.87,87.46l6.08 7.81c41.95,58.19 30.76,149.95 30.52,149.29 -0.33,-0.9 -0.91,3.44 -1.73,4.98 11.75,166.41 6.15,227.28 -74.75,333.73 -55.09,72.5 -114.79,61.58 -186.46,51.66l-29.07 2.03c10.99,18.65 15.77,17.65 16.52,40.48 -78.22,49.11 -145.51,-97.76 -152.31,-104.75l0.27 5.04c6.31,91.81 91.92,207.29 141.36,233.5 93.7,81.07 264.93,-0.66 310.5,-83.07 16.4,-29.64 36.36,-64.57 50.35,-100.17 68.11,-173.42 58.57,-340.55 9.58,-527.07 -37.83,-81.61 -56.42,-125.71 -114.11,-174.68 -76.96,-65.34 -99.68,-51.52 -203.43,-39.7z"/>
  <path class="fil60" d="M9866.03 5848.62c49,186.51 57.73,366.84 -10.39,540.28 -14.01,35.6 -33.96,70.53 -50.33,100.17 -45.59,82.4 -216.83,164.1 -310.55,83.05 2.95,24.61 -1.9,50.33 -4.5,73.76 -45.76,1.89 -82.4,-7.66 -115.08,-31.22 83.33,93.57 370.44,123.43 522.41,54.43 33.3,-15.06 65.99,-51.65 91.48,-75.32 43.3,-40.25 43.86,-36.55 53.62,-111.55 6.85,-52.28 9.97,-86.53 13.24,-144.06 3.08,-53.9 5.22,-313.59 -19.5,-333.59 -2.34,91.4 14.69,88.19 -0.05,249.28 -4.05,43.98 -11.71,70.21 -32.56,100.54 -24.26,35.35 -40.29,51.25 -91.56,41.68 -28.33,-55.82 -7.5,-73.24 3.48,-128.68 7.77,-39.3 10.36,-90.7 8.19,-135.61 -0.94,-19.29 -26.29,-296.42 -57.9,-283.16z"/>
  <path class="fil58" d="M9363.92 6346.23l0 0c6.8,6.99 81.59,151.56 159.78,102.45 -0.75,-22.81 -5.49,-21.83 -16.5,-40.49l29.05 -2.01c-34.45,-30.01 -39.79,-20.91 -70.96,-65.91 -20.7,-29.84 -35.63,-62.39 -46.37,-99.52 -23.94,-82.64 -23.62,-176 0.45,-250.63 8.67,-17.93 8.3,-49.61 16.28,-71.49 27.81,-76.39 73.66,-128.41 151.71,-107.69 56.18,-27.59 118.08,28.07 140.73,52.58 32.97,35.66 63.33,96.06 69.41,157.27 0.78,-1.55 1.39,-5.9 1.68,-4.99 0.26,0.65 11.46,-91.08 -30.49,-149.28l-6.1 -7.8c-26.58,-39.49 -8.71,-46.19 -49.84,-87.5l-72.84 -73.02c-18.04,-14.81 -31.15,-17.05 -49.62,-24.03 -29.23,-11.03 -12.7,9.07 -24.37,-16.37 -90.83,18.3 -183.11,142.1 -211.89,241.39 -29.7,102.57 -30.65,232.33 -17.97,340.9l27.86 106.14z"/>
  <path class="fil62" d="M11541.06 6004.06c6.72,57.8 14.68,111.82 64.15,123.55 58.93,13.98 97.25,-32.87 119.66,-63.65 42.55,-58.45 93.9,-209.1 9.56,-266.14 -89.88,-23.88 -142.63,36 -174.65,123.98 -9.16,25.16 -8.77,61.64 -18.72,82.26z"/>
  <path class="fil58" d="M9609.25 6497.14c-13.27,72.25 119.33,9.63 141.68,-6.06 161.79,-113.59 186.83,-488.09 91.91,-508.54 -10.68,42.92 -5.46,119.49 -10.64,172.33 -14.08,143.65 -63.78,310.81 -222.95,342.27z"/>
  <path class="fil63" d="M9385.65 6622.24c32.68,23.57 69.33,33.12 115.08,31.23 2.6,-23.44 7.45,-49.15 4.5,-73.76 -49.43,-26.18 -135.01,-141.67 -141.31,-233.48l-27.86 -106.14c-12.68,-108.57 -0.55,-207.83 29.15,-310.4 28.78,-99.29 102.1,-256.35 192.93,-274.65 103.77,-11.81 126.47,-25.67 203.45,39.7 57.69,48.96 76.27,93.08 114.08,174.67 31.61,-13.26 57.79,250.67 58.73,269.96 2.17,44.91 -0.42,96.3 -8.19,135.61 -10.98,55.44 -31.8,72.86 -3.48,128.67 51.27,9.58 67.31,-6.32 91.56,-41.68 20.85,-30.33 28.51,-56.56 32.57,-100.53 14.73,-161.1 -2.29,-157.88 0.04,-249.28 -29.16,-296.95 -274.1,-661.77 -539.47,-468.14 -78.48,57.24 -152.43,183.13 -182.44,281.92 -23.67,77.78 -40.63,164.54 -46,257.78 -6.85,119.43 -3.35,515.74 106.66,538.52z"/>
  <path class="fil62" d="M9412.49 5982.7c6.01,51.76 13.14,100.12 57.43,110.63 52.78,12.52 87.08,-29.43 107.15,-56.99 38.1,-52.34 84.08,-187.23 8.56,-238.31 -80.48,-21.38 -127.71,32.24 -156.38,111.01 -8.2,22.54 -7.86,55.2 -16.76,73.66z"/>
  <path class="fil64" d="M10407.42 7536.7c7.92,-9.22 -14.06,-7.87 18.1,-3.31l59.26 18.4c28.14,8.54 52.06,16.21 77.88,24.43 233.65,74.1 279.13,99.16 502.17,-18.82 103.87,-54.91 371.53,-202.58 448.64,-289.98 38.31,-36.06 36.78,-96.53 42.24,-101.86 -74.68,25.59 -71.6,56.75 -148.35,106.93 -70.34,43.01 -279.12,116.38 -364.75,136.9 -179.66,43.16 -495.51,88.29 -635.19,127.31z"/>
  <g id="_1703740267664">
   <path class="fil65" d="M11220.79 5281.12c-11.77,-79.81 38.3,-161.04 67.87,-209.94 125.46,-207.48 422.38,-289.62 594.61,-242.29 -53.26,67.84 -26.15,7.35 -72.68,67.65 -36.55,47.38 -39.35,21.74 -85.83,56.14 -47.57,35.21 -165.68,23.47 -363.5,193.68 -27.93,24.04 -44.47,40.22 -71.31,68.37 -34.97,36.67 -38.47,54.51 -69.16,66.39zm245.32 -421.81c-18.87,17.92 -74.97,47.85 -101.5,69.28 -175.42,141.68 -189.42,271.07 -217.46,301.27 2.47,39.64 -25.19,90.4 -11.64,153.44 9.08,42.23 47.11,71.92 88.55,8.35 24.54,-37.63 123.67,-157.03 157.7,-167.53 27.63,-67.51 338.6,-274.76 594.92,-157.45 231.52,105.95 392.32,392.02 466.48,339.85 60.69,-87.98 -29.19,-260.84 -78.36,-333.42 -127.12,-187.64 -302.97,-299.61 -529.63,-301 -158.3,-0.97 -239,40.1 -369.06,87.21z"/>
   <path class="fil66" d="M11203.73 5313.23c32.14,-12.74 35.75,-32.05 72.29,-71.61 28.05,-30.38 45.34,-47.83 74.55,-73.75 206.85,-183.52 330.73,-170.37 380.49,-208.31 48.62,-37.06 51.64,-9.29 89.81,-60.44 48.59,-65.11 20.36,0.27 75.98,-72.97 -180.75,-51.88 -491.81,35.94 -622.66,260.07 -30.84,52.82 -83.07,140.57 -70.46,227.01z"/>
  </g>
  <path class="fil67" d="M10018.87 5470.17c34.03,0.38 111.14,32.23 81.46,-135.32 -17.78,-100.43 -54.92,-155.34 -60.5,-192.37 -42.6,-39.89 -145.94,-353.58 -529.42,-285.01 -252.64,45.17 -402.6,323.53 -372.13,464.03 45.25,0 85.91,-49.66 114.86,-75.78 98.61,-88.97 236.25,-227.07 387.32,-178.83 159.52,50.92 272.65,186.2 339.94,340.57 18.3,41.97 24.29,35.92 38.47,62.71z"/>
  <path class="fil48" d="M9017.09 6621.8c0.09,-0.26 -17.37,-353.05 -16.64,-401.73 7.2,-468.57 62.8,-670.68 -29.71,-1200.61 -23.68,-135.67 -88.96,-331.28 -92.78,-369.3 -24.98,-248.79 -0.96,-496.92 81.81,-723.85 17.43,-47.81 39.94,-99.22 62.21,-140.62 14.24,-26.47 73.15,-121.51 72.86,-127.04 35.86,56.26 39.65,124.16 139.01,256.29 360.46,479.37 1021.36,796 1545.14,735.3 177.28,-20.5 1115.56,-130.38 1167.22,-171.64 81,-72.46 -678.54,-459.1 -801.36,-526.67 39.93,18.53 39.48,16.37 75,17.55 42.21,-0.35 493.66,16.26 560.97,-26.57 13.55,-12.21 3.94,-8.87 -30.69,-28.1 -154.58,-105 -79.16,-90 -290.09,-238.37 -11.82,-5.68 13.37,-6.36 18.51,-5.86 34.2,3.32 47.3,25.84 85.67,40.81 235.66,97.5 510.59,257.74 836.7,229.84 162.2,293.74 289.88,471.24 499.24,708.49 32.12,36.38 61.63,64.01 95.02,100.03 39.42,213.5 49.5,288.92 73.07,766.51 13.75,278.56 39.79,366.85 85.68,641.41 11.05,66.13 2.3,85.34 10.73,150.85 52.14,404.2 253.6,-635.48 256.07,-640.84 71.44,-151.94 161.83,-282.72 339.91,-188 53.87,90 41.71,98.01 34.31,204.14 -44.32,261.87 -110.31,311.47 -159.27,443.71l-256.14 603.58c-194.37,110.52 -142.49,-44.51 -302.44,6.79 -95.73,30.72 -61.23,102.4 -109.36,206.43l-215.61 390.02c-32.21,50.5 -58.13,140.23 -95.18,182.01 -24.43,27.55 -1.67,-12.21 70.3,60.25 217.08,-23.61 348.46,-84.72 518.95,-182.26 188.07,-107.61 380.71,-331.52 496.81,-520.51 12.11,-19.73 32.53,-59.67 45.03,-71.63 0.64,33.48 -5.07,84.04 -9.02,115.6 -3.86,30.85 -11.24,80.76 -3.01,107.77 43.54,-8.65 87.49,-78.55 112.61,-110.88l280.91 -381.6c106.4,-158.18 201.6,-376.7 250.98,-563.16l13.56 -40.28c25.69,78.88 2.38,222.79 16.15,234.63 49.48,42.56 208.87,-213.94 230.84,-249.4 15.86,-25.59 28.22,-49.33 42.27,-73.99 177.12,-310.97 -304.05,-1017.18 -344.1,-1427.07 72.92,45.16 274.74,244.33 340.83,298.18 65.23,-57.27 133.19,-253.93 136.76,-339.1 -196.03,-342.34 193.61,-200.13 128.98,-359.5 -28.03,-69.07 -54.85,-137.92 -94.84,-196.17 -11.92,-17.36 -31.67,-38.77 -39.48,-60.47 98.89,42.29 353.61,36.64 369.66,-97.51 -55.76,-50.6 -164.66,-17.64 -243.04,-75.24 -2.62,-1.93 -13.45,-10.28 -15.4,-11.91 -130.33,-108.15 -206.51,-429.28 -274.43,-593.61 -43.77,-105.87 -82.71,-198.2 -130.17,-293.99 -95.87,-193.46 -208.05,-328.93 -355.34,-456.39 -69.82,-60.42 -152.51,-118.17 -234.17,-158.65 -67.15,-33.29 -195.58,-96.03 -274.18,-106.6 19.13,-127.09 323.68,-117.45 396.91,-164.95 -22.12,-61.44 -346.21,-155.33 -541.86,-89.58 -67.15,22.56 -120.77,73.91 -155.84,86.67 -9.96,-101.97 -114.98,-238.69 -169.03,-291.37 -65.85,-64.18 -175.47,-165.42 -274.05,-154.7 -2.59,25.87 -2.45,28.53 15.41,51.47 85.31,109.68 207.99,180.37 186.94,356.32 -38.93,-21.84 -80.86,-79.45 -117.46,-110.8 -103.19,-88.38 -218.16,-162.07 -336.48,-225.27l-74.81 -38.48c-53.25,-24.1 -97.57,-45.99 -150.91,-67.28 -163.81,-65.4 -329.23,-115.89 -501.76,-154.01 -866.65,-191.47 -920.11,509.87 -2050.57,713.94 -178.47,132.07 -826.42,148.94 -981.45,308.51 -109.21,112.42 -226.4,262.39 -368.25,332.44 -158.51,78.26 -334.32,92.62 -434.54,-80.01 -14.81,-25.49 -7.45,-25.38 -32.51,-29.62 -38.83,34.09 -14.78,123.87 -10.22,173.08 15.13,163.03 95.27,302.92 226.42,376.47 -34.8,69.48 -94.76,106.53 -178.18,294.69 -52.31,117.99 -81.15,219.26 -109.74,353.54 -29.28,137.54 -33.62,270.13 -38.77,414.63 -3.1,87.54 19.02,402.61 44.02,479.34 32.21,-12.96 32.01,-73.45 41.65,-107 11.54,-40.12 25.06,-70.81 41.07,-107.51 23.42,-53.74 74.13,-147.52 115.07,-186.66 -0.95,7.94 -52.07,214.57 -65.53,313.68 -15.18,111.8 -26.4,238.71 -18.39,354.23 16.1,232.37 55.38,425.7 127.06,634.08 10.01,29.15 16.62,59.23 36.91,71.81 24.16,-23.1 26.77,-241.6 31.04,-278.44 9.21,-79.49 17.01,-168.82 51.75,-241.15 6.64,-13.83 2.18,-5.34 7.36,-13.13 6.97,91.24 -8.45,157.27 13.1,262.56 93.03,454.38 276.43,717.5 472.26,1111.16l88.62 204.23c11.8,31.65 24.58,75.94 37.44,106.04z"/>
  <path class="fil68" d="M15549.97 15406.78c282.71,-3675.56 -271.18,3524.23 0,0zm325.06 -1549.61c-1603.26,-692.93 2751.48,1189.04 0,0zm967.7 1146.7c-160.61,-382.76 -58.79,-121.34 70.19,-300.35l-72.69 -240.16c158.2,-133.99 101.7,-175.33 126.69,-284.52 30.81,-134.54 2.15,-57.81 57.63,-166.48 251.22,-492.1 22,-397.87 201.2,-812.9 -312.67,-154.66 -511.36,-432.04 -930.04,-549.62 -321.71,-90.37 -832.05,10.33 -972.31,301.21 2.02,1.96 -4.27,7.8 -3.96,8.36l100.68 85.74c-130.84,168.86 -105.05,58.23 -118.73,182.38 -29.67,269.01 -18.4,-257.58 16.62,94.61 22.07,221.9 -178.06,366.78 -71.34,586.38 261.93,266.16 645.55,106.26 1048.81,134.85 -44.16,46.23 -24.44,36.79 -100.4,78.9 -14.19,7.88 -59.82,27.42 -75.81,33.36 -62.44,23.19 -134.55,24.29 -197.37,47.13 -130.05,47.27 -61.27,23.02 -42.54,72.11 10.3,26.98 12.14,-65.09 86.45,149.54 -1189.73,-197.88 -954.86,102.13 -1281.25,363.04 -207,165.48 -216,31.36 -424.54,103.98 -17.14,382.47 212.44,408.13 528.6,311.36 412.55,-126.29 119.26,-306.05 504.93,-229.05 47.19,437.33 39.58,565.98 -37.31,981.68l78.94 54.56c76.15,237.37 -813.85,251.17 -821.01,785.45 160.48,155.07 466.78,209.74 708.35,90.72 138.85,-68.41 369.46,-328.91 448.1,-488.67 -63.45,281.46 -187.19,306.9 -270.62,602.31 442.54,17.66 611.72,-279 785.23,-614.92 -30.88,295.44 -125.83,320.19 -113.24,619 270.73,3.29 408.03,-155.8 490.23,-424.07 8.11,12.8 16.5,32.86 21.69,40.95 4.91,7.68 15.67,29.39 21.75,37.83 311.75,433.03 502.46,-1152.88 5.4,-1659.72 6.47,-4.44 17.08,-9.08 20.63,-9.79 3.81,-0.76 17.82,-7.1 22.88,-7.68l188.16 22.48z"/>
  <path class="fil14" d="M16313.4 15031.46c-116.23,-98.51 -842.58,-575.34 -880.15,-204.42 -6.62,65.39 162.24,218.8 129.86,639.69 -18.63,242.06 -45.76,441.74 58.65,589.54 295.79,418.8 1762.31,-117.53 691.64,-1024.81z"/>
  <path class="fil14" d="M15648.13 12844.15l320.79 73.84c-379.51,124.58 -728.46,719.68 -186.61,953.87 182.93,79.06 1432.84,329.31 941.74,-258.96l148.58 -128.28c63.85,-78.01 61.83,-59.91 103.43,-195.22 -131.98,-332.47 -981.33,-806.39 -1327.93,-445.25z"/>
  <path class="fil69" d="M13027.66 12016.64c257.05,41.48 263.57,75.78 558.64,255.82 296.91,181.15 613.68,432.99 697.3,888.2 316.59,1722.96 -2869.44,4255.3 -2928.75,717.51 -17.53,-1047.74 289.57,-1320.86 812.2,-1622.3 141.69,-81.71 140.35,-92.61 285.02,-121.74 137.56,-27.72 438.06,-95.5 575.59,-117.49l252.84 -323.94c-247.83,58.15 -498.56,96.62 -743.5,174.43l-494.34 214.81c-580.99,334.09 -856.35,743.93 -838.76,1796.73 30.47,1829.34 851.79,2813.64 2289.5,2560.79 319.19,-56.14 575.5,-200.81 797.99,-385.97 183.24,-152.45 166.39,-134.43 303.89,-318.48 298.13,-399.32 234.55,-256.95 145.61,-334.35 -329.59,23.25 -604.07,-10.42 -654.53,-407.67 145.34,-311.05 331.51,-158.65 550.5,-442.59 274.17,-355.38 279.64,-173.35 509.51,-393.28l-130.33 -825.1c-321,-892.25 -563.46,-1055.57 -880.44,-1314.16 -121.61,-103.68 -679.06,-333.59 -777.93,-326.66 -63.93,4.46 -77.17,1.5 -77.17,1.5 -25.42,38.02 -40.95,53.5 -63.7,81.63 -10.24,12.94 -62.86,79.7 -72.45,92.84 -17.53,24.08 -47.58,54.93 -69.74,89.37l-46.95 60.1z"/>
  <path class="fil70" d="M11505.49 13726.5c-261.29,-920.57 628.15,-1445.97 894.31,-1101.88 229.98,297.34 -294.21,1290.46 -894.31,1101.88zm1315.64 -1521.9c163.04,-18.76 225.41,25.9 308.5,103.91 -60.15,392.46 -421.13,290.01 -584.35,137.06 45.56,-153.96 102.67,-221.04 275.85,-240.97zm-663.62 38.82c-529.6,305.47 -840.82,582.24 -823.06,1643.98 60.12,3585.09 3288.72,1018.87 2967.9,-727.12 -84.72,-461.27 -405.72,-716.47 -706.61,-900.07 -188.46,-114.99 -236.32,-168.18 -332.11,-198.79 -350.56,-111.91 -777,-7.79 -1106.12,182z"/>
  <path class="fil34" d="M12498.71 12465.02c185.32,173.65 595.19,290 663.5,-155.65 -94.37,-88.55 -165.17,-139.25 -350.3,-117.95 -196.63,22.64 -261.49,98.77 -313.2,273.6z"/>
  <g id="_1703740309952">
   <g>
    <g style="clip-path:url(#id0)">
     <image x="8502.5" y="871.74" width="6452.85" height="481.68" xlink:href="Domingo Savio Astronauta_Images\Domingo Savio Astronauta_ImgID1.png"/>
    </g>
   </g>
   <g>
    <g style="clip-path:url(#id1)">
     <image x="8479.86" y="1327.32" width="6452.85" height="431.61" xlink:href="Domingo Savio Astronauta_Images\Domingo Savio Astronauta_ImgID2.png"/>
    </g>
   </g>
  </g>
 </g>
</svg>
