<?xml version="1.0" encoding="UTF-8"?>
<!DOCTYPE svg PUBLIC "-//W3C//DTD SVG 1.1//EN" "http://www.w3.org/Graphics/SVG/1.1/DTD/svg11.dtd">
<!-- Creator: CorelDRAW 2020 (64-Bit) -->
<svg xmlns="http://www.w3.org/2000/svg" xml:space="preserve" width="215.9mm" height="279.4mm" version="1.1" style="shape-rendering:geometricPrecision; text-rendering:geometricPrecision; image-rendering:optimizeQuality; fill-rule:evenodd; clip-rule:evenodd"
viewBox="0 0 21590 27940"
 xmlns:xlink="http://www.w3.org/1999/xlink"
 xmlns:xodm="http://www.corel.com/coreldraw/odm/2003">
 <defs>
  <style type="text/css">
   <![CDATA[
    .fil6 {fill:#003399}
    .fil27 {fill:#31332E}
    .fil0 {fill:#336666}
    .fil4 {fill:#3F383A}
    .fil2 {fill:#4D4D4D}
    .fil36 {fill:#52392D}
    .fil38 {fill:#553D37}
    .fil25 {fill:#593E32}
    .fil41 {fill:#593E32}
    .fil37 {fill:#866351}
    .fil40 {fill:#996633}
    .fil22 {fill:#B3B3B3}
    .fil32 {fill:#D5966D}
    .fil35 {fill:#E1DDDB}
    .fil30 {fill:#E48E51}
    .fil18 {fill:#E5A774}
    .fil19 {fill:#E5A774}
    .fil3 {fill:#E6E6E6}
    .fil24 {fill:#E9B891}
    .fil33 {fill:#EAE7E5}
    .fil29 {fill:#EBA56B}
    .fil28 {fill:#EFC191}
    .fil16 {fill:#F2C69A}
    .fil14 {fill:#F4CDA3}
    .fil15 {fill:#F6D2AC}
    .fil26 {fill:#F8D6B2}
    .fil31 {fill:#F9F5F2}
    .fil34 {fill:#FCFCFB}
    .fil17 {fill:#FDEAD6}
    .fil39 {fill:#FEFEFD}
    .fil10 {fill:white}
    .fil23 {fill:white}
    .fil8 {fill:white;fill-opacity:0.129412}
    .fil1 {fill:#0B0C11;fill-opacity:0.211765}
    .fil12 {fill:#E6E6E6;fill-opacity:0.211765}
    .fil21 {fill:white;fill-opacity:0.231373}
    .fil7 {fill:black;fill-opacity:0.278431}
    .fil13 {fill:#4D4D4D;fill-opacity:0.380392}
    .fil9 {fill:#BABCBD;fill-opacity:0.380392}
    .fil11 {fill:#BABCBD;fill-opacity:0.470588}
    .fil20 {fill:#4D4D4D;fill-opacity:0.529412}
    .fil5 {fill:url(#id2)}
   ]]>
  </style>
      <clipPath id="id0">
       <rect x="2288.13" y="2541.33" width="6339.61" height="473.23"/>
      </clipPath>
      <clipPath id="id1">
       <rect x="2265.89" y="2988.91" width="6339.61" height="424.04"/>
      </clipPath>
  <linearGradient id="id2" gradientUnits="userSpaceOnUse" x1="12716.38" y1="13835.12" x2="8945.22" y2="10510.23">
   <stop offset="0" style="stop-opacity:1; stop-color:#3F383A"/>
   <stop offset="0.780392" style="stop-opacity:1; stop-color:#696466"/>
   <stop offset="1" style="stop-opacity:1; stop-color:#807B7D"/>
  </linearGradient>
 </defs>
 <g id="Capa_x0020_1">
  <metadata id="CorelCorpID_0Corel-Layer"/>
  <g id="_1703817171312">
   <path class="fil0" d="M7937.32 11373.09l1939.36 1959.32 337.62 2152.46 2791.6 1264.78c282.32,1040.21 890.65,1485.15 1340.65,2343.07 239.89,457.34 344.55,972.98 327.8,1577 -6.85,193.52 73.33,755.66 -46.17,892.86l-337.53 390.29 -4026.2 1724.34 -1795.46 906.16 -855.52 333.91 -4823.2 -1395.5 -612.11 -160.21c-201.47,-1516.71 -402.94,-3033.39 -604.41,-4550.1 132.73,-2215.8 -1946.35,-5107.43 398.2,-6647.41 1049.93,-707.4 2210.46,-505.54 2965.49,-672.29l2999.88 -118.68z"/>
   <path class="fil1" d="M6852.7 12889.38c1920.23,0 3476.89,1867.17 3476.89,4170.45 0,79.72 2027.77,145.9 4007.15,2014.29 521.33,492.1 778.8,3174.57 1304.55,3560.89 1397.59,1026.94 2721.08,240.74 3393.58,1053.38 911.6,1101.56 -3479.04,92.81 -2998.29,2388.86 150.91,720.69 -8020.45,1767.31 -5714.58,-2861.24 182.55,-366.45 335.5,-3130.54 244.77,-3569.13 -220.67,-1066.64 -3100.9,39.59 -4406.27,39.59 -1920.24,0 -2784.7,-323.36 -2784.7,-2626.64 0,-1011.53 431.81,-3298.09 931.19,-4020.14 637.71,-922.09 1468.79,-150.31 2545.71,-150.31z"/>
   <g>
    <path class="fil2" d="M16710.32 20748.07c7.9,492.66 41.86,462.68 304.68,740.18 397.05,-46.62 716.22,53.89 1107.92,53.43 352.75,-0.46 793.65,47.63 1157.69,-43.1 1046.85,-260.89 3010.5,-1375.13 1067.51,-1659.18 -610.99,-274.34 -1725.73,-575.4 -2017.2,-452.36l-706.17 254.25 388.65 -181.85c-535.68,314.04 -909.97,230.18 -1325.59,484.89 -149.44,-7.52 22.57,353.19 22.51,803.74z"/>
    <g>
     <path class="fil3" d="M19651.45 19856.98c88.54,-42.85 532.97,-96.27 696.67,-17.6 245.54,118 -166.44,257.18 -477.52,329.77 -26.13,6.11 -519.02,555.9 -552.48,565.5 -33.46,9.61 -109.73,35.58 -147.91,-97.41 -38.17,-133 291.6,-688.46 481.24,-780.26z"/>
     <path class="fil3" d="M20483.97 19926.92c88.54,-42.85 536.89,-103.9 696.67,-17.59 77.2,41.68 92.68,89.03 66.81,128.83 -83.76,128.92 -261.4,278.62 -450.12,459.54 -19.33,18.53 -594,442.07 -627.45,451.67 -33.46,9.61 -128.97,-109.2 -167.15,-242.19 -38.18,-132.99 291.6,-688.45 481.24,-780.26z"/>
     <path class="fil3" d="M19129.37 19655.96c89.16,-40.64 530.91,-103.44 690.05,-40.65 238.69,94.16 -174.05,230.7 -484.52,305.41 -26.08,6.28 -533.79,504.45 -567.25,514.06 -33.46,9.6 -109.87,35.05 -142.83,-79.74 -32.95,-114.79 313.55,-612 504.55,-699.08z"/>
     <path class="fil3" d="M16792.36 20943.09c30.17,-8.66 903,580.83 1457.38,580.66 735.2,-0.24 981.01,-186.13 1298.78,-303.29 197.54,-72.85 611.75,-220.73 994.35,-509.24 394.82,-297.73 685.52,-685.68 742.43,-640.69 61.89,48.92 202.13,337.2 77.28,575.62 -265.51,507.05 -2355.44,1231.46 -2447.21,1244.35 -878.38,123.19 -1427.31,-113.8 -1501.91,-129.02 -66.97,-13.66 -664.87,-223.5 -714.42,-396.07 -49.54,-172.57 27.62,-403.46 93.32,-422.32z"/>
    </g>
   </g>
   <path class="fil2" d="M10616.88 24639.43c-74.73,374.8 -90.95,473.3 85.11,812.53 394.5,64.77 751.38,133.01 1128,240.65 339.17,96.92 749.7,264.78 1124.64,278.02 1078.18,38.11 3342.17,-544.79 1553,-1353.97 -511.54,-432.26 -1569.06,-975.48 -1883.18,-937.64l-748.89 49.52 423.74 -67.53c-601.57,153.99 -938.14,-29.88 -1407.93,100.24 -141.54,-48.45 -315.93,597.39 -274.49,878.18z"/>
   <g>
    <path class="fil3" d="M13764.06 24495.1c96.92,-16.76 538.84,54.54 674.48,175.32 203.44,181.17 -230.95,201.27 -549.98,185.2 -26.81,-1.34 -652.27,391.1 -687.08,391.1 -34.81,0 -115.28,3.91 -115.28,-134.45 0,-138.36 470.25,-581.26 677.86,-617.17z"/>
    <path class="fil3" d="M14544.95 24792.05c96.92,-16.76 544.72,48.28 674.48,175.33 62.7,61.36 64.51,111.14 28.66,142.26 -116.08,100.8 -328.13,195.68 -559.45,317.49 -23.69,12.49 -692.91,261 -727.72,261 -34.81,0 -93.83,-140.54 -93.83,-278.91 0,-138.36 470.25,-581.26 677.86,-617.17z"/>
    <path class="fil3" d="M13317.71 24157.82c96.92,-14.46 538.84,47.08 674.48,151.33 203.44,156.38 -230.95,173.73 -549.98,159.86 -26.8,-1.15 -652.26,337.58 -687.08,337.58 -34.81,0 -115.28,3.38 -115.28,-116.05 0,-119.43 470.25,-501.72 677.86,-532.72z"/>
    <path class="fil3" d="M10716.27 24750.1c31.39,0 707.66,807.45 1240.56,960.27 706.73,202.64 994.29,91.79 1332.05,66.87 209.97,-15.52 648.9,-43.36 1096.27,-215.09 461.64,-177.22 848.11,-469.9 890.39,-410.95 45.99,64.1 101.24,379.88 -84.55,574.6 -395.12,414.09 -2603.8,533.69 -2695.57,520.75 -878.27,-123.97 -1340.49,-503.23 -1407.99,-538.44 -60.6,-31.61 -577.39,-398.29 -577.39,-577.83 0,-179.54 137.88,-380.18 206.23,-380.18z"/>
   </g>
   <polygon class="fil4" points="8406.87,10355.85 13317.17,8945.49 13376.85,9134.44 12077.6,14556.2 9053.98,15432.84 8129.94,15469.25 "/>
   <polygon class="fil5" points="8810.65,10578.68 13037.99,9364.48 13089.37,9527.15 11970.83,14194.82 9367.75,14949.53 8572.23,14980.87 "/>
   <polygon class="fil2" points="7675.76,11121.29 8298.81,12227.31 8025.52,13246.6 7516.85,12460.25 "/>
   <path class="fil6" d="M9206.53 15560.12l-429.05 -167.49 -834.41 342.15c-778,259.62 79.82,13.08 -999.63,324.24 -265.57,73.42 -517.46,301.45 -718.9,433.01 -531.05,346.86 -1022.51,895.87 -1383.52,1889.38 221.22,68.62 267.76,479.88 854.01,393.56l311.9 32.11 736.83 -67.35 704.94 -174.46 3583.07 71.48 76.17 243.99c247.9,228.85 -634.45,4618.86 -425.73,5336.96 50.09,172.3 2828.2,-96.3 2927.1,-108.32 135.38,-16.44 66.49,-65.81 -58.51,-523.89 -63.46,-232.58 -118.57,-761.91 -122.17,-812.9 -39.92,-562.03 -407.12,-915.23 -211.3,-1578.05 255.48,-864.69 65.87,-1924.31 245.06,-2378.87 123.74,-313.89 173.43,-280.31 185.82,-252.36 463.8,773.47 2260.38,925.68 2927.2,2205.6 195.62,530.66 2135.59,-570.4 2244.71,-1546.86 -262.15,-189.53 -522.2,-348.01 -862.17,-465.41 -293.59,-154.05 -2892.95,-2064.01 -4220.15,-3085.09 -461.92,-355.39 -747.49,-371.98 -1332.53,-344.71 -1038.61,48.43 -2146.33,165.11 -3198.74,233.28z"/>
   <path class="fil7" d="M12630.33 16847.36l327.52 604.92c-467.02,-108.78 -94.83,-188.45 -638.84,-147.6l271.91 -146.48 39.41 -310.84zm-7395.92 1723.7c254.38,453.51 1550.34,60.21 1986.98,-30.94 446.63,-93.23 745.34,-142.1 1063.55,-60.45 295.07,24.74 596.81,76.74 892.11,82.91l1806.4 21.7 125.65 212.45 259.82 -105.73c-52.68,153.22 -47.25,148.47 -196.41,253.08 -1.6,469 54.57,624.91 5.66,1104.6 -39.02,382.87 -78.1,780.25 -70.58,1169.11 331.16,-522.81 202.82,-1869.37 455.84,-2404.27 146.7,-310.12 338.04,-363.19 318.09,-701.47l-235.12 111.46c64.02,-431.42 792.46,-726.7 1142.58,-561.8 401.31,189 582.27,1090.49 408.91,1455.98l70.82 281.6c218.27,-308.24 150.72,-500.86 256.36,-852.34 409.5,428.8 1208.6,668.2 1827.36,1016.73 81.63,45.98 290.98,158.62 352.29,214.06 372.54,50.87 440.3,240.1 596.02,314.15 425.73,-98.37 -155.35,734.48 1133.39,73.71l196.09 -473.86 -189.74 -91.35c-98.87,876.66 -823.57,418.94 -1258.76,234.7 -768.13,-325.1 -1969.33,-1045.02 -2389.49,-1739.44 -297.21,-491.2 -234.34,-947.85 -655.98,-1333.62l-260.68 -24.74c-265.39,97.08 36.61,-20.82 -310.75,8.37 -316.95,434.57 -215.18,541.33 -805.09,663.27 -1641.04,339.26 -1933.48,451.1 -3522.65,862.12 -326.52,84.45 -924.89,308.76 -1283.18,179.3 -1362.75,-492.38 873.7,-1873.96 1400.67,-2050.66l1095.45 -436.85c-400.91,-184.47 -851.51,119.7 -1235.23,308.63 -479.95,236.32 -277.87,56.51 -592.65,123.88 -175.63,37.58 -438.1,157.37 -597.4,256.38 -382.13,237.52 -629.34,450.29 -919.43,775.76 -326.93,366.81 -643.58,868.37 -870.9,1143.57z"/>
   <path class="fil2" d="M5240.97 17553.22l-58.67 112.84c-80.51,208.78 -158.37,432.25 -318.06,559.37 -357.28,-283.38 -345.92,-875.36 -257.97,-1297.35 150.44,205.07 20.27,87.77 155.24,128.98 -8.68,-418.66 -172.64,-395.11 -352.97,-695.79l111.43 -265.2c134.63,184.71 143.9,417.86 406.92,593.3l-441.87 -1401.7 3565.79 -773.04 -35.52 849.14 -823.9 345.87c489.54,-39.4 848.52,-355.53 1376.63,-164.39 -621.44,248.61 -1340.2,405.24 -1925.27,731.06 -741.02,412.65 -873.37,707.46 -1401.78,1276.91zm3308.94 -3164.02c-16.31,228.71 -58.43,334.08 -95.62,544.71 -83.47,473.04 88.7,263.76 -228.81,416.54 -117.69,-241.27 -52.63,-736.49 52.27,-962.07l232.86 12.02 -102.1 -157.56c-1470.76,346.57 -2859.16,504.63 -4347.44,770.24l291.83 273.19c178.13,836.9 197.85,425.16 -80.93,1087.99 339.26,481.33 265.77,207.24 139.18,1360.37 18.31,50.78 67.98,175.06 70.11,174.31 106.1,271.97 158.6,573.84 491.88,550.95 248.82,-303.93 309.87,-774.74 667.71,-1179.88 317.51,-359.47 588.12,-594.46 1006.41,-856.8 174.35,-109.35 461.65,-241.66 653.89,-283.17 344.55,-74.41 123.36,124.19 648.7,-136.82 420.01,-208.66 913.26,-544.61 1352.05,-340.87 1043.55,-67.6 2141.95,-183.29 3171.82,-231.31 580.11,-27.04 863.28,-10.59 1321.31,341.8 306.8,236.03 647.38,533.21 812.93,887.93 323.73,113.58 2365.9,1980.06 3109.95,2331.46l382.4 146.64c-129.13,-165.43 -1684.2,-1338.98 -1911.57,-1504.61 -393.13,-286.37 -650.73,-424.08 -972.19,-697.78 -872.59,-743.01 -386.45,-394.24 -800.04,-777.19 -947.26,-877.11 -879.87,-884.38 -2294.13,-806.24 -754.3,41.68 -2303.14,236.78 -2967.85,72.17l1481.05 -604.1c-489.58,-13.15 -966.09,348.23 -1472.93,366.98 -174.25,209.44 -201.19,219.36 -489.1,201.2 -255.59,-338.37 -143.89,-434.73 -23.91,-825.77l572.49 -176.61 20.07 -231.25c-426.46,237.92 -141.95,185.45 -692.29,233.53z"/>
   <path class="fil3" d="M6878.17 13927.69c-3670.32,540.88 2994.01,-441.24 0,0zm-1727.71 -3391.31c-657.67,493.24 -1018.12,571.41 -1125.72,817.3 -23.5,437.49 -1903.22,2617.9 722.15,2519.53l431.77 80.4c-1279.46,-237.82 -396.21,1451.18 2892.78,-83.37 -30.19,-507.98 -64.97,-952.92 -167.19,-1451.24 -68.96,-336.26 -171.05,-865.58 -191.2,-1274.52 6.79,105.94 22.46,196.2 37.33,393.34 41.37,548.22 116.61,1371.67 264.53,1603.56 14.02,-8.89 266.52,-690.44 380.59,-930.3 17.36,-90.52 134.28,-47.83 -458.17,-837.99 -247.98,-399.34 -749.93,-376.24 -980.08,-509.99 -113.18,-65.75 -77.25,-223.59 -75.87,-382.63l-426.4 -62.03c-404.22,-14.65 372.59,161.24 -288.54,449.07l-268.19 -97.54c251.89,95.89 -44.62,76.56 92.22,-180.13 -560.25,-356.15 -535.29,-383.27 -840.01,-53.46z"/>
   <path class="fil8" d="M11285.38 24077.75c467.4,61.49 513.69,115.39 844.97,-192.47 -138.18,-452.19 422.02,-2421.31 579.7,-2933.18 187.73,-609.4 665.27,-2152.82 206.41,-2733.2 -1371.75,-160.24 -1433.92,3338.6 -1543.23,4225.73 -53.02,430.45 -264.21,1261.67 -87.85,1633.12z"/>
   <path class="fil9" d="M5507.98 11476.96c-162.26,469.18 215.57,650.84 333.55,1147.05 132.57,557.63 -49.75,877.31 -8.44,1382.29 269.78,338.57 759.76,348.27 1200.11,283.37 871.54,-128.44 554.07,-1338.25 436.66,-2288.36 -47.39,-383.38 -292.73,-807.11 -715.04,-776.17 -257.23,285.65 -40.29,264.35 -361.64,554.6 -361.25,-207.25 -483.28,-473.42 -885.2,-302.78z"/>
   <path class="fil10" d="M5176.29 17698.4c-36.95,23.28 49.13,-28.11 60.36,-117.15 543.6,-591.27 679.75,-897.36 1442.07,-1325.83 601.88,-338.3 1341.3,-500.92 1980.6,-759.06 -543.28,-198.46 -912.58,129.78 -1416.19,170.69l847.58 -359.12 36.54 -881.66 -3668.27 802.65 454.57 1455.39c-270.58,-182.17 -280.12,-424.24 -418.61,-616.03l-114.63 275.36c185.5,312.19 354.18,287.75 363.11,722.44 -138.85,-42.79 -4.94,79 -159.7,-133.92 -90.48,438.15 -102.17,1052.81 265.37,1347.04 164.28,-131.99 244.38,-364.01 327.2,-580.8z"/>
   <path class="fil11" d="M5182.34 17558.49l58.67 -112.83c26.59,-670.01 638.98,-1006.28 1141.76,-1352.36l-51.31 -302.75c686.53,-342.94 1319.67,-476.06 1343.43,-875.81 -573.46,-80.28 -867.98,208.2 -1385.9,321.38 -364.09,79.57 -1069.55,94.65 -1307.63,268.61 -167.24,573.3 161.56,593.41 470.92,910.19 -273.34,436.13 -782.27,751.45 -425.06,1240.42l155.12 -96.85z"/>
   <path class="fil12" d="M17313.33 19059.95c-744.05,-351.4 -2709.42,-2417.56 -3033.15,-2531.14l-247.13 -208.65c111.78,763.24 2978.4,2972.64 3296.86,3059.03 29.02,-264.33 176.75,41.49 -16.58,-319.24z"/>
   <path class="fil13" d="M3941.77 12390.07c229.08,-201.84 161.09,-565.25 291.77,-880.61 169.84,-252.7 149.59,-196.99 459.38,-243.71 -221.41,-148.14 -93.6,-32.79 -100.13,-129.03 199.6,-137.45 467.49,-319.47 573.71,-524.98 -332.76,165.75 -900.47,448.17 -1130.93,719.35l-93.8 1058.98z"/>
   <g>
    <path class="fil14" d="M4795.81 14127.72c24.82,-3.65 174.56,20.02 215.59,20.19 24.79,0.09 49.06,-4.16 73.33,-4.71 24.7,-0.48 47.49,-3.8 73.37,-5.07l966.53 -109.84c16.81,-2.9 23.24,-2.22 36.8,-3.52l295.39 -38.53c16.72,-2.3 20.08,-0.82 36.8,-3.19l894.21 -115.13c24.65,-4.21 133.82,-11.19 146.24,-23.88 5.28,-5.39 32.28,-63.57 41.52,-80.11 96.47,-172.65 244.11,-323.23 392.41,-457.69 52.4,-47.56 106.13,-76.68 158.55,-124.2 50.92,-46.17 192.87,-176.23 227.47,-224.17 15.91,-22.02 30.49,-55.39 43.74,-80.48 29.74,-56.33 47.84,-103.8 85.19,-161.42 42.24,-65.07 88.55,-99.17 139.94,-68.14 50.06,30.2 90.26,115.26 95.84,178.12 10.28,115.12 -32.08,242.7 -87.75,342 -83.61,149.08 -184.92,233.99 -208.13,319.15 24.68,41.77 42.29,47.32 71.29,54.51 14.74,3.63 24.73,6.06 39.54,9.12 18.09,3.75 22.93,1.49 40.02,4.2 53.01,8.43 101.95,14.66 155.89,19 200.7,16.23 465.17,31.45 646.38,-66.54 106.93,-57.8 226.93,-109.5 334.81,-145.97 95.4,-32.24 240.25,-57.29 315.99,36.44 83.38,103.2 83.03,213.81 -2.4,294.11 -38.45,36.1 -10.82,30.71 -38.82,91.67 -36.62,79.74 -113.37,131.83 -130.83,157.38 -3.27,4.75 -15.58,34.21 -20.38,44.11 -8.42,17.43 -13.11,27.36 -23.68,44.85 -18.81,31.11 -36.77,58.34 -59.27,86.9 -81.95,104.2 -140.58,155.53 -239.75,231.69 -29.51,22.68 -62.3,38.8 -87.13,59.96 6.98,3.05 92.94,-0.76 152.51,12.53 150.41,33.47 129.72,225.17 -42.86,257.97l-323.47 75.42c-136.83,39.39 -198.55,43.78 -322.61,66.7 -239.78,44.26 -462.48,16.51 -700.41,-37.28 -99.52,-22.42 -291.44,-91.36 -383.8,-124.31l-186.2 -77.97c-37.31,-18.48 -63.04,1.08 -123.35,18.39 -155.9,44.77 -475,114.45 -642.2,143.79l-239.09 42.07c-29.86,5.23 -50.86,5.51 -82.08,11.06 -131.53,23.25 -275.64,33.12 -398.15,53.68l-241.51 26.09c-173.32,20.51 -552.51,45.87 -713.27,48.03l-158.33 4.6c-20.35,0.35 -63.12,-1.84 -78.59,2.72 -26.43,-16.58 -89.15,-2.76 -116.68,-0.4 -39.47,3.38 -75.64,6.45 -114.62,10.75 -73.13,7.99 -176.23,-3.29 -222.55,8.63 -46,-134.38 -7.09,-307.72 -5.67,-420.98 77.86,-448.64 -58.28,-436.17 156.99,-413.97 32.92,3.4 132.93,18.89 157.24,11.67z"/>
    <path class="fil15" d="M4707.09 14129.87c25.35,-3.64 178.19,20.03 220.07,20.21 25.31,0.08 50.07,-4.17 74.85,-4.72 25.21,-0.49 48.47,-3.8 74.88,-5.08l986.58 -109.84c17.16,-2.89 23.72,-2.22 37.57,-3.52l301.51 -38.52c17.06,-2.3 20.49,-0.82 37.53,-3.17l912.79 -115.15c25.17,-4.21 136.59,-11.21 149.28,-23.89 5.39,-5.39 32.95,-63.55 42.39,-80.1 98.45,-172.64 249.16,-323.24 400.53,-457.71 53.49,-47.55 108.34,-76.66 161.85,-124.19 51.98,-46.17 196.85,-176.24 232.19,-224.18 16.24,-21.99 31.12,-55.38 44.64,-80.46 30.35,-56.34 48.83,-103.81 86.95,-161.42 43.12,-65.08 90.39,-99.17 142.86,-68.15 51.09,30.21 92.11,115.26 97.8,178.11 10.51,115.13 -32.73,242.72 -89.55,342.01 -85.34,149.08 -188.76,234 -212.45,319.16 25.19,41.76 43.17,47.31 72.77,54.5 15.04,3.64 25.25,6.06 40.35,9.13 18.48,3.74 23.42,1.49 40.84,4.19 54.12,8.44 104.07,14.66 159.14,19.01 204.87,16.22 474.83,31.45 659.79,-66.54 109.15,-57.8 231.63,-109.5 341.74,-145.97 97.38,-32.24 245.24,-57.29 322.55,36.43 85.1,103.2 84.76,213.81 -2.43,294.11 -39.26,36.11 -11.07,30.72 -39.65,91.67 -37.37,79.75 -115.72,131.84 -133.53,157.39 -3.33,4.74 -15.91,34.2 -20.81,44.1 -8.58,17.44 -13.38,27.36 -24.17,44.85 -19.2,31.12 -37.53,58.34 -60.49,86.91 -83.65,104.18 -143.5,155.52 -244.73,231.67 -30.12,22.69 -63.59,38.81 -88.94,59.98 7.12,3.05 94.88,-0.76 155.69,12.52 153.53,33.48 132.4,225.17 -43.77,257.97l-330.18 75.42c-139.66,39.4 -202.67,43.79 -329.28,66.72 -244.77,44.24 -472.08,16.49 -714.94,-37.28 -101.59,-22.43 -297.5,-91.37 -391.77,-124.32l-190.07 -77.99c-38.07,-18.48 -64.34,1.08 -125.9,18.4 -159.12,44.77 -484.85,114.46 -655.51,143.79l-244.06 42.07c-30.48,5.24 -51.91,5.53 -83.78,11.06 -134.26,23.25 -281.35,33.13 -406.39,53.69l-246.54 26.08c-176.91,20.51 -563.95,45.88 -728.05,48.04l-161.63 4.59c-20.77,0.35 -64.42,-1.85 -80.22,2.73 -26.98,-16.59 -90.99,-2.77 -119.09,-0.41 -40.29,3.38 -77.21,6.47 -117,10.76 -74.65,7.99 -731.24,-63.8 -778.51,-51.89 -46.96,-134.35 -0.54,-295.59 0.9,-408.85 12.46,-59.46 565.43,-324.62 574.34,-376.75 18.33,12.65 101.4,8.21 130.55,11.16 33.63,3.4 135.7,18.89 160.51,11.67z"/>
    <path class="fil16" d="M8193.79 13545.39c-78.43,64.36 -191.14,105.37 -311.17,240.81 -103.76,117.12 -85.49,82.01 -192.83,226.96 -36.49,49.26 -28.26,31.47 -19.76,89.65l-174.89 21.61c-174.56,13.2 -350.55,40.17 -523.62,53.73l-519.47 53.29c-281.91,29.88 -593.95,54.42 -871.23,88.92 -58.81,7.32 -114.58,9.74 -171.77,17.2l-437.8 44.77c-30.84,3.27 -65.7,44.58 -98.9,68.12l-1006.63 23.34c162.07,-172.4 1492.51,-234.77 1688.55,-257.8 478.3,-56.21 871.76,-107.93 1347.13,-186.59l672.43 -122.26c3.07,-96.65 46.94,-216.39 101.49,-312.23 112.28,-197.3 246.44,-253.55 393.91,-382.48 56.94,-49.79 88.13,-59.24 142.33,-82.87 85.34,-37.16 192.78,-76.94 277.07,-89.81 -5.2,103.41 -271.71,287.79 -319.36,369.33 -35.17,60.17 -16.06,79.12 24.52,136.31z"/>
    <path class="fil17" d="M8399.14 14116.07c-27.08,14.31 -68.88,18.4 -100.35,26.39l-299.42 77.88c-50.98,14.01 -349.99,60.24 -387.05,48.36 -92.28,30.66 -620.31,-108.5 -706.4,-202.91 117.28,-29.88 512.29,-156.68 706.62,-47.55 3.6,30.84 6.93,86.46 7.56,88.5 14.56,46.8 93.6,24.64 138.27,16.79 170.79,-30.03 546.28,-146.09 693.28,-118.89 11.16,2.05 24.28,5.55 35.64,13.6 8.42,5.98 13.34,10.65 17.14,18.26 28.32,56.76 -78.72,74.46 -105.29,79.57z"/>
    <path class="fil18" d="M8665.46 14825.31c37.08,11.94 336.07,-34.31 387.08,-48.3l299.42 -77.93c31.47,-7.99 73.24,-12.07 100.36,-26.34 39.04,12.24 112.14,-14.86 143.23,-41.7 92.72,-80 45.64,-180.81 -131.31,-177.93l-142.84 3.6c-1.02,-1.12 -2.58,-3.41 -3.46,-5.43 4.33,-18.07 -2.66,-6.34 11.88,-18.31l68.39 -37.59c35.49,-21.47 62.51,-39.12 94.81,-63.65 65.36,-49.69 -664.25,122.75 -603.85,57.14 56.8,-40.62 795.34,-250.44 932.16,-450.16 8.23,-11.34 33.65,-27.16 48.69,-43.06 45.36,-47.83 70.67,-94.98 71.09,-96.02 -72.64,10.68 -284.74,31.01 -324.81,45.85 -122.77,45.39 -236.39,93.47 -353.06,146.6 -122.41,55.74 -225.6,67.39 -343.94,82.45 -63.11,8.05 -298.14,33.14 -329.81,-18.19 31.55,-27.49 135.8,-20.9 192.89,-26.39 66.27,-6.4 128.42,-3.82 195.87,-14.27 188.44,-29.05 221.58,-41.13 403.75,-109.25 156.12,-58.39 337.07,-122.76 504.79,-173.46 28.79,-8.68 82.32,-18.5 96.77,-62.8 18.32,-56.11 -31.65,-157 -144.01,-155.95 -34.18,0.31 -64.53,10.56 -99.19,17.49 -59.02,11.85 -45.32,28.2 -96.14,-2.87 -5.78,-3.56 -18.69,-12.42 -22.91,-13.76 -35.32,-11.41 -148.01,66.07 -179.82,85.53 -95,58.18 -75.87,73.04 -206.63,118.46 -197.37,68.47 -794.84,31.16 -965.67,-88.7 -40.6,-57.17 -59.71,-76.1 -24.52,-136.27 47.64,-81.55 314.16,-265.92 319.36,-369.35 -84.3,12.87 -191.73,52.63 -277.07,89.85 -54.2,23.61 -85.39,33.02 -142.35,82.87 -147.47,128.89 -281.63,185.14 -393.91,382.44 -54.52,95.86 -98.42,215.58 -101.44,312.25l-672.45 122.24c-502.64,83.21 -2757.54,116.16 -3091.74,326.54 -11.55,66.94 -20.84,229.91 124.56,345.4 68.78,54.61 349.65,77.74 353.17,113.67l1418.9 -33.45c194.47,-7.4 775.66,-92.93 931.21,-119.94 80.54,-13.97 161.94,-25.09 246.29,-40.64 45.56,-8.44 90.26,-22.83 124.48,-26.76l494.36 -119.52c1.36,-0.12 3.01,-0.22 4.33,-0.24l475.76 179.25c49.89,7.5 69.85,29.76 122.04,32.08l86.56 20c61.05,26.41 51.21,5.74 91.73,16.08 16.71,4.27 10.17,7.08 26.85,9.82l180.76 13.68c11.36,0.74 18.9,1.35 32.28,0.33 20.51,-1.59 43.22,1.28 67.11,-5.39zm-4983.97 -1298.81c37.71,-12.4 323.81,7.87 603.18,88.38 284.17,81.91 561.7,224.3 593.25,231.8 17.22,4.1 -113.18,293.9 -98.5,291.67 26.84,3.86 47.88,6.46 73.23,8.39l144.18 14.87c24.84,0.1 49.05,-4.17 73.35,-4.68l146.7 -9.72c52.16,-6.81 100.36,-11.26 151.43,-16.32l594.08 -69.73c12.91,-1.22 24.13,-4.31 37.02,-5.59l110.68 -13.54c151.39,-26.03 363.51,-38.59 520.79,-65.61l332.22 -42c16.69,-2.42 20.07,-0.89 36.74,-3.19 65.77,-9.09 505.15,-58.69 519.65,-73.49 5.33,-5.43 32.28,-63.57 41.55,-80.08 96.47,-172.64 244.1,-323.23 392.39,-457.73 52.41,-47.53 106.16,-76.64 158.55,-124.19l157.13 -149.87c31.06,-31.17 45.58,-39.95 70.36,-74.27 15.88,-22.06 30.5,-55.4 43.75,-80.49 29.74,-56.39 47.82,-103.82 85.18,-161.41 126.72,-195.41 227.92,21.85 235.79,109.98 16.18,181.59 -92.02,370.43 -190.59,499.32 -52.17,68.33 -84.15,84.25 -105.29,161.83 24.68,41.77 42.26,47.28 71.25,54.46 14.76,3.68 24.81,6.08 39.55,9.13 18.15,3.76 22.95,1.54 40.04,4.25 53.03,8.35 101.92,14.61 155.89,18.99 200.7,16.24 465.15,31.4 646.35,-66.58 106.93,-57.8 226.98,-109.48 334.83,-145.93 95.39,-32.29 240.24,-57.33 316.01,36.43 83.37,103.21 83.02,213.83 -2.42,294.07 -38.47,36.11 -10.8,30.76 -38.77,91.69 -36.66,79.77 -113.4,131.88 -130.89,157.37 -3.25,4.8 -15.59,34.22 -20.36,44.16 -8.44,17.38 -13.14,27.32 -23.69,44.84 -18.8,31.11 -36.78,58.29 -59.26,86.91 -81.95,104.19 -140.6,155.49 -239.75,231.68 -29.52,22.69 -62.29,38.81 -87.13,59.97 6.95,2.99 92.95,-0.77 152.51,12.53 150.42,33.46 129.7,225.13 -42.85,257.96l-323.49 75.43c-136.84,39.33 -198.54,43.76 -322.6,66.64 -239.81,44.27 -462.48,16.48 -700.4,-37.23 -99.51,-22.48 -291.44,-91.36 -383.8,-124.31l-186.2 -77.97c-37.31,-18.48 -63.05,1.08 -123.36,18.4 -155.91,44.73 -474.99,114.44 -642.2,143.79l-239.12 42.02c-29.87,5.23 -50.83,5.56 -82.07,11.06 -131.48,23.26 -275.61,33.16 -398.14,53.7l-241.5 26.04c-173.35,20.53 -552.5,45.94 -713.27,48.1l-239.26 9.35c-27.75,-14.21 -138.77,3.39 -179.57,7.32 -30.09,2.82 -60.61,7.03 -90.11,9.27 -1393.09,108.7 -1301.89,239.1 -973.04,-1437.87z"/>
    <path class="fil16" d="M8275.25 13594.99c-93.35,59.59 -227.51,97.57 -370.37,222.96 -123.52,108.44 -101.75,75.93 -229.54,210.13 -43.43,45.62 -33.65,29.15 -23.52,83.01l-208.2 20.02c-207.75,12.2 -417.27,37.18 -623.25,49.75l-618.35 49.32c-335.59,27.67 -707.01,50.4 -1037.07,82.35 -69.99,6.77 -136.37,9.01 -204.45,15.92l-521.14 41.45c-36.69,3.01 -78.18,41.27 -117.73,63.07l22.31 -31.31c192.93,-159.61 556.06,-164.45 789.42,-185.77 569.34,-52.05 1037.7,-99.92 1603.53,-172.77l800.43 -113.19c3.64,-89.49 55.87,-200.35 120.78,-289.07 133.67,-182.69 293.36,-234.77 468.89,-354.15 67.79,-46.08 162.04,-115.35 226.59,-137.2 50.01,-90.53 145.42,-269.64 245.75,-281.55 262.76,72.23 -296.53,525.34 -353.25,600.85 -41.86,55.7 -19.11,73.24 29.17,126.18z"/>
    <path class="fil17" d="M9187.53 14252.17c-27.08,14.31 -68.88,18.39 -100.36,26.39l-299.41 77.87c-50.99,14.02 -350,60.24 -387.07,48.37 -92.26,30.65 -620.29,-108.49 -706.38,-202.9 45.25,-11.54 57.58,-26.07 78.74,-56.37 17.95,-25.69 15.81,-12.36 36.97,-32.32 19.74,-18.62 15.15,-16.36 42.82,-27.45 40.2,-16.09 25.18,-46 74.83,-60.15 37.68,-10.74 48.83,-42.57 90.59,-51.49 58.85,-12.56 30.46,-33.61 89.38,-42.01 34.95,-4.99 56.37,-18.9 88.39,-39.9 55.88,-36.66 24.05,-22.69 88.62,-26.77l65.67 -9.67c22.51,0.3 4.95,-5.39 25.57,6.21 7.95,67.89 -53.93,56.37 25.76,191.06 51.77,87.5 -20.72,101.22 6.83,189.8 14.56,46.78 93.61,24.63 138.27,16.78 170.78,-30.03 546.28,-146.09 693.3,-118.89 11.16,2.06 24.27,5.55 35.62,13.6 8.43,5.98 13.35,10.66 17.14,18.26 28.32,56.75 -78.71,74.47 -105.28,79.58z"/>
   </g>
   <g>
    <path class="fil15" d="M12726.86 11376.93c99.03,0 341.87,-56.64 340.65,197.22 -1.22,253.86 -156.13,614.53 -249.47,630.67 -10.83,1.87 74.72,307.71 -162.39,624.23 -92.28,123.16 -32.69,197.83 -78.86,238.85 -26.06,23.16 -211.17,97.97 -290.7,36.21 -76.07,-59.08 40.95,-173.29 68.11,-240.7 15.69,-39 -48.96,-106.98 -41.51,-177.79 12.92,-122.91 89.85,-146.98 79.18,-150.97 -12.69,-4.71 -38.44,-138.89 5.51,-242.35 34.21,-80.54 140.7,-135.5 134.3,-141.96 -83.94,-84.51 8.6,-284.01 83.13,-396.9 134.46,-203.62 13.03,-376.51 112.05,-376.51z"/>
    <path class="fil19" d="M12815.35 12201.48c-1.88,3.26 -83.23,6.9 -144.22,-4.5 -60.99,-11.39 -138.85,-38.59 -140.95,-42.39 -2.11,-3.81 54.82,2.8 101.18,16.34 46.37,13.54 185.86,27.29 183.99,30.55z"/>
    <path class="fil19" d="M12807.98 12494.79c-2.46,3.25 -157.84,94.77 -237.74,83.39 -79.89,-11.39 -181.91,-38.59 -184.65,-42.39 -2.75,-3.8 125.07,28.55 240.15,16.35 115.09,-12.2 184.7,-60.61 182.24,-57.35z"/>
    <path class="fil19" d="M12630.02 12868.37c-1.9,1.86 -110.71,46 -161.08,31.05 -50.38,-14.95 -113.49,-42.2 -114.9,-44.91 -1.4,-2.71 77.84,30.31 153.13,33.42 75.29,3.12 124.74,-21.43 122.85,-19.56z"/>
   </g>
   <polygon class="fil2" points="4877.92,13846.68 5178.66,13953.61 4835.45,13980.04 "/>
   <polygon class="fil4" points="3681.48,13526.5 3492.54,13557.87 3646.71,13689.04 "/>
   <path class="fil15" d="M8393.71 12214.87l-19.13 382.2 -18.13 335.05c-14.42,19.33 -27.43,56.62 -50.4,70.61l-134.08 122.95 -51.15 50.15 -95.3 70.77c51.05,-176.79 87.56,-384.11 150.7,-562.1l217.49 -469.63z"/>
   <path class="fil20" d="M5133.14 13951.48c1.48,-1.3 634.15,-1504.51 327.61,-1458.58l-327.61 1458.58z"/>
   <path class="fil21" d="M12947.44 16572.86l-289.89 -189.82c-220.64,140.7 -396.64,356.2 -624.86,450.93 -385.36,159.96 -2098.36,428.84 -2608.23,535.92 -684.37,143.74 -2704.25,685.44 -3132.16,139.97 459.87,-754.86 1303.83,-788.13 1654.47,-1248.15 -582.91,162.86 -3056.62,1436.17 -1549.29,1889.96 396.31,119.31 1058.17,-87.42 1419.33,-165.25 1757.78,-378.81 2081.24,-481.89 3896.41,-794.55 652.5,-112.39 539.93,-210.79 890.5,-611.3 384.19,-26.9 50.17,81.76 343.72,-7.71z"/>
   <path class="fil4" d="M12591.93 17150.76l-297.63 161.78c595.46,-45.11 188.07,42.88 699.27,163.03l-358.5 -668.12 -43.14 343.31z"/>
   <ellipse class="fil22" transform="matrix(-0.931335 0.413016 -0.148247 -0.894042 11041.5 10612)" rx="178.59" ry="234.82"/>
   <ellipse class="fil23" transform="matrix(-0.465668 0.206508 -0.0741233 -0.447021 11041.5 10612)" rx="178.59" ry="234.82"/>
   <path class="fil24" d="M8523.09 8120.7c-28.59,161.92 -48.17,327.41 -87.47,478.01 -38.36,147.06 -98.64,284.13 -167.39,399.73 -113.51,190.87 -118.14,180.59 -233.81,332.39 -40.49,53.09 -88.35,95.75 -130.23,148.98 -34.78,44.22 -99.05,102.68 -141.35,145.11l-105.96 99.64c-16.89,15.06 -23.03,16.35 -40.15,33.24 -15.29,15.11 -18.43,19 -34.57,31.53 -104.59,81.25 -138.51,121.87 -278.57,213.04 -258.29,168.14 -544.08,267.67 -859.3,267.66 -64.49,0 -225.45,-4.14 -262.58,-22.19 0,35.21 -113.54,3.94 -115.68,32.31 -7,39.15 -13.35,222.56 -15.4,270.08 33.02,83.58 192.1,47.31 218.1,106.45 34.3,78.03 51.08,165.99 48.68,261.98 -59.45,196.49 -135.64,264.93 -425.72,282.23 -47.52,-22.88 -189.41,-26.39 -206.42,-56.84 -14.92,-26.72 -137.67,-71.28 -145.03,-101.04 -1.67,-6.77 -175.76,-252.74 -205.39,-414.87 -16.17,-47.48 49.2,-430.45 54.56,-469.76l259.7 103.6c42.97,15.49 121.04,36.32 165.9,41.31l7.7 -129.41c-23.26,-14.85 -84.71,-33.78 -120.24,-45.21 -67.1,-27.73 -311.77,-146.24 -359.56,-148.64l-375.16 -209.69c-56.75,-34.43 -313,-205.82 -340.84,-247.25 -25.29,-39.25 -50.92,-54.72 -80.13,-80.42 -44.31,-38.96 -101.89,-110.68 -141.91,-159.21l-323.83 -430.08c-77.61,15.78 -110.42,57.04 -216.78,36.08 -177.7,-35 -302.88,-238.16 -368.62,-392.68l-151.49 -364.06c-66.67,-131.03 -113.66,-203.37 -142,-364.41 -19.16,-108.73 -4.11,-232.57 90.87,-294.07 181.86,-117.79 292.99,7.08 385.94,155.93 159.07,254.72 186.53,559.41 259.13,764.39 12.7,-14.18 14.19,-21.2 14.92,-54.46 0.37,-16.7 -0.3,-35.12 -0.35,-52.04 -0.12,-34.85 -0.14,-68.91 0.99,-103.74 2.19,-68.6 4.59,-135.26 9.54,-204.78 20.54,-288.62 16.8,-541.36 2.3,-830.5 -24.87,-495.71 -67.89,-332.27 75.27,-514.34 32.18,-40.93 61.06,-72.77 91.83,-113.94 200.57,-268.44 319.42,-466.04 463.22,-787.51 354.24,-7.81 704.61,-151.97 972.59,-344.29 44.46,-31.92 227.22,-169.6 236.55,-195.14 -58.86,183.97 -189.37,319.13 -328.59,426.37 -34.73,26.75 -122.35,80.53 -135.8,116.45 77.01,36.67 450.48,-75.01 530.52,-106.85 61.6,-24.49 394.76,-186.4 407.72,-227.52 -20.83,74.57 -497.97,448.48 -500.2,537.24 -28.84,87.31 -7.94,177.05 647.7,37.54 263.57,-3.82 379.44,2.38 870.95,-106.83 45.12,-5.82 240.72,-104.66 281.93,-128.33 45.05,-25.88 87.37,-50.12 127.03,-78.69 119.51,-86.12 214.97,-180.36 298.51,-312.74 93.11,-147.57 90.06,-218.09 122.76,-280.19 0.27,5.73 73.74,97.23 91.86,122.96 28.34,40.24 57.99,90.78 81.82,138.2 113.05,224.99 165.04,478.46 164.31,738.12 -0.11,39.67 -49.84,248.95 -61.08,391.68 -43.88,557.49 37.28,759.91 94.36,1242.87 5.92,50.17 24.23,416.35 24.34,416.6z"/>
   <path class="fil25" d="M8457.85 8250.81c-0.11,-0.26 -18.43,-366.44 -24.35,-416.62 -57.07,-482.95 -138.23,-685.36 -94.36,-1242.85 11.24,-142.73 60.97,-352.01 61.08,-391.69 0.73,-259.66 -51.25,-513.14 -164.3,-738.12 -23.83,-47.42 -53.48,-97.96 -81.82,-138.2 -18.13,-25.73 -91.59,-117.23 -91.86,-122.97 -32.7,62.11 -29.65,132.63 -122.77,280.2 -337.84,535.38 -1016.46,936.49 -1587.09,932.65 -193.12,-1.26 -1215.43,-9.34 -1275.42,-46.13 -94.88,-65.73 682.62,-550.19 807.82,-633.74 -41.06,23.62 -40.81,21.35 -78.94,26.55 -45.52,4.37 -530.08,72.22 -607.1,35.55 -15.88,-11.07 -5.17,-8.71 30.1,-32.44 155.47,-125.77 75.8,-101.81 287.41,-278.68 12.14,-7.19 -15.08,-5.07 -20.56,-3.97 -36.49,7.27 -48.23,31.98 -88,51.76 -243.59,127.11 -522.88,323.42 -877.12,331.23 -143.81,321.48 -262.66,519.08 -463.23,787.52 -30.76,41.17 -59.64,73 -91.83,113.94 -19.99,224.84 -22.9,303.84 1.97,799.56 14.5,289.14 -4.25,383.2 -24.79,671.82 -4.95,69.52 6.51,88.36 4.31,156.95 -13.61,423.14 -340.05,-627.61 -343.28,-632.87 -92.96,-148.84 -204.08,-273.71 -385.95,-155.92 -48.57,98.96 -34.62,105.88 -15.47,214.62 75.29,265.37 151.6,309.17 218.26,440.19l339.44 594.38c221.01,92.28 148.81,-14.58 326.52,20.43 106.36,20.95 61.93,169.23 139.53,153.46l273.3 378.44c40.02,48.53 89.27,95.48 133.59,134.46 29.22,25.69 -11.37,29.98 -81.28,112.87 -236.32,0 -384.29,-48.34 -578.22,-129.9 -213.9,-89.97 -445,-299.5 -589.94,-481.59 -15.13,-19 -41.33,-57.95 -56.06,-68.89 2.85,34.64 14.31,86.19 21.89,118.33 7.4,31.42 20.6,82.12 14.58,110.93 -47.82,-4.04 -102.51,-71.28 -132.97,-101.84l-342.78 -362.41c-131.26,-151.36 -256.81,-366.28 -329.63,-553.23l-18.84 -40.07c-19.37,84.33 20.88,230.28 7.29,244.05 -48.82,49.5 -247.5,-197.41 -274.91,-231.56 -19.78,-24.64 -35.59,-47.75 -53.32,-71.64 -223.53,-301.15 220.47,-1084.29 220.47,-1511.95 -73.79,54.81 -270.25,283.1 -335.76,346.1 -76.31,-51.8 -170.21,-247.2 -183.01,-334.72 175.12,-375.45 -229.64,-184.88 -176.78,-356.67 22.92,-74.46 44.57,-148.56 81.51,-213.17 11.02,-19.27 30.04,-43.6 36.16,-66.87 -102.07,54.76 -377.05,77.53 -408.46,-59.17 54.73,-58.5 175.52,-36.7 253.89,-104.96 2.62,-2.29 13.4,-12.13 15.34,-14.02 129.01,-126.3 177.27,-466.38 233.15,-643.66 36,-114.23 68.23,-213.92 109.27,-318.14 82.91,-210.51 189.5,-362.96 334.74,-511.08 68.86,-70.23 151.86,-139.13 235.57,-190.09 68.83,-41.91 200.58,-121.11 284.14,-140.85 -33.99,-129.06 -361.05,-84.91 -444.94,-125.72 17.36,-65.92 356.61,-199.25 574.29,-153.34 74.71,15.76 137.88,62.75 177,71.99 0,-106.4 98.72,-259.34 151.4,-319.8 64.19,-73.66 171.62,-190.48 278.94,-190.48 5.52,26.41 5.64,29.17 -11.17,54.87 -80.36,122.81 -205.08,209.57 -163.88,388.85 39.64,-26.91 78.74,-91.1 114.87,-127.58 101.85,-102.83 217.95,-191.82 338.76,-270.35l76.53 -48.13c54.84,-30.86 100.26,-58.44 155.48,-86.41 169.58,-85.91 342.46,-156.61 524.31,-215.34 913.42,-295 1044.83,423.08 2284.06,506.81 206.16,116.3 905.93,60.97 1089.72,208.3 129.49,103.8 271.5,245.48 431.68,301.86 179,63 369.89,58.08 459.68,-131.41 13.26,-27.98 5.36,-27.03 31.9,-34.21 45.42,30.83 28.96,126.22 29.23,177.53 0.86,170.01 -70.75,323.43 -204.29,414.1 44.8,67.82 113.29,99.34 222.96,284.22 68.78,115.95 110.49,217.26 155.43,352.69 46.02,138.7 64.65,275.11 85.39,423.71 12.57,90.03 21.89,417.79 3.04,499.81 -36.06,-9.77 -42.21,-72.23 -56.13,-105.79 -16.66,-40.13 -34.44,-70.28 -55.54,-106.38 -30.9,-52.85 -95.41,-143.97 -143.62,-179.79 1.86,8.09 78.67,215.68 103.61,316.49 28.12,113.71 53.57,243.48 57.1,363.65 7.11,241.7 -14.86,445.71 -70.15,668.9 -7.72,31.2 -11.66,63.01 -32.2,78.28 -28.45,-21.14 -54.26,-246.42 -62.74,-283.98 -18.29,-81.04 -36.09,-172.38 -81.13,-243.15 -8.61,-13.53 -2.91,-5.28 -9.31,-12.74 2.09,94.99 25.66,161.42 13.52,272.55 -52.38,479.54 -222.26,771.79 -391.78,1200.19l-73.97 220.81c-9.38,33.99 -18.49,81.15 -29.18,113.68z"/>
   <path class="fil26" d="M4008.61 8303.64c0.57,76.51 -4.06,137.79 -48.05,194.97 -189.34,6.9 -73.9,-170.22 -43.18,-202.91 21.15,-22.5 56.71,-39.49 90.87,-45.4l0.36 53.34z"/>
   <g>
    <path class="fil27" d="M6217.17 10788.64c73.49,-211.65 24.75,-77.26 -14.84,-185.97 -46.08,-19.69 95.68,-45.32 43.53,-35.02l-300.28 241.44c-135.91,30.1 -543.57,-40.79 -457.68,57.13l24.64 33.02c18.46,23.36 19.68,24.82 96.31,113.52 366.31,313.03 484.71,131.53 608.32,-224.12zm-1004.54 834.05c-48.85,-110.23 -371.59,-513.14 -404.31,-648.56 22.88,-65.72 -17.08,-238.69 20.65,-294.69 63.64,-314.92 69.06,-339.95 309.38,-523.07l33.78 -23.03c58.43,-39.87 385.47,106.18 642.86,169.95 263.19,65.12 914.3,60.16 1066.38,177.18 30.33,136.01 21.29,280.17 12.62,401.88 -32.46,126.69 -25.01,240.15 -97.97,295.56 -24.47,77.04 -200.77,225.79 -310.33,262.58 -0.48,0.59 -412.4,-248.5 -474.66,-251.47l-798.4 433.67z"/>
   </g>
   <path class="fil15" d="M8414.57 8093.84c-28.58,161.91 -48.16,327.39 -87.48,478.02 -38.37,147.07 -98.66,284.11 -167.36,399.73 -113.55,190.83 -118.13,180.58 -233.81,332.35 -40.5,53.14 -88.39,95.76 -130.27,149.01 -34.74,44.19 -99.03,102.67 -141.33,145.08l-105.95 99.65c-16.92,15.11 -23.04,16.35 -40.17,33.29 -15.27,15.05 -18.41,18.93 -34.54,31.51 -104.61,81.25 -138.51,121.87 -278.56,213.05 -258.3,168.12 -544.1,267.66 -859.33,267.61 -64.5,0 -225.47,-4.1 -262.55,-22.18 0,35.23 -5.06,30.81 -7.19,59.19 -7.82,43.81 -20.8,330.78 66.94,285.67 59.6,-30.64 142.93,21.69 156.29,52.07 89.71,204.21 -200.08,518.75 -514.99,537.52 -96.37,-5.34 -322.1,-56.65 -342.53,-139.25 -1.71,-6.8 -175.76,-252.76 -205.4,-414.89 -16.18,-47.48 36.87,-28.65 113.18,-53.41l315.5 -44.84c42.94,15.49 47.62,-160.18 51.45,-226.6l7.72 -129.43c-23.25,-14.83 -84.71,-33.72 -120.21,-45.21 -67.15,-27.68 -311.82,-146.21 -359.61,-148.64l-375.15 -209.66c-56.72,-34.42 -312.99,-205.82 -340.82,-247.26 -25.28,-39.22 -50.93,-54.71 -80.14,-80.39 -44.33,-39 -101.9,-110.71 -141.92,-159.26l-323.85 -430.06c-77.59,15.76 -110.36,57.03 -216.73,36.1 -177.74,-35.02 -302.89,-238.2 -368.66,-392.67l-151.5 -364.06c-66.62,-131.05 -113.61,-203.41 -141.97,-364.45 -19.16,-108.72 -4.1,-232.54 90.89,-294.04 181.83,-117.78 292.99,7.07 385.9,155.92 159.1,254.71 186.56,559.43 259.14,764.39 12.72,-14.18 14.21,-21.2 14.95,-54.49 0.32,-16.67 -0.32,-35.12 -0.37,-52.01 -0.11,-34.85 -0.16,-68.89 0.96,-103.75 2.23,-68.57 4.63,-135.26 9.58,-204.75 20.54,-288.64 16.76,-541.41 2.28,-830.53 -24.85,-495.72 -67.89,-332.24 75.3,-514.33 32.14,-40.95 61.04,-72.78 91.79,-113.95 200.61,-268.41 319.44,-466.04 463.22,-787.48 354.29,-7.83 704.64,-151.99 972.62,-344.33 44.43,-31.88 227.22,-169.57 236.53,-195.14 -58.86,183.98 -189.33,319.13 -328.59,426.38 -34.7,26.76 -122.34,80.55 -135.8,116.43 77,36.69 450.5,-74.99 530.53,-106.82 61.62,-24.5 394.73,-186.41 407.71,-227.52 -20.8,74.56 -497.96,448.45 -500.19,537.26 -28.84,87.29 -7.93,177.01 647.7,37.55 263.56,-3.83 379.46,2.37 870.93,-106.88 45.12,-5.77 240.73,-104.62 281.97,-128.3 45.02,-25.9 87.38,-50.12 127.02,-78.72 119.52,-86.1 214.98,-180.36 298.47,-312.7 93.12,-147.62 90.09,-218.13 122.81,-280.23 0.27,5.77 73.7,97.28 91.85,122.96 28.31,40.24 58,90.8 81.79,138.22 113.07,224.98 165.06,478.45 164.32,738.12 -0.11,39.66 -49.86,248.94 -61.09,391.69 -43.85,557.49 37.3,759.92 94.35,1242.85 5.96,50.17 24.26,416.34 24.37,416.61z"/>
   <path class="fil28" d="M6725.77 9845.38c-34.98,-3.28 -62.13,-6.87 -106.89,-7.45 -48.26,-0.63 -63.32,-10.67 -101.95,-13.54 -58.96,-4.39 -177.26,-6.88 -227.3,-6.42l-118.36 52.29c-17.8,18.09 21.48,-2.9 -25.84,19.93 -20.7,9.97 -17.74,2.41 -33.94,31.04l-37.12 32.19c-0.08,0.1 -27.52,96.12 -16.45,114.78 17.56,29.62 109.45,94.27 152.87,98.46 105.95,10.25 198.28,37.8 328.07,23.81 27.19,-2.92 76.96,-4.46 108.64,-9.4 30.15,-4.71 59.93,-19.36 95.67,-21.34l0.62 -9.15c6.52,-14.28 -26.36,10.58 4.54,-5.38l80.38 -10.91c29.04,-7.08 3.89,-8.99 39.76,-12.5 -9.1,-7.95 -9.95,-11.1 -33.92,-11.85 64.41,-4.4 60.12,-31.16 107.48,-52.2l21.11 -8.65c135.82,-56.38 46.1,-41.42 110.42,-126.55 9.31,-12.31 8.61,-4.41 12.95,-23.82 5.63,-25.22 -7.91,-40.95 -17.11,-53.45l-34.02 -35.93c-67.43,-51.42 -45.57,-26.63 -120.86,-49.21 -69.31,-20.81 -173.81,-12.89 -261.79,-12.68 20.79,19.03 2.12,0.57 24.67,16.94 1.44,1.04 3.17,2.22 4.57,3.28 40.07,30.54 46.76,39.93 43.8,77.71zm353.78 -493.97c-157.35,-25.03 -508.62,-36.4 -710.27,-61.19 -96.11,-11.8 -414.74,-51.79 -496.49,-88.96 -55.19,-25.09 -75.95,-49.48 -92.39,-108.68 6.54,4.99 25.77,50.66 38.39,65.33 76.09,88.53 422.16,244.58 541.97,290.43 257.27,98.49 304.46,66.93 552.77,-37.66 27.44,-11.56 52.87,-22.36 82.82,-34.56l62.98 -26.14c34.81,-8.45 10.55,-7.37 20.22,1.43zm978.34 -1034.44c116.11,-35.85 78.18,-445.44 58.22,-567.93 -15.6,-95.69 -42.98,-183.32 -76.65,-260.98 -42.74,-98.62 -134.65,-175.62 -225.21,-225.93 -306.23,-170.1 -532.72,189.39 -532.86,499.26 -24.58,23.39 5.1,291.3 14.06,346.56 9.58,59.02 16.59,94.08 29.43,147.26 18.44,76.37 18.63,72.48 69.52,109.14 29.95,21.59 69.03,55.66 106.47,67.52 170.96,54.14 477.1,-8.91 557.02,-114.9zm-2386.97 -1613.73c-145.05,-34.03 -236.31,-67.37 -406.73,-48.6 -244.03,26.89 -421.66,162.24 -538.86,370.23 -45.33,80.46 -123.97,269.01 -49.32,353.03 85.37,45.53 228.49,-267.86 466.73,-403.25 263.78,-149.89 620.57,29.16 657.45,95.75 -15.15,19.88 11.57,13.53 -21.73,59.65 -72.82,-44.44 -149.96,-85.28 -244.47,-111.34 -69.09,-19.05 -236.11,-51.43 -301.47,4.94 32.91,9.44 6.69,8.83 45.69,27.48 13.39,6.41 -0.02,-1.29 10.5,4.13 9.99,5.16 3.67,-0.05 13.03,8.26 15.63,13.92 5.2,8.04 12.98,16.17l31.99 20.4c104.78,45.24 -25.47,27.52 108.23,82.64 1.73,0.73 3.68,1.39 5.45,2.05 25.14,9.32 -9.21,-3.6 11.35,3.44 28.72,9.84 21.74,8.82 47.92,31.81 64.99,57.05 -1.49,47.16 70.48,68.94 204.68,61.98 164.42,73.65 142.28,144.24l-89.78 -50.76c-157.52,-84.36 -391.18,-52.54 -476.91,51.21 -13.14,15.9 -19.29,20.78 -34.17,32.86 -41.63,33.76 -79.67,119.23 -100.55,168.67 -108.87,257.88 -84.87,646.7 -1.72,959.66 -156.91,-41.21 -142.72,-49.47 -321.11,-49.47 17.73,20.36 6.75,12.29 31.78,21.04 79.21,27.72 140.28,2.27 373.79,123.76l125.34 72.25c17.48,12.87 20.56,16.51 38.07,27.57l112.39 85.2c31.04,27.46 1.99,17.65 47.45,30.29 -24.15,-40.75 -22.09,-49.61 -54.95,-74.22 -33.6,-25.14 -18.92,-34.74 -55.93,-56.29 100.75,17.44 224.91,11.86 323.3,-12.99 32.22,-8.14 65.57,-23.6 91.62,-27.19 -6.85,28.09 1.52,28.47 15.39,48.6 33.2,48.28 68.1,115.36 118.1,176.55 13.46,16.46 21.81,22.29 34.39,38.87l88.63 95.22c1.49,1.57 5.72,6.14 7.3,7.63 4.33,4.06 4.3,4.16 12.3,10.22 149.64,113.44 9.84,64.23 404.86,105.51l785.13 91.46c109.33,11.76 175.59,21.55 221.71,-53.51l14.54 33.56c29.76,-13 62.75,-34.03 89.46,-44.44 21.12,-8.25 16.01,-1.36 44.66,-5.55 26.2,-3.83 29.78,-9.28 52.79,-7.25 14.03,1.23 33.13,9.63 60.41,3.02 15.19,-3.68 33.66,-20.03 39.86,-21.56 3.25,-0.81 37.53,4.39 56.23,-0.99 19.83,-5.7 52.32,-23.73 -3.76,-27.3 51.15,4.51 16.87,-1.93 29.18,-15.3l-35.41 0.4c67.5,-38.07 72.01,-13.43 123.84,-41.45l27.14 -17.57c49.99,-39.33 47.14,-30.53 65.75,-68.6 24.23,-49.59 19.71,-6.82 86.16,-88.66 22.58,-27.81 52.15,-109.81 53.55,-123.03 -2.6,49.06 1.18,15.86 12.93,27.92 6.42,-28.72 15.26,-31.78 21.89,-59.16 0.71,2.34 2.81,11.38 3.56,12.96 6.04,12.48 2.61,6.67 9.37,15.19 1.37,-58.66 9.52,-104.91 11.16,-171.26 0.61,0.2 15.43,0.68 27.02,-4.65 0.78,-66.64 -4.33,-158.67 -0.89,-203.73 4.96,-64.83 1.32,-50.78 -17.83,-92.63 -13.69,-29.93 -2.68,-45.92 -2.63,-86.82 -28.57,41.42 -106.87,105.06 -112.59,114.17 -51.75,19.86 -64.14,51.01 -201.76,87.97 -145.28,39 -351.92,34.8 -479.53,-53.98 -145.77,-101.41 -85.49,-62.1 -137.5,-151.31 -0.52,78.55 -0.55,157.12 -0.51,235.67 0.05,100.02 -7.22,59.61 18.09,135.81 41.66,125.41 -29.42,295.85 -81.37,337.97 -21.01,17.06 -60.76,26.47 -94.75,29.08 15.36,-53.23 165.2,-175.7 113.46,-340.24 -9.62,-30.54 -27.52,-52.17 -47.7,-65.38 -64.24,-42.07 -105.73,-13.47 -182.17,16.79 -34.49,13.65 -43.94,25.09 -84.28,32.87 20.02,-38.5 22.93,-38.23 65.05,-64.17l56.29 -29.17c4.85,-2.67 22.28,-1.7 -0.88,-1.89 -12.4,-27.69 -9.02,-16.19 -22.97,-37.06 -74.63,-111.67 -72.42,-290.3 -33.59,-415.08 8.2,-26.38 12.97,-64.24 12.92,-102.4 -0.09,-51.79 11.4,-246.39 25.94,-299.78l8.61 -20.34c0.75,-1.9 7.15,-22.56 7.17,-22.66 3.64,-17.39 2.39,-29.26 6.19,-45.99 14.21,-62.45 101.97,-33.51 148.74,-62.16 74.86,-45.84 65.37,-62.22 90.44,-121.34 35.31,-83.25 56.43,-97.24 76.66,-138.9l-21.98 -10.13c-11.83,-1.91 -2.52,-2.2 -19.33,2.44l7.41 -28.62c-1.39,-26.6 -4.93,-36.87 -56.96,-39.57l21.5 -36.65 -20.92 -0.05c12.46,-29.26 19.54,-23.67 34.83,-69.07 56.24,-166.92 163.88,-319.29 330.36,-389.78 157.66,-66.76 320.46,60.35 436.04,141.13 33.95,23.72 82.97,70.43 131.71,65.34 18.03,-148.47 -172.8,-419.01 -449.7,-437.27 -420.31,-27.74 -498.61,307.72 -540.32,353.69l5.41 -26.75c-56.54,-5.82 -0.93,-15.21 -49.7,-41.18 4.82,-16.62 9.61,-23.44 16.33,-40.12 20.03,-49.7 -38.82,-58.31 -14.13,-92.26l24.9 -28.94c10.71,-18.54 25.11,-33.63 53.61,-28.95l25.61 14.39c-4.39,-60.9 5.35,-82.17 -43.71,-106.92 -26.74,-13.51 4.62,4.54 -13.98,-5.62 5.01,-20.53 9.79,-38.87 13.95,-60.62 -59.91,-28.3 -18.16,-25.72 -61.21,-42.55 -91.02,-35.59 1.76,-29.21 -69.15,-32.35 -0.09,-39.65 8.76,-35.83 -18.83,-48.49 -24.2,-11.1 -30.47,-1.63 -47.24,-17.65 -17.1,-16.35 -8.58,-25 -28.2,-38.39l-25.87 -10.92c-1.3,-0.76 -3.09,-1.92 -4.31,-2.77 -1.19,-0.82 -2.73,-2.33 -3.86,-3.25 -64.63,-51.69 1.03,6.12 -83.94,-48.29 -27.91,-17.87 -180.11,-35.83 -225.75,-27.13l-166.67 23.5c-12.49,3.41 -14.08,5.22 -21.02,9.13 -41.35,23.25 -15.98,16.33 -64.49,18.11 -38.08,1.39 -96.07,36.29 -135.78,51.9 -101.38,39.83 -134.68,85.27 -205.55,109.23l-128.24 55.29c-66.53,29.08 -92.07,54.24 -141.59,109.03 -45.21,50.03 -22.74,58.98 -52.89,27.68 -1.5,76 -36.56,-5.4 -36.65,103.34 -23.72,14 -20.15,5.35 -36.28,29.78l9.72 16.62zm1692.05 -809.6c8.23,6.72 6.08,4.35 18.41,10.24l123.12 52.05c82.86,42 83.94,53.37 148.65,22.14 134.75,-65.05 86.79,-70.58 164.03,-22.51 252.54,157.17 312.14,249.71 505.29,434.71 1.86,1.79 2.69,20.14 9.54,8.41 0.85,-1.47 3.31,2.96 5.07,4.3l-3.81 30.76c4.91,46.15 -12.54,166.9 -14.99,225.75 -3.33,79.96 -2.97,156.77 -1.49,236.69 7.3,394.52 63.22,522.73 100.36,860.52 5.84,53.19 25.04,442.5 25.53,443.69 -43.92,250.17 -54.19,443.27 -158.33,687.32 -60.66,142.14 -143.72,278.08 -233.47,399.29 -75.71,102.25 -302.23,369.1 -395.95,441.62 -34.05,26.34 -51.78,51.92 -78.47,75.74 -86.19,76.96 -432.44,359.75 -526.93,373.53 -19.15,1.54 -40.87,5.01 -65.4,8.41l-184.84 56.52c-147.4,38.09 -438.57,100.31 -585.76,51.61 -10.89,-3.6 -22.59,-6.63 -35.26,-8.89 -26.57,-4.74 -48.5,-3 -75.59,-6.46 -35.09,-4.48 -32.11,-12.78 -60.39,-19.05 -19.17,-4.22 -53.94,-3.32 -74.9,-4.02l-4.68 -19.61c-14.05,-1.66 -52.12,-14.49 -65.63,-20.74 -13.88,-6.44 -8.42,-4.73 -13.96,-7.71 -51.07,-27.49 -51.54,-21.84 -99.28,-61.37 -16.86,-13.95 -40.74,-26.3 -65.81,-29.17 -0.97,-15.13 -10.99,-64.67 -14.02,-73.7 -8.92,-26.51 11.56,-11.29 -53.69,-43.36 -43.13,-21.2 -84.06,-42.81 -124.27,-66.15 -154.74,-89.8 -301.21,-191.91 -427.67,-320.22 -143.27,-145.35 -71.68,-80.07 -172.33,-114.81 -55.75,-19.25 -44.79,-19.85 -79.98,-36.78 -85.87,-41.35 -120.22,9.79 -217.98,-132.64 -7.86,-11.46 -9.54,-15.57 -17.31,-26.92 -82.68,-120.82 -123.72,-190.86 -182.82,-331.95 -23.55,-56.21 -16.78,-99.99 -24.78,-166.42 -5.21,-43.25 -13.86,-27.03 -7.9,-74.8 7.52,-60.47 16.08,-37.79 26.57,-69.23 14.37,-42.99 -32.28,-72.73 47.42,-113.04 -0.63,-32.87 -9.09,-60.41 -16.02,-90.07l-42.32 -289.19c-11.7,-371.93 6.58,-606.21 130.38,-953.85 10,-28.06 19.87,-51.72 31.06,-79.37 90.47,-223.36 226.71,-436.09 373.22,-611.96 17.89,-21.48 36.1,-34.37 54,-56.2 21.01,-25.6 28.39,-35.01 51.48,-58.57l296.81 -253.54c88.1,-64.73 57.26,-15.45 73.13,-67.75 4.99,-16.45 3.33,-0.76 0.93,-10.71 -5.42,-22.47 -21.05,9.5 -3.94,-5.91 32.3,-48.89 100.31,-77.2 157.26,-106 29.16,-14.75 52.37,-31.34 87.68,-40.83 39.25,-10.55 70.99,-20.36 101.72,-30.82 111.98,-38.11 265.25,-103.37 365.39,-172.35 -9.97,5.3 -6.35,-2.35 -3.25,10.47 1.8,73.15 -72.39,225.79 -36.04,288.17 67.79,43.1 481.04,-170.77 567.99,-203.61 37.03,0.14 118.08,-5.64 151,7.23 58.52,22.87 82.43,52.59 141.07,33.06 116.8,-38.89 496.22,-362.04 536.07,-452.63 -60.1,312.56 -242.04,478.09 -269.91,546.92 55.21,-6.94 97.19,-51.85 145.99,-56.24z"/>
   <path class="fil29" d="M3719.78 7993.49c-34.15,5.91 -69.72,22.9 -90.87,45.4 -30.71,32.68 -146.16,209.81 43.18,202.9 43.99,-57.17 48.63,-118.45 48.06,-194.96l-0.37 -53.34zm1958.14 2124.84c-111.82,-24.47 -226.81,-102.31 -328.19,-132.53 -3.29,-23.39 -17.89,-16.17 -43.77,-18.14l-189.65 -101.56c-95.2,-47.48 -188.79,-113.58 -274.84,-165.06l-254.52 -189.92c-23.64,-34.06 -53.18,-54.28 -79.62,-77.85 -110.42,-98.46 -305.1,-365.41 -402.36,-501.35 -21.08,-29.45 -37.27,-63.42 -60.88,-87.62 -78.27,17.64 -110.41,55.98 -217.42,36.05 -135.47,-25.24 -211.98,-126.66 -282.98,-230.56 -104.33,-152.69 -176.18,-406.78 -241.27,-532.32 -63.66,-122.75 -114.48,-206.75 -140.82,-367.12 -28.65,-174.5 37.92,-297.75 185.15,-329.64 158.57,-34.34 245.54,109.08 300.78,200.05 61.49,101.29 111.53,239.62 151.52,364.01 9.18,28.56 95.99,383.7 108.74,394.91l30.47 -838.6 -6.59 -252.61c20.54,-7.94 34.69,-6.16 40.29,-35.13 9.75,-50.41 -0.56,-15.4 -12.02,-38.76l13.31 -16.39c34.21,-37.83 17.05,-6.6 30.95,-36.13 20.57,-43.71 3.8,-63.58 41.74,-96.43 26.09,-22.59 5.22,8.87 22.12,-23.53 8.58,-16.46 18.13,-72.16 34.47,-105.84 8.91,-18.39 5.96,-12.84 18.68,-23.71 26.06,-22.28 25.07,-11.41 40.51,-49.77 22.18,-55.12 29.21,-50.06 36.92,-73.68 11.59,-35.45 -4.03,-27.83 27.77,-50.41 0,388.36 17.06,787.89 20.77,1182 4.09,434.41 0.76,685.87 164,1048.4 66.59,147.87 142.15,265.7 227.2,376.18 110.77,143.9 161.43,191.44 289.94,311.88 304.49,285.38 717.02,429.65 749.6,461.18z"/>
   <path class="fil30" d="M5299.76 5789.96c-68.6,17.1 -264.58,223.47 -581.51,252.77 -126.97,219.74 -235.57,396.49 -377.86,600.43 -24.16,34.69 -130.96,167.3 -136.28,188.18 -31.77,22.61 -16.18,15 -27.73,50.45 -7.71,23.63 -14.74,18.56 -36.93,73.64 -15.43,38.37 -14.47,27.52 -40.54,49.8 -12.72,10.85 -9.74,5.29 -18.68,23.69 -16.34,33.72 -25.86,89.4 -34.43,105.85 -16.92,32.43 3.94,0.92 -22.13,23.53 -37.95,32.85 -21.18,52.71 -41.78,96.46 -13.88,29.51 3.3,-1.73 -30.91,36.09l-13.31 16.41c11.44,23.36 21.77,-11.66 12.03,38.73 -5.64,28.98 -19.74,27.2 -40.28,35.18l-28.95 -550.63c15.38,-22.18 34.53,-41.39 51.3,-61.94 128.61,-158.14 187.2,-221.85 312.41,-415.49 158.47,-244.99 176.82,-299.7 297.67,-549.5 411.01,-10.14 785.26,-184.35 1091.18,-430.75l114.56 -100.3c-42.67,208.85 -301.39,424.77 -447.83,517.4z"/>
   <path class="fil26" d="M3569.4 7896.63c0.57,76.51 -4.07,137.79 -48.06,194.96 -189.34,6.9 -73.89,-170.22 -43.18,-202.9 21.15,-22.51 56.72,-39.49 90.87,-45.41l0.37 53.35z"/>
   <path class="fil31" d="M5217.37 8282.89c33.96,125.16 140.13,255.43 240.96,303.04 70.31,33.2 156.52,31.95 219.66,-6.99 61.42,-37.87 85.64,-81.01 122.94,-151.73 6.6,-6.63 5.61,-3.98 12.71,-15.14l15.77 -44.58c37.43,-135.15 18.73,-331 -21.51,-455.73 -49.33,-152.84 -135.66,-270.9 -258.46,-334.77 -74.98,-38.99 -164.53,-29.76 -232.2,14.05 -128.2,83.01 -161.23,294.66 -158.04,447.3 0.81,38.73 22.09,183.83 40.37,222.53 14.31,30.28 7.65,14.75 17.8,22.02zm228.46 -887.92c40.03,9.39 73.33,18.97 106.01,39.17 59.13,36.54 106.99,82.24 153.21,131.82 182.9,196.17 327.28,852.87 174.59,1010.47 -102.63,105.95 -260.74,154.03 -407.71,167.8 -219.38,20.56 -169.21,-8.82 -316.48,-89.35 -53.45,-29.22 -43.75,-19.87 -63.25,-80.38 -50.87,-157.82 -82.47,-309.86 -92.29,-491.8 -8.13,-150.68 24.04,-366.03 90.99,-484.26 48.47,-85.61 189.36,-242.28 354.93,-203.47z"/>
   <path class="fil32" d="M5443.92 7397.03c-165.57,-38.82 -306.46,117.85 -354.94,203.46 -66.94,118.23 -99.12,333.58 -90.99,484.26 9.82,181.94 41.43,333.98 92.3,491.8 19.5,60.51 9.79,51.16 63.24,80.38 147.28,80.53 97.11,109.91 316.48,89.35 146.97,-13.77 305.08,-61.85 407.72,-167.8 152.69,-157.6 8.31,-814.3 -174.59,-1010.47 -46.22,-49.58 -94.08,-95.28 -153.21,-131.82 -32.69,-20.2 -65.99,-29.78 -106.01,-39.16zm278.22 34.08c36.75,34.43 92.96,70.25 122.13,144.59 -44.65,-21.07 -64.88,-64.49 -113.43,-85.65 13.72,31.94 15.89,24.3 39.52,54.18 12.88,16.28 22.79,29.84 34.42,46.52 69.48,99.65 115.64,221.8 147.86,345.39 59.3,227.49 71.91,348.82 16.51,565.57l80.42 -97.47c-8.34,45.35 -39.94,94.89 -57.16,124.77 -52.25,55.18 -41.89,53.49 -114.5,116.62 -42.81,37.21 -87.93,52.61 -147.14,87.06 -26.05,3.59 -59.39,19.05 -91.62,27.19 -98.39,24.86 -222.55,30.44 -323.3,13 37.01,21.55 22.33,31.15 55.93,56.29 32.87,24.61 30.8,33.47 54.94,74.21 -45.44,-12.63 -16.4,-2.82 -47.44,-30.28l-112.39 -85.2c-17.52,-11.06 -20.59,-14.71 -38.08,-27.57l-125.33 -72.26c-233.51,-121.48 -294.58,-96.03 -373.79,-123.75 -25.04,-8.76 -14.05,-0.68 -31.78,-21.04 178.39,0 164.2,8.25 321.11,49.47 -83.15,-312.96 -107.16,-701.79 1.72,-959.67 20.87,-49.43 58.92,-134.9 100.55,-168.66 14.88,-12.07 21.03,-16.97 34.17,-32.86 85.73,-103.76 319.4,-135.58 476.91,-51.21l89.77 50.76z"/>
   <path class="fil31" d="M5211.4 8297.67c33.95,125.17 146.13,247.75 246.91,295.39 70.35,33.18 156.55,31.94 219.66,-7.02 61.41,-37.87 85.67,-80.98 122.98,-151.71 6.6,-6.64 5.58,-3.99 12.72,-15.16l15.75 -44.56c37.4,-135.15 18.73,-331 -21.5,-455.74 -49.33,-152.84 -135.69,-270.89 -258.51,-334.77 -74.92,-39.01 -164.48,-29.73 -232.16,14.08 -128.19,82.98 -161.24,294.63 -158.05,447.26 0.8,38.74 22.09,183.87 40.39,222.56 14.26,30.26 4.15,13.92 11.81,29.67zm234.41 -895.55c40.06,9.39 73.32,18.94 106.05,39.11 59.12,36.58 106.96,82.28 153.2,131.86 182.89,196.17 327.26,852.88 174.59,1010.47 -102.65,105.91 -260.74,154.04 -407.72,167.79 -219.39,20.56 -169.21,-8.84 -316.51,-89.34 -53.42,-29.24 -43.74,-19.86 -63.21,-80.39 -50.87,-157.81 -82.48,-309.85 -92.32,-491.77 -8.09,-150.69 24.05,-366.07 90.99,-484.28 48.48,-85.62 189.38,-242.3 354.93,-203.45z"/>
   <path class="fil32" d="M5443.92 7397.02c-165.57,-38.81 -306.46,117.86 -354.94,203.47 -66.94,118.23 -99.12,333.58 -90.99,484.26 9.82,181.94 41.43,333.98 92.3,491.8 19.5,60.51 9.79,51.16 63.24,80.38 147.28,80.53 97.11,109.91 316.48,89.35 146.97,-13.77 305.08,-61.85 407.72,-167.8 152.69,-157.6 8.31,-814.3 -174.59,-1010.47 -46.22,-49.58 -94.08,-95.28 -153.21,-131.82 -32.69,-20.2 -65.99,-29.78 -106.01,-39.17zm278.22 34.09c36.75,34.43 92.96,70.25 122.12,144.59 -44.64,-21.07 -64.87,-64.49 -113.42,-85.65 13.72,31.94 15.89,24.3 39.52,54.18 12.88,16.28 22.79,29.84 34.42,46.52 69.48,99.65 115.64,221.8 147.86,345.39 59.3,227.49 71.91,348.82 16.51,565.57l80.41 -97.47c-8.33,45.35 -39.93,94.89 -57.15,124.77 -52.25,55.18 -41.89,53.49 -114.5,116.62 -42.81,37.21 -87.93,52.61 -147.14,87.06 -26.05,3.59 -59.39,19.05 -91.62,27.19 -98.39,24.86 -222.55,30.44 -323.3,13 37.01,21.55 22.33,31.15 55.93,56.29 32.87,24.61 30.8,33.47 54.94,74.21 -45.44,-12.63 -16.4,-2.82 -47.44,-30.28l-112.39 -85.2c-17.52,-11.06 -20.59,-14.71 -38.08,-27.57l-125.33 -72.26c-233.51,-121.48 -294.58,-96.03 -373.79,-123.75 -25.04,-8.76 -14.05,-0.68 -31.78,-21.04 178.39,0 164.2,8.25 321.11,49.47 -83.15,-312.96 -107.16,-701.79 1.72,-959.67 20.87,-49.43 58.92,-134.91 100.55,-168.66 14.88,-12.07 21.03,-16.97 34.17,-32.86 85.73,-103.76 319.4,-135.58 476.91,-51.21l89.77 50.76z"/>
   <path class="fil33" d="M7459.26 7556.05c-33.15,198.05 -25.86,371.68 65.77,543.07 18.84,35.18 44.01,69.01 64.76,97.77 57.79,79.95 252.79,156.33 345.22,62.12 -0.59,25.74 5.4,40.5 10.67,64.39 49.48,-3.18 87.96,-17.16 120.69,-45.15 -79.93,105.96 -386.06,169.02 -557.04,114.86 -37.45,-11.82 -76.51,-45.92 -106.47,-67.49 -50.88,-36.69 -51.09,-32.75 -69.5,-109.15 -12.87,-53.19 -19.84,-88.21 -29.42,-147.23 -9,-55.31 -38.64,-323.17 -14.11,-346.59 12.14,94.09 -6.54,92.69 26.29,257.35 9,44.94 20,71.16 45.65,100.14 29.86,33.77 48.8,48.39 103.02,32.74 24.64,-60.8 -34.47,-44.18 -22.77,-118.04 -12.5,-39.71 -31.34,-114.33 -33.74,-160.94 -1.01,-20.01 15.54,-288 50.98,-277.85z"/>
   <path class="fil33" d="M7460.03 7531.77c-33.16,198.06 -23.58,385.22 68.05,556.62 18.85,35.18 44.02,69 64.77,97.76 57.78,79.97 212.41,113.15 342.29,59.28 6.37,172.92 8.45,46.22 13.59,67.24 49.49,-3.18 87.96,-17.16 120.68,-45.16 -79.91,105.97 -386.05,169.04 -557.03,114.87 -37.45,-11.82 -76.51,-45.91 -106.46,-67.5 -50.88,-36.68 -51.09,-32.8 -69.51,-109.14 -12.87,-53.2 -19.85,-88.22 -29.42,-147.23 -8.99,-55.3 -38.64,-323.18 -14.1,-346.59 12.13,94.09 -6.55,92.69 26.28,257.35 9,44.94 20.01,71.16 45.65,100.13 29.86,33.77 48.8,48.4 103.03,32.75 24.63,-60.8 0.37,-76.44 -17.29,-132.45 -12.51,-39.71 -20.7,-92.48 -23.1,-139.08 -1.01,-20.02 -2.88,-309 32.57,-298.85z"/>
   <path class="fil34" d="M8026.67 8289.42c-32.73,28 -71.2,41.98 -120.69,45.16 -5.27,-23.9 -14.81,-20.23 -14.22,-45.97 83.5,-40.18 236.69,-153.59 129.27,-286.59l18.83 -112.7c2.24,-113.52 -36.64,-162.4 -79.43,-264.96 -41.44,-99.28 -153.86,-208.66 -253.63,-217.35 -113.03,-0.54 -128.19,-53.76 -204.23,22.37 -56.99,57.02 -50.86,49.36 -83,137.84 -35.45,-10.14 -35.87,265.29 -34.86,285.3 2.4,46.61 10.59,99.38 23.1,139.09 17.66,56.01 -45.63,68.58 17.29,132.45 -54.22,15.65 -73.16,1.02 -103.02,-32.75 -25.65,-28.97 -36.66,-55.19 -45.66,-100.13 -32.83,-164.66 -14.15,-163.26 -26.28,-257.35 0.16,-309.85 257.87,-641.81 564.11,-471.7 90.57,50.28 151.22,99.75 193.95,198.38 33.68,77.64 61.1,165.31 76.69,260.96 19.95,122.52 57.89,532.07 -58.22,567.95z"/>
   <path class="fil35" d="M7110.36 9350.98c-9.67,-8.81 14.59,-9.89 -20.22,-1.42l-62.98 26.12c-29.96,12.21 -55.37,23.01 -82.82,34.57 -248.31,104.6 -295.5,136.15 -552.78,37.66 -119.8,-45.86 -465.87,-201.89 -541.97,-290.43 -12.61,-14.68 -31.83,-60.34 -38.38,-65.34 16.44,59.21 37.2,83.6 92.39,108.69 81.75,37.17 400.37,77.15 496.49,88.97 201.65,24.78 552.92,36.14 710.27,61.18z"/>
   <path class="fil36" d="M5942.87 7114.14c4.28,-83.72 -58.21,-161.96 -95.21,-209.12 -156.98,-200.11 -485.48,-251.58 -666.04,-183.38 64.52,64.06 28.95,4.66 85.42,61.69 44.36,44.81 44.67,18.02 98.36,48.31 54.96,31.01 180.95,5.63 411.96,159.15 32.63,21.67 52.14,36.52 84.02,62.57 41.53,33.93 47.18,51.96 81.49,60.78zm-308.67 -407.93c22.22,16.38 85.8,40.98 116.63,60.12 203.88,126.57 232.59,258.59 265.97,286.62 1.51,41.2 36.64,90.5 28.69,157.11 -5.34,44.61 -43.18,79.53 -94.51,18.56 -30.4,-36.1 -149.75,-148.23 -187.51,-155.25 -36.88,-66.6 -393.67,-245.64 -657.44,-95.75 -238.24,135.39 -381.36,448.79 -466.74,403.25 -74.64,-84.02 3.99,-272.57 49.32,-353.03 117.2,-207.99 294.83,-343.34 538.86,-370.23 170.42,-18.77 261.68,14.57 406.73,48.6z"/>
   <path class="fil37" d="M5964.62 7145.38c-35.96,-9.55 -41.88,-29.08 -85.41,-65.82 -33.41,-28.21 -53.87,-44.29 -88.06,-67.76 -242.14,-166.25 -374.21,-138.76 -431.81,-172.34 -56.27,-32.81 -56.6,-3.8 -103.1,-52.32 -59.19,-61.76 -21.91,2.57 -89.53,-66.8 189.25,-73.86 533.57,-18.12 698.12,198.58 38.78,51.07 104.28,135.8 99.79,226.46z"/>
   <path class="fil38" d="M7257.51 7174.35c-36.62,4.21 -116.33,45.75 -102,-130.56 8.58,-105.68 42.81,-166.54 44.92,-205.4 41.7,-45.96 120,-381.43 540.32,-353.7 276.9,18.27 467.74,288.81 449.7,437.29 -48.74,5.08 -97.76,-41.63 -131.7,-65.35 -115.6,-80.77 -278.39,-207.89 -436.05,-141.13 -166.48,70.49 -274.11,222.86 -330.36,389.78 -15.29,45.39 -22.37,39.82 -34.83,69.07z"/>
   <ellipse class="fil4" transform="matrix(1.35384 -0.304725 0.304725 1.35384 7700.55 7889.98)" rx="178.59" ry="272.85"/>
   <path class="fil39" d="M7782.83 8042.31c-9.02,53.36 -19.07,103.16 -67.51,111.91 -57.7,10.44 -92.79,-34.7 -113.16,-64.23 -38.69,-56.09 -81.91,-198.13 2.28,-247.44 88.12,-18.3 136.62,39.56 163.82,122.6 7.79,23.75 5.83,57.6 14.57,77.16z"/>
   <path class="fil40" d="M7875.81 7698.02c-18.09,-33.23 -111.16,-153.66 -186.74,-157.15 -32.58,1.86 -96.96,0.75 -97.62,7.61 -159.59,86.43 -162.24,436.36 4.95,579.29 156.11,133.37 293.59,21.89 321.31,-238.05 -1.52,-92.03 -23.7,-123.29 -41.9,-191.7zm-47.08 649.68c-92.33,26.97 52.02,-119.26 -65.07,-118.67l-189.87 -51.36c88.1,63.27 171.26,70.61 200.83,84.47 8.75,273.58 -364.29,-65.97 -404,-205.49 -18.41,-38.2 -39.88,-181.5 -40.7,-219.74 -3.2,-150.75 56.91,-339.11 186.18,-421.07 68.25,-43.27 184.2,-63.87 259.79,-25.35 123.83,63.07 189.33,171.21 239.04,322.17 40.6,123.18 55.81,345.19 18.09,478.67 -3.27,55.3 -154.13,141.71 -204.29,156.37z"/>
   <path class="fil41" d="M7980.56 8162.54c-11.64,85.07 -58.57,128.49 -131.83,159.79 -63.15,38.97 -88.17,46.83 -174.63,43.09 -66.64,-8.6 -151.8,-61.17 -190.3,-104.04 -52.77,-58.69 -95.41,-161.15 -115.07,-233.47 7.08,-7.99 19.66,-13.67 32.41,-7.01 7.77,4.09 15.48,22.36 22.85,19.6 64.68,249.56 330.11,336.59 325.4,222.21 -29.3,-14.02 -153.33,-0.22 -200.83,-84.47l235.51 34.25c116.21,-0.58 62.64,-37.05 154.2,-64.35 47.78,-14.26 39.91,8.42 42.29,14.4z"/>
   <g id="_1703817177168">
    <ellipse class="fil4" transform="matrix(1.35384 -0.304725 0.304725 1.35384 5465.91 8188.48)" rx="178.59" ry="272.85"/>
    <path class="fil39" d="M5642.96 8314.74c-9.02,53.36 -19.07,103.16 -67.51,111.91 -57.7,10.44 -92.79,-34.7 -113.16,-64.23 -38.69,-56.09 -81.91,-198.13 2.28,-247.44 88.11,-18.3 136.62,39.56 163.82,122.6 7.79,23.75 5.83,57.59 14.57,77.16z"/>
    <path class="fil34" d="M5800.37 8609.97c-32.73,28.01 -71.2,41.99 -120.69,45.17 -5.27,-23.91 -14.81,-20.24 -14.22,-45.98 83.5,-40.17 236.69,-153.58 129.27,-286.58l18.83 -112.7c2.24,-113.52 -36.64,-162.4 -79.43,-264.97 -41.44,-99.27 -153.86,-208.65 -253.63,-217.35 -113.03,-0.53 -128.19,-53.76 -204.23,22.38 -56.99,57.01 -50.86,49.35 -83,137.84 -35.45,-10.14 -35.87,265.28 -34.86,285.3 2.4,46.61 10.59,99.38 23.1,139.08 17.66,56.01 -45.63,68.59 17.29,132.46 -54.22,15.65 -73.16,1.02 -103.02,-32.76 -25.65,-28.97 -36.66,-55.18 -45.66,-100.13 -32.83,-164.66 -14.15,-163.25 -26.28,-257.34 0.16,-309.86 257.87,-641.81 564.11,-471.71 90.57,50.29 151.22,99.75 193.95,198.38 33.68,77.64 61.1,165.31 76.69,260.96 19.95,122.53 57.89,532.08 -58.22,567.95z"/>
    <path class="fil40" d="M5649.51 8018.58c-18.09,-33.23 -111.16,-153.67 -186.74,-157.15 -32.58,1.86 -96.96,0.74 -97.62,7.61 -159.59,86.42 -162.24,436.35 4.95,579.28 156.11,133.37 293.59,21.9 321.31,-238.04 -1.52,-92.04 -23.7,-123.29 -41.9,-191.7zm-47.08 649.68c-92.33,26.97 52.02,-119.26 -65.07,-118.67l-189.87 -51.37c88.1,63.28 171.26,70.62 200.83,84.48 8.75,273.58 -364.29,-65.97 -404,-205.49 -18.41,-38.2 -39.88,-181.5 -40.7,-219.75 -3.2,-150.75 56.91,-339.1 186.18,-421.06 68.25,-43.28 184.2,-63.87 259.79,-25.35 123.83,63.07 189.33,171.21 239.04,322.17 40.6,123.18 55.81,345.18 18.09,478.67 -3.27,55.3 -154.13,141.7 -204.29,156.37z"/>
    <path class="fil41" d="M5754.26 8483.09c-11.64,85.07 -58.57,128.5 -131.83,159.8 -63.15,38.96 -88.17,46.82 -174.63,43.09 -66.64,-8.61 -151.8,-61.18 -190.3,-104.05 -52.77,-58.69 -95.41,-161.15 -115.07,-233.46 7.08,-7.99 19.66,-13.68 32.41,-7.01 7.77,4.08 15.48,22.36 22.85,19.6 64.68,249.55 330.11,336.59 325.4,222.21 -29.3,-14.03 -153.33,-0.22 -200.83,-84.48l235.51 34.25c116.21,-0.58 62.64,-37.05 154.2,-64.34 47.78,-14.26 39.91,8.41 42.29,14.39z"/>
   </g>
   <path class="fil13" d="M6890.69 10876.36c167.2,255.46 521.23,408.81 814.79,583.01 225.98,204.05 189.09,7.12 191.27,320.41 178.13,-198.1 45.77,-87.99 141.96,-80.76 107.67,217.12 178.62,346.81 366.94,481.18 62.19,-78.29 -126.89,-329.04 -312.22,-595.69 -89.65,-128.98 -216.27,-294.77 -310.2,-388.2l-204.89 -125.07 -258.65 -88.77 -324.02 -91 -97.19 -77.21 -7.79 62.1z"/>
   <path class="fil25" d="M8457.85 8250.81c-0.11,-0.26 -18.43,-366.44 -24.35,-416.62 -57.07,-482.95 -138.23,-685.36 -94.36,-1242.86 11.24,-142.72 60.97,-352 61.08,-391.68 0.73,-259.66 -51.25,-513.14 -164.3,-738.12 -23.83,-47.42 -53.48,-97.96 -81.82,-138.2 -18.13,-25.73 -91.59,-117.23 -91.86,-122.97 -32.7,62.11 -29.65,132.63 -122.77,280.2 -337.84,535.38 -1016.46,936.49 -1587.09,932.65 -193.12,-1.26 -1215.43,-9.34 -1275.42,-46.14 -94.89,-65.72 682.62,-550.18 807.82,-633.73 -41.06,23.62 -40.81,21.35 -78.94,26.55 -45.52,4.37 -530.08,72.22 -607.1,35.55 -15.88,-11.07 -5.17,-8.71 30.1,-32.45 155.47,-125.76 75.8,-101.8 287.41,-278.67 12.14,-7.19 -15.08,-5.07 -20.56,-3.97 -36.49,7.27 -48.23,31.98 -88,51.76 -243.59,127.11 -522.88,323.42 -877.12,331.23 -143.81,321.48 -262.66,519.08 -463.23,787.52 -30.76,41.17 -59.64,73 -91.83,113.94 -19.99,224.84 -22.9,303.84 1.97,799.56 14.5,289.14 -4.25,383.19 -24.79,671.82 -4.95,69.51 6.51,88.36 4.31,156.95 -13.61,423.14 -340.05,-627.61 -343.28,-632.87 -92.96,-148.84 -204.08,-273.71 -385.95,-155.92 -48.57,98.96 -34.62,105.88 -15.47,214.62 75.29,265.37 151.6,309.16 218.26,440.19l339.44 594.38c221.01,92.28 148.81,-14.58 326.52,20.42 106.36,20.96 61.93,169.24 139.53,153.46l273.3 378.45c40.02,48.53 89.27,95.48 133.59,134.45 29.22,25.7 -11.37,29.99 -81.28,112.88 -236.32,0 -384.29,-48.34 -578.22,-129.9 -213.9,-89.97 -445,-299.5 -589.94,-481.59 -15.13,-19 -41.33,-57.95 -56.06,-68.89 2.85,34.64 14.31,86.19 21.89,118.33 7.4,31.42 20.6,82.12 14.58,110.93 -47.82,-4.04 -102.51,-71.28 -132.97,-101.84l-342.78 -362.41c-131.26,-151.36 -256.81,-366.28 -329.63,-553.23l-18.84 -40.07c-19.37,84.33 20.88,230.28 7.29,244.05 -48.82,49.5 -247.5,-197.41 -274.91,-231.56 -19.78,-24.64 -35.59,-47.75 -53.32,-71.64 -223.53,-301.15 220.47,-1084.29 220.47,-1511.95 -73.79,54.81 -270.25,283.09 -335.76,346.1 -76.31,-51.8 -170.21,-247.2 -183.01,-334.72 175.12,-375.45 -229.64,-184.88 -176.78,-356.67 22.92,-74.46 44.57,-148.56 81.51,-213.17 11.02,-19.27 30.04,-43.6 36.16,-66.87 -102.07,54.76 -377.05,77.53 -408.46,-59.17 54.73,-58.5 175.52,-36.7 253.89,-104.96 2.62,-2.29 13.4,-12.13 15.34,-14.02 129.01,-126.3 177.27,-466.38 233.15,-643.67 36,-114.22 68.22,-213.91 109.27,-318.13 82.91,-210.51 189.5,-362.96 334.74,-511.08 68.86,-70.23 151.86,-139.13 235.57,-190.09 68.83,-41.91 200.58,-121.11 284.14,-140.85 -33.99,-129.06 -361.05,-84.91 -444.94,-125.72 17.36,-65.92 356.61,-199.25 574.29,-153.34 74.71,15.76 137.88,62.75 177,71.99 0,-106.4 98.72,-259.34 151.4,-319.8 64.19,-73.66 171.62,-190.48 278.94,-190.48 5.52,26.41 5.64,29.17 -11.17,54.86 -80.36,122.82 -205.08,209.58 -163.88,388.86 39.64,-26.91 78.74,-91.1 114.87,-127.58 101.85,-102.83 217.95,-191.82 338.76,-270.35l76.53 -48.13c54.84,-30.86 100.26,-58.44 155.48,-86.41 169.58,-85.91 342.46,-156.61 524.31,-215.34 913.42,-295 1044.83,423.08 2284.06,506.81 206.16,116.3 905.93,60.97 1089.72,208.3 129.49,103.8 271.5,245.48 431.68,301.86 179,63 369.89,58.08 459.68,-131.41 13.26,-27.98 5.36,-27.03 31.9,-34.21 45.42,30.83 28.96,126.22 29.23,177.53 0.86,170.01 -70.75,323.43 -204.29,414.1 44.8,67.82 113.29,99.34 222.96,284.22 68.78,115.95 110.49,217.26 155.43,352.69 46.02,138.7 64.65,275.11 85.39,423.71 12.57,90.03 21.89,417.79 3.04,499.81 -36.06,-9.77 -42.21,-72.23 -56.13,-105.79 -16.66,-40.13 -34.44,-70.28 -55.54,-106.38 -30.9,-52.85 -95.41,-143.97 -143.62,-179.79 1.86,8.09 78.67,215.68 103.61,316.49 28.12,113.71 53.57,243.48 57.1,363.65 7.11,241.7 -14.86,445.71 -70.15,668.9 -7.72,31.2 -11.66,63.01 -32.2,78.28 -28.45,-21.14 -54.26,-246.42 -62.74,-283.98 -18.29,-81.04 -36.09,-172.38 -81.13,-243.15 -8.61,-13.53 -2.91,-5.28 -9.31,-12.74 2.09,94.99 25.66,161.42 13.52,272.55 -52.38,479.54 -222.26,771.79 -391.78,1200.19l-73.97 220.81c-9.38,33.99 -18.49,81.15 -29.18,113.68z"/>
   <g id="_1703817173568">
    <g>
     <g style="clip-path:url(#id0)">
      <image x="2288.13" y="2541.33" width="6339.61" height="473.23" xlink:href="Domingo Savio Con tablet_Images\Domingo Savio Con tablet_ImgID1.png"/>
     </g>
    </g>
    <g>
     <g style="clip-path:url(#id1)">
      <image x="2265.9" y="2988.91" width="6339.6" height="424.04" xlink:href="Domingo Savio Con tablet_Images\Domingo Savio Con tablet_ImgID2.png"/>
     </g>
    </g>
   </g>
  </g>
 </g>
</svg>
