<?xml version="1.0" encoding="UTF-8"?>
<!DOCTYPE svg PUBLIC "-//W3C//DTD SVG 1.1//EN" "http://www.w3.org/Graphics/SVG/1.1/DTD/svg11.dtd">
<!-- Creator: CorelDRAW 2020 (64-Bit) -->
<svg xmlns="http://www.w3.org/2000/svg" xml:space="preserve" width="215.9mm" height="279.4mm" version="1.1" style="shape-rendering:geometricPrecision; text-rendering:geometricPrecision; image-rendering:optimizeQuality; fill-rule:evenodd; clip-rule:evenodd"
viewBox="0 0 21590 27940"
 xmlns:xlink="http://www.w3.org/1999/xlink"
 xmlns:xodm="http://www.corel.com/coreldraw/odm/2003">
 <defs>
  <style type="text/css">
   <![CDATA[
    .fil22 {fill:#0B0C11}
    .fil7 {fill:#322E29}
    .fil29 {fill:#3F383A}
    .fil27 {fill:#4A4748}
    .fil16 {fill:#52392D}
    .fil18 {fill:#553D37}
    .fil26 {fill:#577996}
    .fil1 {fill:#593E32}
    .fil11 {fill:#593E32}
    .fil20 {fill:#595940}
    .fil8 {fill:#66728E}
    .fil23 {fill:#6699FF}
    .fil17 {fill:#866351}
    .fil12 {fill:#996633}
    .fil34 {fill:#B1252B}
    .fil31 {fill:#BABCBD}
    .fil10 {fill:#BDCDE0}
    .fil36 {fill:#CCCCCC}
    .fil19 {fill:#D5966D}
    .fil15 {fill:#E1DDDB}
    .fil6 {fill:#E48E51}
    .fil35 {fill:#E6E6E6}
    .fil0 {fill:#E9B891}
    .fil9 {fill:#EAE7E5}
    .fil5 {fill:#EBA56B}
    .fil4 {fill:#EFC191}
    .fil32 {fill:#F2C69A}
    .fil3 {fill:#F6D2AC}
    .fil2 {fill:#F8D6B2}
    .fil13 {fill:#FCFCFB}
    .fil14 {fill:#FEFEFD}
    .fil28 {fill:#0B0C11;fill-opacity:0.188235}
    .fil21 {fill:#0B0C11;fill-opacity:0.400000}
    .fil24 {fill:#0B0C11;fill-opacity:0.470588}
    .fil30 {fill:white;fill-opacity:0.490196}
    .fil25 {fill:#0B0C11;fill-opacity:0.600000}
    .fil33 {fill:#D5966D;fill-opacity:0.619608}
   ]]>
  </style>
    <clipPath id="id0">
     <rect x="4798.98" y="2041.19" width="6474" height="483.26"/>
    </clipPath>
    <clipPath id="id1">
     <rect x="4776.27" y="2498.26" width="6473.99" height="433.03"/>
    </clipPath>
 </defs>
 <g id="Capa_x0020_1">
  <metadata id="CorelCorpID_0Corel-Layer"/>
  <g id="_1703805507296">
   <g style="clip-path:url(#id0)">
    <image x="4798.98" y="2041.19" width="6474" height="483.26" xlink:href="Domingo Savio Telescopio_Images\Domingo Savio Telescopio_ImgID1.png"/>
   </g>
  </g>
  <g id="_1703805505520">
   <g>
    <path class="fil0" d="M11135.88 6420.42c38.03,162.03 85.38,323.66 109.62,479.61 23.67,152.27 24.21,304.31 8.94,439.91 -25.22,223.91 -33.27,216.28 -75.63,404.81 -14.83,65.96 -40.2,125.27 -56.22,191.93 -13.29,55.36 -46.9,136.1 -67.5,192.92l-54.15 136.13c-8.94,20.94 -13.84,24.66 -22.28,47.4 -7.54,20.32 -8.77,25.22 -18.05,43.49 -60.12,118.52 -74.07,170.19 -161.46,312.52 -161.17,262.5 -373.24,472.66 -649.95,602.59 -56.62,26.58 -199.52,89.1 -239.16,87.65 13.73,32.68 7.59,30.66 16.78,57.86 9.12,39.22 68.09,101.84 84.82,146.78 310.03,334.78 -531.13,827.12 -357.22,436.73l-212.41 -169.01c0.7,-0.05 176.06,-246.32 124.04,-393 -26.21,-4.19 -87.53,3.59 -123.18,7.61 -69.72,1.94 -330.72,-7.17 -373.61,10.3l-411.1 -39.92c-63.24,-8.56 -355.02,-61.96 -395.62,-88.93 -37.51,-25.99 -66.04,-29.79 -101.7,-41.59 -54.11,-17.89 -132.62,-60.71 -186.67,-89.24l-452 -265.58c-61.96,46.62 -74.67,98.44 -176.22,122.84 -169.64,40.77 -358.75,-96.15 -476.71,-212.43l-274.97 -275.37c-109.62,-94.1 -179.08,-141.86 -266.76,-279.6 -59.22,-93 -94.3,-214.11 -34.93,-310.33 113.72,-184.27 259.97,-114.21 399.62,-14.41 238.97,170.79 381.9,442.19 525.56,602.48 5.62,-18.39 4.19,-25.52 -8.14,-56.69 -6.19,-15.64 -13.96,-32.47 -20.6,-48.15 -13.69,-32.29 -27,-63.88 -39.59,-96.67 -24.83,-64.55 -48.71,-127.4 -71.48,-193.94 -94.53,-276.29 -196.37,-509.26 -321.86,-771.58 -215.15,-449.73 -189.17,-280.33 -134.5,-508.3 12.29,-51.25 25.23,-92.69 36.18,-143.57 71.38,-331.77 98.66,-564.12 99.52,-921.7 307.93,-153.28 559.28,-431.47 719.52,-720.38 26.58,-47.95 133.32,-251.06 131.55,-278.59 20.08,194.97 -41.78,374.18 -122.18,531.08 -20.05,39.14 -76,125.16 -73.79,164.04 81.91,2.27 366.19,-255.31 424.04,-317.84 44.52,-48.12 273.84,-335.7 269.18,-379.2 10.8,77.8 -262.23,621.43 -229.58,704.71 8.74,92.91 62.08,167.57 583.21,-232.15 229.89,-112.21 334.03,-154.21 722.9,-458.17 37.35,-23.99 170.51,-196.34 197.45,-235.29 29.45,-42.58 57.15,-82.52 80.82,-125.37 71.33,-129.19 118.38,-255.99 140.08,-413.25 24.2,-175.32 -5.98,-239.5 -1.5,-310.61 2.48,5.21 102.64,59.84 128.6,76.24 40.56,25.65 86.31,60.33 125.71,94.51 186.98,162.16 331.47,375.93 432.09,617.18 15.38,36.86 53.33,251.56 99.13,388.63 178.89,535.39 329.08,689.75 567.51,1114.37 24.77,44.12 183.64,376.35 183.85,376.54z"/>
    <path class="fil1" d="M11240.75 6703.1c-0.2,-0.19 -159.08,-332.43 -183.85,-376.54 -238.44,-424.61 -388.62,-578.98 -567.51,-1114.37 -45.8,-137.07 -83.75,-351.77 -99.13,-388.63 -100.62,-241.24 -245.11,-455.02 -432.08,-617.18 -39.41,-34.18 -85.15,-68.86 -125.72,-94.51 -25.95,-16.4 -126.11,-71.03 -128.6,-76.24 -4.48,71.11 25.7,135.29 1.5,310.61 -87.78,636.05 -527.08,1287.99 -1029.5,1519.65 -170.02,78.43 -1070.6,492.36 -1137.61,482.94 -108.92,-21.87 384.68,-791.91 462,-921.05 -26.84,38.84 -27.5,36.63 -58.94,57.18 -38.26,22.82 -437.17,285.52 -519.08,283.24 -18.25,-3.72 -7.94,-5.95 13.77,-42.51 87.43,-180.79 26.84,-125.71 143.63,-377.06 7.85,-11.68 -15.21,1.51 -19.6,4.79 -29.19,21.79 -29.86,49.56 -57.06,84.3 -164.27,218.36 -332.88,515.65 -640.8,668.93 -0.87,357.58 -28.15,589.92 -99.53,921.7 -10.95,50.88 -23.89,92.32 -36.18,143.57 70.14,216.88 98.39,291.39 313.53,741.12 125.49,262.32 145.71,357.32 240.24,633.61 22.76,66.54 40.17,79.3 64.99,143.85 153.06,398.26 -543.27,-442.18 -548.15,-445.73 -139.65,-99.8 -285.89,-169.85 -399.61,14.41 -4.04,111.85 10.9,112.52 70.12,205.52 169.58,215.21 253.64,224.4 363.26,318.5l529.77 411.61c230,-5.49 124.95,-74.88 294.6,-115.65 101.54,-24.4 120.36,131.5 182.33,84.88l387.5 238.51c54.05,28.53 115.6,51.8 169.7,69.69 35.67,11.79 1.71,32.51 -27.33,138.24 -207.46,97.42 -356.2,113.56 -558.25,117.82 -222.85,4.69 -507.43,-94.47 -705.68,-203.69 -20.69,-11.39 -58.87,-36.74 -76.07,-40.82 16,30.98 46.17,74.08 65.35,100.78 18.76,26.11 50.12,67.71 56.07,96.92 -43.55,15.97 -117.79,-23.88 -156.45,-39.68l-442.23 -194.99c-174.25,-86.33 -368.28,-234.01 -505.12,-377.47l-32.16 -29.41c15.88,86.23 108.13,205.07 101.58,223.46 -23.55,66.05 -294.26,-81.17 -331.63,-101.55 -26.98,-14.71 -49.87,-29.64 -74.75,-44.5 -313.67,-187.3 -229.31,-1097.01 -396.09,-1493.84 -43.4,81.28 -126.83,374.09 -159.77,459.56 -87.18,-16.61 -245.81,-159.21 -291.19,-235.15 7.32,-420.58 -273.68,-76.89 -294.27,-258.09 -8.92,-78.53 -18.81,-156.22 -11.58,-231.41 2.16,-22.42 9.37,-52.83 5.67,-76.95 -68.25,92.89 -300.76,227.37 -381.64,113.48 25.23,-76.85 139.76,-106.41 181.94,-202.05 1.41,-3.22 7.03,-16.79 8,-19.34 63.99,-170.38 -26.26,-505.84 -46.35,-693.38 -12.94,-120.82 -23.53,-226.62 -28.14,-340.25 -9.31,-229.5 24.81,-414.91 94.54,-612.22 33.06,-93.55 79.05,-191.7 132.66,-273.5 44.08,-67.25 128.85,-195.06 194.5,-247.82 -80.16,-105.74 -350.05,70.04 -439.61,66.75 -10.47,-68.32 235.35,-331.88 444.34,-379.01 71.72,-16.17 145.5,1.39 183.45,-6.16 -41.5,-98.73 -14.48,-281.34 8.19,-359.16 27.62,-94.81 76.37,-247.5 170.58,-291.74 15.15,22.24 16.33,24.74 11.59,55.52 -22.64,147.08 -98.29,279 7.78,428.38 24.31,-41.31 33.6,-117 51.09,-165.74 49.31,-137.4 116.52,-267.83 191.95,-390.51l48.41 -76.2c36.11,-51.24 65.22,-95.56 102.79,-144.27 115.36,-149.62 239.55,-286.5 376.28,-415.95 686.8,-650.27 1082.18,-38.12 2202.69,-471.26 226.33,22.94 819.03,-316.87 1037.83,-255.92 154.15,42.94 334.06,115.86 496.66,102.15 181.71,-15.33 347.36,-98.58 352.29,-311.42 0.73,-31.43 -5.84,-27.3 14.66,-44.9 51.89,9.88 74.65,105.18 94.89,152.69 67.06,157.39 64.02,329.28 -17.84,468.45 65.77,44.47 138.19,45.48 306.56,171.83 105.59,79.24 181.72,156.05 273.98,263.2 94.49,109.72 164.03,228.62 240.2,357.96 46.14,78.36 182.14,378.65 197.58,462.53 -35.47,5.8 -65.23,-49.62 -90.53,-75.02 -30.27,-30.38 -57.64,-51.03 -90.25,-75.82 -47.73,-36.31 -139.89,-94.27 -196.18,-107.63 4.79,6.74 153.17,167.71 214.37,250.97 69.03,93.92 141.98,203.84 191.94,313.89 100.5,221.35 160.77,419.71 199.28,649.6 5.39,32.14 14.34,63.27 2.25,85.91 -33.21,-7.88 -143.72,-206.29 -165.82,-237.65 -47.66,-67.65 -98.89,-145.07 -166.03,-192.17 -12.84,-9.01 -4.62,-3.7 -13.15,-7.99 38.88,87.29 85.48,139.21 118.17,247.33 141.02,466.57 105.86,807.78 124.12,1275.17l21.17 235.39c5.03,35.41 15.42,82.92 18.72,117.51z"/>
    <path class="fil2" d="M7355.63 8586.2c30.34,70.76 50.16,129.53 33.85,200.71 -163.53,84.46 -131.26,-127.48 -117.04,-170.47 9.79,-29.6 34.39,-60.02 62.06,-79.59l21.13 49.35z"/>
    <path class="fil3" d="M11178.49 6510.26c38.06,162.02 85.4,323.63 109.63,479.62 23.67,152.29 24.19,304.3 8.97,439.9 -25.26,223.88 -33.28,216.26 -75.64,404.77 -14.83,66.01 -40.25,125.3 -56.24,191.97 -13.28,55.33 -46.9,136.1 -67.5,192.88l-54.14 136.14c-8.96,21 -13.85,24.67 -22.29,47.45 -7.54,20.26 -8.78,25.16 -18.03,43.47 -60.14,118.53 -74.05,170.2 -161.45,312.54 -161.17,262.47 -307.76,518.31 -584.5,648.2 -56.62,26.59 -335.14,129.23 -374.75,127.74 174.3,19.47 72.95,403.77 133.6,506.84 84.64,143.85 -78.15,164.31 -72.79,180.16 -273.19,283.83 -217.97,192.75 -333.01,197.37 477.71,182.18 -274.71,-15.75 -182.95,-186.02 4.14,-54.15 -93.42,-701.74 -129.06,-697.78 -69.75,2 -143.58,-6.49 -186.47,10.96l-411.08 -39.9c-63.22,-8.56 -355.03,-61.97 -395.62,-88.94 -37.49,-25.98 -66.04,-29.77 -101.7,-41.56 -54.12,-17.92 -132.63,-60.72 -186.69,-89.29l-452 -265.55c-61.96,46.6 -74.64,98.41 -176.18,122.83 -169.68,40.78 -358.78,-96.17 -476.75,-212.39l-274.98 -275.37c-109.58,-94.14 -179.04,-141.91 -266.75,-279.65 -59.21,-92.98 -94.27,-214.09 -34.88,-310.31 113.69,-184.25 259.95,-114.22 399.57,-14.4 238.99,170.77 381.93,442.21 525.58,602.47 5.62,-18.41 4.2,-25.53 -8.13,-56.72 -6.22,-15.6 -13.97,-32.46 -20.61,-48.11 -13.68,-32.3 -27,-63.87 -39.62,-96.67 -24.78,-64.55 -48.68,-127.41 -71.43,-193.93 -94.54,-276.31 -196.43,-509.3 -321.89,-771.62 -215.13,-449.73 -189.17,-280.3 -134.47,-508.29 12.24,-51.25 25.19,-92.69 36.14,-143.57 71.43,-331.76 98.67,-564.12 99.52,-921.67 307.97,-153.3 559.3,-431.49 719.53,-720.43 26.57,-47.9 133.34,-251.01 131.54,-278.58 20.08,194.98 -41.75,374.17 -122.17,531.1 -20.02,39.13 -75.98,125.17 -73.8,164.02 81.9,2.3 366.21,-255.29 424.06,-317.83 44.54,-48.13 273.81,-335.68 269.18,-379.18 10.81,77.76 -262.25,621.4 -229.58,704.72 8.72,92.89 62.07,167.52 583.23,-232.16 229.87,-112.2 334.03,-154.21 722.86,-458.18 37.35,-23.96 170.53,-196.31 197.48,-235.29 29.43,-42.59 57.17,-82.53 80.82,-125.4 71.33,-129.17 118.37,-255.98 140.06,-413.2 24.18,-175.36 -5.99,-239.54 -1.47,-310.65 2.48,5.24 102.62,59.88 128.57,76.23 40.55,25.67 86.32,60.35 125.7,94.55 187,162.15 331.48,375.91 432.1,617.18 15.36,36.83 53.3,251.53 99.12,388.63 178.92,535.37 329.1,689.76 567.5,1114.36 24.8,44.11 183.67,376.33 183.86,376.54z"/>
    <path class="fil4" d="M10330.83 8857.95c-31.99,11.37 -57.22,19.24 -96.73,37.15 -42.63,19.31 -59.75,16.2 -94.79,29.46 -53.46,20.23 -158.29,66.68 -202.03,87.75l-83.51 97.31c-8.57,24.12 17.72,-11.55 -14.92,29.14 -14.28,17.79 -14.62,9.56 -17.68,42.81l-20.04 45.15c-0.03,0.13 13.34,100.54 30.33,113.29 26.96,20.24 132.84,42.34 172.6,28.35 96.99,-34.16 188.79,-46.65 297.27,-113.14 22.73,-13.93 65.81,-35.88 91.7,-53.51 60.27,-41.07 58.45,-53.67 74.52,-74.85 115.73,-75.53 64.32,-77.19 135.93,-161.01l15.15 -16.71c97.25,-108.32 24.33,-57.44 47.6,-162.96 3.37,-15.26 5.84,-7.63 2.07,-27.43 -4.89,-25.73 -22.91,-34.75 -35.87,-42.55l-43.87 -19.31c-79.25,-19.93 -50.39,-5.93 -125.29,4.14 -68.96,9.27 -157.6,59.69 -234.76,96.16 25.68,9.09 2.09,-0.35 28.27,5.54 1.67,0.38 3.64,0.76 5.3,1.17 47.07,11.82 56.61,17.77 68.75,54.05zm117.93 -604.19c-147.9,41.63 -460.69,175.89 -647.37,236.02 -88.99,28.65 -384.28,122.89 -470.53,122.1 -58.24,-0.53 -85.97,-14.61 -123.5,-62.77 7.7,1.94 42.38,36.39 59.18,44.8 101.33,50.8 465.97,52.92 589.02,46.09 264.27,-14.67 293.38,-63.4 470.57,-262.81 19.58,-22.04 37.68,-42.54 59.23,-66.22l45.09 -50.21c27.25,-22.19 6.38,-11.19 18.31,-7zm455.42 -1363.17c87.95,-81.13 -105.09,-445.55 -170.38,-550.99 -51.01,-82.36 -109.22,-152.39 -169.06,-210.57 -75.98,-73.89 -204.97,-148.48 -304.09,-157.82 -335.16,-31.6 -375.5,436.35 -254.78,723.95 -12.45,31.83 118.08,268.19 147.49,315.77 31.43,50.82 51.25,80.45 83.27,124.52 45.96,63.26 44.6,59.56 103.58,72.61 34.71,7.69 82.31,23.2 119.79,18.77 171.2,-20.24 415.35,-204.94 444.18,-336.24zm-2724.7 -513.45c-140.61,28.22 -233.72,34.91 -376,122.58 -203.73,125.54 -306.88,324.36 -328.65,565.66 -8.42,93.35 -3.91,300.72 94.37,347.91 92.71,7.06 96.12,-342.73 252.47,-566.57 173.09,-247.82 556.12,-228.76 614.47,-182.16 -5.55,24.68 15.43,7.78 4.2,64.3 -81.26,-11.22 -164.91,-17.32 -258.04,-2.54 -439.59,69.72 -155.93,194.59 0.16,184.44 25.7,-1.71 -9.51,0.45 11.29,-1.49 29.05,-2.71 22.53,-0.78 54.48,9.76 79.3,26.16 -399.41,319.41 -327.73,309.96 139.03,4.96 110.07,139.06 155.12,217.22 36.33,63.01 536.15,-198.57 803.37,-216.6 214.63,-14.49 358.5,216.28 300.18,349.72 -22.37,51.2 -457.8,69.77 -512.71,97.56 -141.74,71.77 -193.52,152.29 -274.88,269.3 -34.97,50.29 15.87,131.7 -31.09,142.56 -456.63,105.61 -328.44,342.7 -61.8,121.47 25.11,-20.84 713.13,37.19 734.6,23.13 4.94,28.89 12.44,25.79 32.46,38.76 47.98,31.11 104.78,78.97 172.53,115.14 18.23,9.73 27.84,11.69 45.34,21.89l114.95 51.82c1.91,0.83 7.4,3.34 9.36,4.07 5.4,1.99 5.42,2.08 14.79,4.41 175.61,43.59 33.69,55.55 396.56,-68.98l724.88 -238.79c100.56,-34.15 162.55,-52.38 173.76,-141.04l25.86 25.14c21.05,-24.32 41.8,-57.43 61.19,-78.11 15.33,-16.35 13.53,-7.86 37.04,-23.56 21.51,-14.36 22.52,-20.88 43.52,-28.48 12.8,-4.64 32.83,-4.73 54.2,-22.11 11.9,-9.67 21.75,-32.45 26.58,-36.43 2.55,-2.09 34.67,-11.4 48.99,-24.1 15.18,-13.46 36.66,-43.58 -13.96,-23.78 46.67,-16.9 14.06,-8.75 19.65,-26.21l-30.92 14.95c44.4,-63.14 57.98,-42.15 92.55,-89.51l16.97 -27.49c28.54,-57.11 29.47,-47.76 30.96,-90.77 1.93,-56 14.65,-14.44 41.07,-117.78 8.97,-35.11 2.95,-123.39 -0.98,-136.22 16.85,46.58 7.22,14.22 22.24,20.56 -5.56,-29.28 1,-35.77 -3.86,-63.91 1.54,1.89 6.91,9.4 8.19,10.55 10.16,9.09 4.89,5.12 14.15,10.24 -21.67,-55 -32.55,-101.27 -57,-163.52 0.62,-0.07 13.81,-5.72 21.91,-15.45 -25.3,-62.16 -65.68,-145.44 -80.23,-188.67 -20.92,-62.22 -18.65,-47.67 -51.78,-78.61 -23.69,-22.13 -20.26,-41.5 -36.17,-79.47 -8.92,50.2 -52.83,141.54 -54.31,152.34 -37.68,39.78 -36.4,73.78 -142.81,164.8 -112.32,96.08 -295.36,177.35 -441.99,147.58 -167.51,-34 -99.27,-22.38 -179.72,-83.71 30.19,73.1 60.8,146.01 91.47,218.89 39.04,92.78 16.9,58.28 68.84,118.57 85.47,99.18 89.54,286.64 60.38,347.14 -11.81,24.49 -43.03,49.6 -71.84,66.04 -7.29,-55.71 76.49,-231.13 -33.1,-362.47 -20.35,-24.38 -44.5,-37.08 -67.36,-41.02 -72.81,-12.56 -98.06,31.08 -153.37,90.68 -24.96,26.89 -28.79,41.39 -61.16,65.24 2.55,-43.98 5.21,-44.94 32.08,-86.36l38.03 -50.27c3.22,-4.49 18.89,-10.77 -1.51,-1.39 -21.69,-20.58 -14.24,-11.31 -34.62,-24.93 -109.06,-72.85 -176.78,-239.51 -191.35,-371.31 -3.09,-27.85 -13.68,-64.95 -28.6,-100.34 -20.27,-48.02 -86.08,-233.33 -94.13,-288.85l-0.37 -22.44c-0.09,-2.06 -2.52,-23.87 -2.54,-23.98 -3.6,-17.64 -9.32,-28.13 -12.51,-45.23 -11.88,-63.81 76.44,-73.12 106.33,-118.99 47.83,-73.4 33.12,-84.68 32.06,-149.87 -1.46,-91.81 11.62,-113.5 13.14,-160.49l-23.24 -0.34c-11.13,3.11 -3.08,-1.01 -16.03,10.24l-4.64 -29.61c-11.61,-24.12 -18.71,-32.19 -65.44,-13.25l4.58 -42.87 -18.39 8.58c-0.47,-32.27 7.92,-30.02 3.65,-78.45 -15.72,-178.07 19.34,-363.83 137.99,-497.86 112.37,-126.94 304.85,-76.09 437.82,-48.79 39.04,8.02 100.29,31.15 141.1,6.35 -42.07,-145.21 -315.1,-317.59 -565.3,-220.39 -379.78,147.53 -317.7,491.09 -336.38,550.93l-5.68 -27.06c-51.91,17.92 -6.75,-13.72 -59.7,-17.72 -2.24,-17.41 -0.69,-25.72 -1.3,-43.96 -1.8,-54.37 -56.82,-38.1 -48.38,-79.77l10.57 -37.13c2.17,-21.62 8.93,-41.55 35.77,-48.96l28.09 2.8c-27.61,-54.7 -27.35,-78.46 -80.06,-81.2 -28.74,-1.51 5.83,2.3 -14.46,0.54 -3.62,-21.1 -6.57,-40.1 -11.41,-61.99 -63.62,-1.57 -25.97,-16.38 -70.31,-14.26 -93.79,4.51 -9.86,-27.83 -73.33,-1.5 -15.54,-36.75 -6.28,-36.86 -35.43,-37.24 -25.58,-0.32 -27.39,11.05 -48.36,3.09 -21.39,-8.11 -17.28,-19.65 -39.72,-23.99l-26.97 0.52c-1.44,-0.16 -3.47,-0.5 -4.86,-0.78 -1.38,-0.27 -3.31,-1.05 -4.66,-1.42 -76.89,-21.33 3.29,5.24 -92.52,-10.22 -31.47,-5.07 -172.08,41.01 -208.76,67.88l-137.14 90.52c-9.64,8.31 -10.32,10.65 -14.89,17.14 -27.23,38.62 -7.66,21.73 -49.56,43.38 -32.88,16.99 -70.17,73.29 -98.94,104.13 -73.46,78.76 -84.97,134.64 -137.85,186.08l-91.01 104.17c-47.06,54.42 -59.67,88.29 -81.76,159.55 -20.19,65.06 3.02,64.11 -35.64,47.47 28.32,71.16 -34.21,10.07 8.11,111.01 -15.35,22.77 -15.6,13.27 -20.23,42.58l15.02 11.42zm1169.63 -1448.74c9.85,2.85 7.03,1.55 20.15,1.92l128.37 -2.45c89.12,4.8 94.51,14.92 139.13,-40.74 92.93,-115.91 48.66,-101.26 135.22,-88.5 282.98,41.73 371.39,103.04 613.09,195.08 2.33,0.89 10.21,17.59 11.64,3.87 0.18,-1.71 4.06,1.38 6.14,1.9l8.66 30.11c22.31,40.81 54.07,160.04 74.87,215.67 28.26,75.56 58.53,146.69 90.99,220.24 160.27,363.07 259.34,458.98 423.68,757.12 25.87,46.94 194.55,400.28 195.45,401.18 59,250.24 125.29,433.64 129.04,703.03 2.19,156.9 -17.71,317.29 -49.23,466.75 -26.59,126.09 -121.37,467.08 -175.36,573.01 -19.62,38.47 -25.21,69.51 -39.35,102.63 -45.65,106.94 -239.32,512.08 -316.91,563.81 -16.19,9.32 -33.9,21.5 -54.12,34.77l-140.22 128.64c-114.53,96.1 -345.87,273.86 -494.07,289.35 -10.96,1.15 -22.42,3.16 -34.42,6.28 -25.17,6.56 -43.74,17.22 -68.88,25.17 -126.24,39.99 -345.48,56.93 -441.75,-54.05 -18.18,-20.94 5.75,-15.26 -64.05,-18.11 -46.13,-1.9 -90.48,-5.07 -134.87,-10.15 -170.87,-19.54 -339.26,-53.92 -500.32,-120.85 -182.45,-75.82 -94.14,-44.76 -196.04,-35.51 -56.45,5.13 -47.06,0.06 -84.57,-1.15 -91.5,-2.96 -101.7,58.64 -243.07,-33.23 -11.37,-7.39 -14.45,-10.51 -25.68,-17.84 -119.7,-78.02 -183.05,-126.09 -289.96,-232.65 -42.59,-42.45 -53.71,-85.87 -86.65,-144.21 -21.43,-37.99 -22.69,-19.37 -36.1,-66.16 -16.98,-59.21 -0.62,-41.69 -3.66,-75.19 -4.16,-45.82 -56.71,-54.18 -2.47,-124.43 -13.36,-30.24 -31.54,-52.31 -49.19,-76.98l-149.92 -250.89c-155.3,-340.3 -230.63,-565.23 -257.52,-938.85 -2.17,-30.15 -2.74,-56.18 -3.69,-86.45 -7.7,-244.55 28.95,-498.11 88.97,-721.69 7.34,-27.3 18.29,-46.78 25.5,-74.42 8.44,-32.4 11.26,-44.18 22.35,-75.55l161.67 -357.62c52.09,-96.38 44.24,-37.95 37.78,-93.02 -2.04,-17.31 2.62,-2.07 -3.37,-10.31 -13.52,-18.62 -14.77,17.48 -5.75,-3.87 9.28,-58.69 57.94,-112.98 96.71,-163.18 19.84,-25.71 33.74,-50.66 61.04,-74.03 30.35,-25.98 54.38,-48.16 77.28,-70.53 83.44,-81.53 192.53,-205.26 253.55,-310.55 -6.7,9.02 -6.5,0.44 1.22,11.05 30.11,67.14 24.51,239.36 80.74,282.25 76.32,12.07 355.67,-356.75 419.2,-423.06 32.56,-15.13 101.46,-53.91 135.37,-55.54 60.29,-2.9 92.87,14.82 136.73,-27.46 87.37,-84.25 294.42,-540.5 294.08,-640.99 69.13,314.81 -26.04,543.39 -23.66,618.75 45.75,-29.19 65.1,-88.18 106.23,-112.37z"/>
    <path class="fil5" d="M6920.76 8381.82c-29.8,21.08 -56.29,53.83 -66.84,85.71 -15.3,46.3 -50.06,274.54 126.04,183.59 17.57,-76.67 -3.78,-139.95 -36.45,-216.15l-22.75 -53.15zm2734.07 1121.39c-345.02,55.59 -223.5,17.14 -542.96,43.25 -109.94,-5.19 -232.3,-19.29 -335.26,-32.53l-398.74 -0.54c-36.65,-23.55 -73.06,-30.64 -107.96,-42.45 -145.74,-49.36 -441.87,-229.7 -590.91,-322.37 -32.29,-20.07 -61.87,-46.83 -94.35,-60.53 -66.58,52.38 -80.86,104.96 -190.4,132.55 -138.67,34.91 -253.58,-32.47 -364.33,-104.78 -162.75,-106.26 -337.39,-328.27 -451.64,-424.82 -111.73,-94.41 -195.05,-155.78 -287.29,-304.34 -100.38,-161.66 -89.21,-314.35 36.59,-411.59 135.48,-104.7 277.92,0 368.35,66.39 100.67,73.91 206.06,189.93 296.11,296.47 20.68,24.47 251.87,340.81 268.65,346.35l-323.39 -851.51 -112.31 -249.49c16.08,-17.06 30.2,-21.56 23.33,-53 -11.94,-54.69 -7,-15.14 -27.64,-33.39l5.7 -22.29c16.46,-52.99 13.34,-14.16 14.08,-49.84 1.09,-52.81 -23.1,-65.22 -1.04,-114.88 15.18,-34.16 8.66,6.54 11.04,-33.35 1.19,-20.24 -13.17,-80.14 -11.87,-121.06 0.7,-22.32 0.25,-15.47 7.71,-31.98 15.27,-33.83 18.91,-22.53 17.39,-67.71 -2.18,-64.93 6.59,-62.99 3.97,-90.01 -3.94,-40.58 -15.51,-26.03 5.07,-62.71 163.09,388.08 347.01,779.74 516.03,1171.91 186.31,432.28 288.76,685.02 595.33,974.82 125.04,118.2 245.96,202.4 372.76,275.05 165.14,94.62 223.73,113.37 429.25,96.66 500.32,69.13 828.81,101.78 868.73,81.72z"/>
    <path class="fil6" d="M7442.76 5572.98c-53.54,44.15 -145.1,316.43 -411.9,474.26 -25.76,256.24 -52.17,465.02 -97.55,712.91 -7.67,42.15 -49.71,209.23 -46.24,230.8 -19.07,34.07 -8.35,20.58 -4.66,58.23 2.44,25.11 -5.7,23.3 -3.7,83.56 1.41,41.96 -1.98,31.5 -16.18,62.93 -6.93,15.3 -6.48,8.92 -7.15,29.67 -1.2,38.02 12.16,93.62 11.05,112.42 -2.21,37.06 3.82,-0.78 -10.26,30.95 -20.49,46.13 1.97,57.64 0.95,106.73 -0.68,33.11 2.23,-2.96 -13.06,46.24l-5.28 20.7c19.15,16.96 14.56,-19.78 25.66,30.99 6.35,29.21 -6.72,33.37 -21.64,49.25l-240.15 -499.01c4.86,-26.92 14.18,-52.64 20.88,-78.62 51.23,-199.76 77.82,-283.03 112.22,-514.32 43.56,-292.66 38.35,-350.99 47.01,-632.6 356.85,-178.84 617.44,-494.76 789.9,-849.5l61.46 -140.3c43.98,211.39 -98.93,518.39 -191.36,664.71z"/>
    <path class="fil2" d="M6811.34 8389.58c30.34,70.75 50.17,129.53 33.85,200.71 -163.52,84.46 -131.25,-127.49 -117.04,-170.47 9.79,-29.6 34.39,-60.02 62.07,-79.59l21.12 49.35z"/>
    <path class="fil7" d="M10560.29 6335.02c58.65,55.02 105.16,140.29 124.48,228.94 8.69,39.9 11.34,77.81 7.45,116.44 -5.85,58.27 -15.17,52.89 -31.39,99.22 -59.73,48.36 -108.16,91.08 -193.73,54.98 -125.65,-53.01 -160.84,-105.6 -232.61,-264.25 -24.83,-59.32 -27.35,-131.22 -15.29,-181.87 8.29,-34.84 36.61,-119.67 100.9,-125.23 -41.55,85.49 63.47,180.73 121.94,206.9 30.79,13.79 80.96,32.77 121.12,-6.42 33.71,-32.88 16.72,-79.59 -2.87,-128.71z"/>
    <path class="fil8" d="M10645.39 6913.15c-159.13,58.5 -286.7,-67.15 -370.5,-190.81 -30.83,-45.49 -64.02,-118.38 -94.9,-151.78 -75.48,70.75 132.48,399.53 334.61,414.72 27.93,2.1 178.51,-13.33 130.79,-72.13zm-371.14 -797.62c2.08,29.64 7.06,2.23 -13.85,28.35 -13.19,16.48 -23.94,25.75 -32.86,49.17l-29.52 106.73c-16.65,60.33 2.76,56.65 -1.69,107.33l-1.62 10.48c-9.03,76.22 46.49,154.01 46.38,153.27 -0.15,-1 2.52,2.66 4.02,3.61 71.78,158.65 106.96,211.24 232.61,264.25 85.58,36.1 134.01,-6.61 193.74,-54.98l27.22 -14.08c-0.68,23.09 -5.49,24.79 5.14,46.07 94.84,2.04 82.83,-169.17 85.5,-179.3l2.25 4.76c39.76,87.43 19.72,239.98 -11.89,291.05 -44.38,125.53 -239.26,144.65 -321.15,94.27 -29.46,-18.13 -64.76,-39.12 -94.99,-64.02 -147.27,-121.26 -221.39,-279.36 -269.54,-476.8 -6.28,-95.38 -11.34,-145.91 16.44,-222.33 37.06,-101.94 64.39,-101.76 163.81,-147.83z"/>
    <path class="fil9" d="M10093.21 6470.06c48.13,197.45 122.24,355.55 269.52,476.82 30.26,24.88 65.54,45.89 94.98,64.02 81.91,50.37 276.77,31.22 321.18,-94.29 9.52,24.12 26.62,44.98 40.57,64.99 42.2,-23.36 70.52,-52.18 88.33,-91.66 -28.84,131.27 -272.98,315.99 -444.19,336.21 -37.49,4.47 -85.08,-11.07 -119.79,-18.74 -58.97,-13.07 -57.62,-9.33 -103.57,-72.63 -32.05,-44.05 -51.83,-73.67 -83.25,-124.49 -29.46,-47.61 -159.95,-283.95 -147.54,-315.79 47.34,82.31 30.4,88.7 123.43,227.96 25.42,38 45.32,57.79 79.13,74.1 39.38,19.03 61.71,24.79 103.21,-12.08 -2.09,-66.58 -47.5,-26.79 -66.03,-100.15 -26.46,-31.69 -72.1,-93.17 -92.38,-135.43 -8.69,-18.16 -98.67,-273.64 -63.6,-278.84z"/>
    <path class="fil10" d="M10786.18 6650.85l-2.25 -4.76c-2.67,10.13 9.34,181.35 -85.5,179.31 -10.63,-21.29 -5.82,-22.99 -5.14,-46.08l-27.22 14.08c16.21,-46.33 25.53,-40.95 31.39,-99.21 3.88,-38.63 1.24,-76.54 -7.46,-116.44 -19.31,-88.66 -65.82,-173.93 -124.48,-228.95 -16.66,-11.64 -32.04,-40.81 -50.04,-56.44 -62.92,-54.65 -130,-77.11 -190.15,-15.32 -64.29,5.55 -92.6,90.39 -100.9,125.22 -12.06,50.66 -9.54,122.55 15.29,181.88 -1.5,-0.96 -4.17,-4.62 -4.02,-3.61 0.11,0.73 -55.41,-77.05 -46.38,-153.27l1.62 -10.48c4.45,-50.68 -14.96,-47 1.68,-107.33l29.53 -106.73c8.92,-23.42 19.67,-32.7 32.86,-49.17 20.91,-26.13 15.93,1.28 13.85,-28.36 90.97,-33.06 240.55,63.57 315.65,138.64 77.54,77.5 131.92,168.46 174.24,274.69l27.43 112.33z"/>
    <path class="fil10" d="M10645.02 6913.74c47.72,58.8 -102.86,74.23 -130.78,72.13 -202.14,-15.19 -410.1,-343.97 -334.62,-414.72 30.88,33.4 64.08,106.29 94.91,151.78 83.79,123.66 211.36,249.31 370.49,190.81z"/>
    <path class="fil7" d="M10565.52 6348.8c58.66,55.02 105.17,140.29 124.48,228.95 8.7,39.9 11.34,77.81 7.46,116.44 -5.86,58.26 -15.18,52.88 -31.39,99.21 -59.74,48.37 -108.16,91.09 -193.74,54.99 -125.65,-53.01 -160.83,-105.61 -232.61,-264.25 -24.83,-59.33 -27.35,-131.22 -15.29,-181.88 8.3,-34.84 36.61,-119.67 100.9,-125.22 -41.55,85.48 63.47,180.73 121.94,206.9 30.8,13.78 80.96,32.76 121.13,-6.42 33.71,-32.88 16.71,-79.59 -2.88,-128.72z"/>
    <path class="fil11" d="M10637.88 6914.33c-159.12,58.5 -286.69,-67.14 -370.49,-190.8 -30.83,-45.49 -64.02,-118.39 -94.9,-151.79 -75.48,70.75 132.48,399.54 334.61,414.72 27.93,2.1 178.51,-13.33 130.78,-72.13zm-371.13 -797.62c2.08,29.64 7.06,2.23 -13.85,28.36 -13.2,16.47 -23.94,25.75 -32.86,49.16l-29.53 106.73c-16.64,60.34 2.77,56.66 -1.68,107.34l-1.62 10.48c-9.03,76.22 46.49,154 46.38,153.27 -0.15,-1.01 2.52,2.65 4.02,3.61 71.78,158.64 106.96,211.24 232.61,264.24 85.58,36.11 134.01,-6.61 193.74,-54.98l27.22 -14.08c-0.68,23.09 -5.49,24.79 5.14,46.08 94.84,2.04 82.83,-169.18 85.5,-179.31l2.25 4.76c39.76,87.43 19.72,239.99 -11.9,291.06 -44.37,125.52 -239.25,144.65 -321.14,94.26 -29.46,-18.12 -64.76,-39.12 -94.99,-64.01 -147.27,-121.27 -221.39,-279.36 -269.54,-476.81 -6.28,-95.38 -11.34,-145.9 16.44,-222.33 37.06,-101.94 64.39,-101.76 163.81,-147.83z"/>
    <path class="fil9" d="M10092.41 6461.38c48.14,197.45 129.53,367.17 276.82,488.45 30.25,24.87 65.54,45.89 94.97,64.01 81.91,50.38 276.78,31.22 321.18,-94.29 9.52,24.12 26.63,44.98 40.57,64.99 42.2,-23.36 70.52,-52.18 88.33,-91.65 -28.84,131.27 -272.98,315.99 -444.19,336.2 -37.49,4.48 -85.07,-11.06 -119.79,-18.74 -58.96,-13.07 -57.63,-9.38 -103.57,-72.63 -32.05,-44.05 -51.82,-73.67 -83.25,-124.49 -29.46,-47.6 -159.94,-283.95 -147.54,-315.79 47.35,82.31 30.4,88.71 123.44,227.97 25.42,37.99 45.31,57.78 79.13,74.09 39.37,19.03 61.71,24.79 103.2,-12.08 -2.08,-66.57 -29.48,-71.09 -66.83,-115.77 -26.46,-31.69 -54.24,-77.28 -74.52,-119.55 -8.69,-18.15 -123.01,-285.52 -87.95,-290.72z"/>
    <path class="fil12" d="M10791.56 6641.21l0 0c-2.68,10.13 1.44,183.35 -93.38,181.3 -10.62,-21.27 -5.85,-22.97 -5.16,-46.07l-27.19 14.09c16.21,-46.34 25.52,-40.94 31.36,-99.19 3.9,-38.64 1.25,-76.6 -7.44,-116.45 -19.32,-88.7 -65.82,-173.92 -124.48,-228.98 -16.69,-11.64 -32.03,-40.82 -50.07,-56.45 -62.89,-54.63 -129.98,-77.07 -190.12,-15.32 -64.32,5.57 -92.59,90.41 -100.89,125.24 -12.08,50.69 -9.56,122.58 15.26,181.9 -1.48,-0.99 -4.18,-4.63 -3.99,-3.64 0.08,0.73 -55.42,-77.02 -46.4,-153.25l1.64 -10.48c4.42,-50.69 -15.01,-47.02 1.64,-107.35l29.54 -106.72c8.94,-23.44 19.66,-32.67 32.85,-49.18 20.91,-26.12 15.94,1.33 13.88,-28.34 90.97,-33.06 235.48,29.57 310.58,104.6 77.56,77.54 142.65,195.69 184.96,301.94l27.41 112.35z"/>
    <path class="fil12" d="M10645.02 6913.74c47.72,58.8 -102.86,74.23 -130.78,72.13 -202.14,-15.19 -410.1,-343.97 -334.62,-414.72 30.88,33.4 64.08,106.29 94.9,151.78 83.8,123.66 211.37,249.31 370.5,190.81z"/>
    <path class="fil13" d="M10908.59 6905.57c-17.8,39.47 -46.13,68.3 -88.33,91.65 -13.94,-20 -31.05,-40.87 -40.57,-64.99 31.62,-51.05 51.64,-203.59 11.87,-291.02l-27.41 -112.35c-42.31,-106.25 -102.39,-190.37 -179.94,-267.91 -75.1,-75.03 -218.98,-178.48 -309.95,-145.41 -99.43,46.09 -126.76,45.86 -163.83,147.84 -27.79,76.41 -22.71,126.95 -16.42,222.31 -35.06,5.19 71.97,260.94 80.67,279.1 20.28,42.26 48.05,87.85 74.51,119.54 37.35,44.68 64.75,49.2 66.83,115.77 -41.49,36.87 -63.83,31.12 -103.2,12.08 -33.82,-16.31 -53.71,-36.1 -79.13,-74.09 -93.04,-139.26 -76.09,-145.66 -123.44,-227.97 -120.69,-287.57 -80.38,-755.54 254.79,-723.93 99.11,9.33 228.11,83.92 304.09,157.82 59.84,58.16 118.09,128.22 169.08,210.55 65.3,105.47 258.32,469.86 170.38,551.01z"/>
    <path class="fil14" d="M10567.81 6335.36c20.2,50.63 37.71,98.77 2.96,132.67 -41.39,40.38 -93.09,20.82 -124.83,6.61 -60.27,-26.97 -168.51,-125.14 -125.69,-213.25 62,-63.68 131.13,-40.54 195.98,15.79 18.55,16.11 34.41,46.18 51.58,58.18z"/>
    <path class="fil15" d="M10486.91 8279.43c-11.92,-4.18 8.95,-15.18 -18.31,7.01l-45.09 50.21c-21.54,23.68 -39.65,44.17 -59.23,66.21 -177.18,199.42 -206.3,248.15 -470.56,262.82 -123.06,6.83 -487.7,4.7 -589.03,-46.09 -16.79,-8.42 -51.48,-42.86 -59.17,-44.8 37.52,48.16 65.26,62.24 123.49,62.77 86.26,0.79 381.55,-93.45 470.53,-122.11 186.68,-60.13 499.47,-194.38 647.37,-236.02z"/>
    <g>
     <path class="fil16" d="M8591.8 6703.28c-28.89,-79.45 -114.26,-126.29 -165.13,-154.8 -215.85,-120.97 -524.29,-33.32 -656.19,104.4 81.62,32.85 27.22,-7.61 99.04,22.03 56.42,23.29 46.24,-1.7 105.19,4.28 60.33,6.12 161.04,-69.37 423.7,-22.15 37.09,6.67 60.01,12.4 98.15,23.43 49.69,14.37 61.68,28.77 95.24,22.81zm-430.05 -251.29c25.9,6.05 91.3,2.66 125.84,7.72 228.33,33.4 305.01,144.07 345.25,156.32 17.39,37.6 67.46,68.87 86.45,133.95 12.71,43.6 -6.89,91.6 -75.73,56.18 -40.76,-20.96 -189.26,-75.81 -225.14,-66.76 -58.35,-46.59 -441.38,-65.66 -614.48,182.17 -156.34,223.83 -159.75,573.63 -252.46,566.57 -98.29,-47.19 -102.79,-254.56 -94.37,-347.91 21.76,-241.31 124.92,-440.13 328.64,-565.66 142.29,-87.68 235.4,-94.36 376,-122.58z"/>
     <path class="fil17" d="M8623.08 6723.3c-35.3,5.96 -48.11,-9.71 -100.65,-25.87 -40.33,-12.4 -64.56,-18.89 -103.73,-26.57 -277.39,-54.45 -382.61,25.5 -446.26,18.08 -62.2,-7.24 -51.17,19.81 -110.92,-6.04 -76.04,-32.91 -18.22,11.41 -104.64,-25.08 137.33,-146.55 461.33,-236.77 690.28,-103.52 53.96,31.4 144.5,83.02 175.92,169z"/>
    </g>
    <path class="fil18" d="M9767.24 6199.05c-30.5,19 -84.27,90.41 -140.45,-79.1 -33.67,-101.6 -27.36,-172.19 -40.66,-209.12 18.68,-59.84 -43.41,-403.4 336.38,-550.93 250.2,-97.19 523.22,75.18 565.3,220.39 -40.81,24.81 -102.06,1.68 -141.11,-6.34 -132.97,-27.3 -325.45,-78.15 -437.82,48.79 -118.65,134.03 -153.71,319.79 -137.99,497.86 4.28,48.42 -4.12,46.17 -3.65,78.45z"/>
    <path class="fil19" d="M8620.46 7385c257.77,-59.96 378.66,-39.57 463.74,27.46 85.07,67.03 -20.59,241.85 -271.84,156.46 -146.94,-49.93 -494.4,352.16 -571.42,424.43 -34.65,32.5 117.98,39.58 69.17,53.17 -191.77,53.39 -326.17,216.66 -339.18,154.16 -7.83,-37.6 90.11,-68.46 126.06,-188.45 73.6,-245.56 348.38,-586.5 523.47,-627.23z"/>
   </g>
   <path class="fil20" d="M11064.02 16561.92l779.62 2811.97c27.52,522.19 -102.54,1485.76 -75.03,2007.94l237.29 1072.44c-113.32,467.08 -199.26,616.93 73.05,1004.28 50.05,71.23 20.86,417.94 65.01,502.33 -96.55,40.41 -115.43,-32.49 -123.1,-57.88 -42.48,-140.58 -105.02,-235.71 -271.69,-271.76l-280.94 0.17 -857.99 803.52 -68.57 -99.93c-36.97,-52.24 -84.82,-33.44 -121.82,-85.68l-186.93 -56.11c-12.76,-78.31 -30.09,45.59 -98.2,-44.65 -148.05,-113.28 -155.33,-488.41 -128.81,-726.89l183.94 -716.27c40.27,-433.26 -120.57,-1317.55 -156.95,-1715l-47.84 -522.64c-61.79,-53.81 -157.64,-140.44 -176.85,-292.65 22.6,-61.72 20.26,-185.89 110.22,-162.52l-297.55 -1102.54 -668.45 -1211.28 140.47 2464.81 -318.51 1744.75 33.87 1124.27 222.69 931.97 -49.43 648.69 -576.58 -253.15c-76.61,-147.51 -417.23,74.79 -570.45,34.63 -175.41,74.26 -346.09,-107.84 -529.99,216.89l-163.61 69.28 -111.63 47.27c-15.76,-109.27 -133.72,-242.4 -55.79,-470.92l193.66 -137.83c-89.07,-266.17 -371.47,-506.23 -253.63,-1023.5 108.87,-247.54 -3.7,-745.56 105.21,-993.1 -28.54,-610.35 -181.43,-1053.22 -82.21,-1759l196.46 -513.86 -584.46 -3657.25 1807.61 597.32c272.8,102.47 623.7,158.2 1061.99,228.97 287.73,46.5 709.31,7.81 885.04,12.3 147.55,-49.36 341.99,-74.85 489.55,-189.82l271.33 -259.57z"/>
   <path class="fil21" d="M10503.98 17652.2l-583.21 563.36c306.67,389.03 613.35,778.05 920.04,1167.08 243.21,522.18 -68.51,1358.5 -41,1880.7l101 595.29c296.99,1059.31 459.37,314.73 731.65,702.09 28.1,39.98 -186.08,414.87 -361.48,388.22 -136.91,-20.76 -223.04,-240.99 -203.7,-204.01 -96.55,40.41 -484.45,-732.35 -492.13,-757.71 -42.44,-140.54 -139.09,26.75 -107.06,905.22 -33.41,155.25 29.65,461.58 280.09,537.27l705.05 210.45 -489.29 207.38 -385.73 405.26c-116.35,116.82 -140.07,3.24 -256.43,120.06 -180.83,-255.55 -75.88,-86.59 -191.44,-159.03 -12.76,-78.3 88.34,-64.45 20.23,-154.65 -148.05,-113.27 -186.18,-390.28 -159.65,-628.81l183.94 -716.26c40.26,-433.23 -120.58,-1317.51 -156.95,-1714.97l-47.85 -522.64c-61.78,-53.81 -157.63,-140.43 -176.84,-292.65 22.6,-61.72 20.26,-185.89 110.22,-162.52l-297.55 -1102.57 -668.49 -1211.25 41.09 720.44c-490.35,189.62 -1101.4,-638.34 -1259.66,-147.54 -150.26,465.93 -549.43,391.25 -302.76,1835.94 136.19,797.49 -308.49,1970.11 -158.07,3337.95l1131.95 914.56c-76.61,-147.51 -417.23,74.78 -570.46,34.62 -175.4,74.26 -346.12,-107.87 -530.01,216.89l-163.58 69.29 -111.64 47.25c-15.75,-109.26 -133.71,-242.38 -55.81,-470.91l193.68 -137.82c-89.1,-266.18 -371.46,-506.24 -253.62,-1023.55 108.87,-247.51 -3.7,-745.51 105.18,-993.06 -24,-513.41 -135.99,-908.36 -111.91,-1440.96 4.55,-100.52 13.94,-205.95 29.69,-318.03l196.49 -513.86 -472.42 -3620.23 1695.57 560.29c272.81,102.47 623.71,158.21 1061.99,228.98 287.74,46.5 709.31,7.76 885.01,12.3 147.59,-49.36 254.88,-18.99 402.43,-133.97 -62.17,255.38 -124.39,510.74 -186.56,766.11z"/>
   <path class="fil22" d="M7382.4 19636.86c-0.49,10.02 6.31,-35.89 20.87,16.97 24.7,89.67 70.96,319.55 135.95,542.38 41.06,140.78 44.2,607.84 53.93,737.34 4.68,62.23 -85.06,175.91 -70.92,358.94 10.84,140.37 155.59,29.57 151.97,239.44 -7.75,448.56 30.93,805.93 -196.71,882.94 -13.63,4.61 -29.29,21.11 -31.73,8.69 -7.95,-40.4 121.23,-241.41 148.32,-360.42 42.15,-185.14 15.76,-354.2 11.36,-527.55 -3.73,-146.52 -167.63,-12.11 -133.18,-360.97 2.72,-27.52 53.96,-172.19 51.16,-357.49 -3.1,-204.61 -4.09,-372.81 -36.57,-542.31 -7.09,-37 -103.73,-652.32 -104.45,-637.96z"/>
   <path class="fil22" d="M10860.79 21704.07c1,6.26 151.42,403.42 167.18,432.2 26.73,48.84 268.72,418.69 374.56,527.97 85.07,87.82 -171.33,-4.84 -457.31,-632.78 -7.07,-15.56 -66.65,-181.57 -76.91,-252.78 -3.39,-23.48 -7.87,-76.81 -7.52,-74.61z"/>
   <g>
    <path class="fil23" d="M7443.1 11872.02c54.87,-858.87 373.93,-2201.65 1171.31,-2584.41 270.9,-130.05 948.33,68.64 1482.69,64.98 82.67,-0.56 181.12,-177.52 249.24,-241.83 66.78,-63.05 209.26,-10.63 239.56,0.14 54.56,19.4 70.08,126.6 97.97,191.58 12.45,29.01 -204.32,50.81 -214.94,82.56 -141.69,423.5 -197.2,1162.08 -241.88,1809.31 0,0 1349.23,-338.24 1368.57,-257.82 14.27,59.31 -370.31,384.27 -474.97,634.2 -82.34,196.66 -116.18,-22.73 -109.96,-6.59 108.65,282 -320.34,2467.8 -74.65,2882.75 76.12,128.57 -5.85,1671.4 80.94,1583.45 79.48,-80.52 186.92,87.89 201.61,163.85 181.67,939.47 -1399.5,1125.27 -1890.59,1005.99 -380.23,-92.35 -1912.08,-213.4 -2590.46,-687.5 -194.44,-135.88 -249.55,-309.18 -293.67,-572.97 -14.59,-87.23 29.42,-652.86 205.69,-1300.9 55.19,-202.89 -88.08,-390.38 -81.36,-428.97 37.48,-215.13 445.08,-547.16 541.19,-924.5 170.52,-669.46 311.1,-1059.46 333.71,-1413.32z"/>
    <path class="fil24" d="M11596.71 10931.03c44.44,6.25 -370.31,384.27 -474.97,634.2 -82.35,196.66 -116.18,-22.73 -109.96,-6.59 108.65,282 -320.34,2467.8 -74.65,2882.75 76.11,128.57 -5.85,1671.4 80.94,1583.45 79.48,-80.52 186.92,87.89 201.61,163.85 181.67,939.47 -1385.32,1125.92 -1890.59,1005.99 -283.4,-67.25 -573.65,-68.62 -733.13,-136.51 -39.77,-16.93 -84.18,-190.25 -84.37,-244.62 -2.58,-759.9 967.06,-2078.33 1023.51,-3099.7 5.02,-90.87 -903.85,-627.14 -851.62,-676.22 81.97,-77.05 797.77,-427.93 874.15,-495.19 283.03,-249.2 436.08,-355.18 562.82,-435.38 66.79,-42.27 302.04,-57.59 350.8,-98.03 56.57,-46.92 158.54,-121.49 214.83,-335.86 61.27,-233.32 74.79,-605.86 79.12,-606.89 103.93,-24.76 642.58,-161.8 831.51,-135.25z"/>
    <path class="fil22" d="M8614.41 9287.61c-68.2,0 -297.73,511.85 -372.11,1430.4 -74.38,918.54 353.65,1691.59 313.68,1478.11 -39.98,-213.49 -262.58,-556.26 -262.58,-1311.11 0,-269.61 72.43,-815.25 134.07,-1038.92 98.29,-356.71 230.78,-558.48 186.94,-558.48z"/>
    <path class="fil22" d="M10131.78 9358.83c-35.66,0 -164.25,239.05 -228.7,621.12 -64.44,382.06 -61.98,860.36 -31.79,814.02 30.19,-46.35 -1.08,-350.89 55.69,-697.56 19.76,-120.67 74.79,-378.38 107.03,-481.1 51.41,-163.8 120.71,-256.48 97.77,-256.48z"/>
    <path class="fil22" d="M9980.67 11379.27c-14.79,13.97 -20.38,163.42 29.15,347.04 49.54,183.62 146.01,380.93 149.28,349.9 3.26,-31.04 -70.48,-145.04 -116.13,-310.98 -15.89,-57.76 -44.51,-186.14 -51.65,-241.35 -11.38,-88.03 -1.14,-153.59 -10.65,-144.61z"/>
    <path class="fil22" d="M10793.57 12223.42c-7.33,11.21 31.6,-34.19 13.3,47.62 -31.04,138.8 -130.87,472.07 -203.77,821.74 -46.05,220.92 -602.95,1175.8 -710.08,1303.54 -84.19,100.36 -153.4,233.91 -296.14,434.97 -158.9,223.81 -451.76,639.86 -559.07,807.61 -14.16,22.14 -50.82,-15.05 -43.42,-31.58 50.16,-112.01 224.79,-342.76 479.62,-721.34 108.67,-161.46 195.82,-335.72 368.93,-552.17 22.42,-28.02 202.53,-303.33 323.83,-526.53 133.94,-246.43 383.05,-606.14 391.69,-785.22 2.79,-57.86 245.63,-814.71 235.11,-798.64z"/>
    <path class="fil22" d="M8665.11 13027.7c5.32,-4.83 -19.77,21.29 5.62,11.09 43.08,-17.31 156.19,-76.87 262.69,-116.7 67.28,-25.16 612.62,-358.58 682.3,-430.38 54.74,-56.42 315.89,-231.8 415.67,-326.4 111.06,-105.3 380.69,-101.85 459.43,-172.39 10.37,-9.3 -26.78,-21.57 -33.3,-16.89 -44.36,31.79 -320.13,67.94 -510.35,218.54 -69.28,54.85 -228.81,145 -370.43,274.31 -11.91,10.87 -78.32,61.99 -165.54,115.87 -24.96,15.42 -202.43,131.26 -226.6,139.31 -45.56,15.19 -199.23,135.7 -250.02,163.86 -13.07,7.24 -277.11,146.7 -269.47,139.78z"/>
    <path class="fil22" d="M10995.7 11017.69c17.23,1.23 59.22,107.8 58.2,273.25 -1.02,165.45 -42.46,369.69 -53.14,348.85 -10.68,-20.84 30.05,-149.86 31.8,-299.92 0.61,-52.24 -4.29,-164.23 -11.21,-209.23 -11.05,-71.76 -36.73,-113.75 -25.65,-112.95z"/>
    <path class="fil25" d="M10719.49 11580.21c-25.51,132.31 -71.47,240.55 -166,380.38 -94.53,139.84 -133.94,-154.57 -187.74,-278 -99.09,-227.37 -181.3,-470.32 -123.41,-487.81 38.7,-11.69 114.19,-29.5 188.68,-46.13 82.07,-18.32 345.95,-82.37 345.95,-82.37 -9.07,210.99 -34.44,394.4 -57.48,513.93z"/>
    <path class="fil22" d="M10227.05 11194.35c-10.38,9.8 -3.98,100.39 30.82,229.37 34.79,128.98 102.56,267.58 104.86,245.78 2.29,-21.8 -49.51,-101.88 -81.58,-218.44 -11.16,-40.58 -31.26,-130.76 -36.27,-169.53 -7.99,-61.84 -11.15,-93.48 -17.83,-87.18z"/>
   </g>
   <g>
    <path class="fil26" d="M11222.19 4772.55l5433.3 -3351.98c38.45,410.08 -4.41,236.66 34.04,646.74 14.87,139.44 47.45,456.79 178.22,878.22l383.42 695.3 -2205.24 964.72 -3541.16 1284.94c-162.84,-46.35 -304.38,-429.71 -311.8,-553.6 -18.08,-131.43 -17.51,-289.02 7.99,-399.61l21.23 -164.73z"/>
    <path class="fil27" d="M16674.65 1208.84l936.78 -489.08c-81.21,342.8 -21.3,703.07 47,962.24 63.12,239.5 173.44,717.72 236.56,957.21l219.27 459.92 169.95 173.38 -996.39 405.58c-176.28,-196.58 -329.13,-466.24 -441.54,-716.5 -89.03,-239.18 -175.92,-679.63 -213.85,-915.82l-13 -496.95 55.22 -339.98z"/>
    <path class="fil28" d="M17677.82 2351.06l523.97 955 -890.01 362.29 -64.28 -32.53 -2276.26 978.69 -3460.48 1255.67c-159.13,-45.3 -297.44,-419.93 -304.7,-541 639.38,-254.29 2720.76,-758.7 4892.45,-1768.45 202.86,-94.32 1376.8,-1111.65 1579.31,-1209.67z"/>
    <path class="fil27" d="M14292.44 2878.41c0,0 -58.9,280.05 -26.02,570.13 20.75,183.05 117.77,446.78 159.46,541 74.02,167.28 158.44,285.06 180.11,328.47 0,0 278.58,341.93 278.58,341.93 -63.63,15.1 -612.61,279 -651.13,270.3 -251.44,-56.79 -489.67,-850.8 -489.67,-850.8 -85.16,-256.58 -80.47,-620.71 -17.54,-831.03 22.57,-75.46 391.25,-287.66 566.21,-370z"/>
    <path class="fil29" d="M11266.44 4744.65c29.77,71.06 -38.56,457.11 8.92,652.29 47.47,195.18 347.14,529.7 146.93,563.93 0,0 -75.97,75.56 -118.69,53.41 -130.2,-67.53 -251.9,-349.95 -277.01,-623.26 -16.71,-182.07 -40.19,-407.86 29.26,-557.66 68.99,-148.81 195.77,-124.11 210.59,-88.71z"/>
    <polygon class="fil30" points="16718.93,1299.07 17422.95,965.81 17406.76,1164.95 16692.31,1496.63 "/>
    <g>
     <ellipse class="fil31" transform="matrix(0.460657 -0.289435 0.233081 0.801394 17945.7 1977.51)" rx="770.6" ry="1596.37"/>
     <ellipse class="fil27" transform="matrix(0.387547 -0.243499 0.196088 0.674205 17957.1 1994.38)" rx="770.6" ry="1596.37"/>
    </g>
   </g>
   <path class="fil3" d="M11271.71 9061.3c84.7,-24.45 230.58,-80.7 357.39,-111.37 75.06,-18.15 143.46,-27.32 188.5,-15.67 14.56,3.76 245.39,-799.46 260.81,-1568.08 14.36,-715.19 27.49,-1205.52 -10.2,-1615.94 -1.95,-21.22 -155.38,-482.77 -186.29,-931.85 -19.23,-279.21 10.39,-674.9 51.51,-809.33 69.02,-225.56 253.58,-405.06 265.21,-375.99 5.92,14.78 84.16,-153.97 166.91,-240.92 81.54,-85.66 167.48,-90.05 192.93,-6.93 8.5,27.75 73.98,-58.11 140.57,-39.53 49.31,13.77 104.37,130.1 110.58,155.82 30.75,127.33 12.49,-84.94 211.01,-123.5 0,0 56.89,49.88 36.4,140.76 -80.75,358.19 -30.08,946.94 -37.3,1446.98 -2.47,170.8 62.59,307.4 55.19,459.15 -8.28,169.91 -96.47,262.72 -119,405.88 -27.15,172.58 12.09,387.34 20.54,490.4 119.22,1453.44 108.43,2461.98 114.12,2622.41 20.96,590.56 11.95,1285.61 -130.33,1481.85 -284.46,392.33 -1680.69,705.99 -1977.35,705.99 -187.88,0 -690.17,214.95 -701.52,126.39 -21.12,-164.81 82.11,-1242.3 114.38,-1518.18 22.33,-190.98 65.14,-439.5 125.85,-463.32 202.93,-79.63 355.72,-101.19 750.09,-215.02z"/>
   <path class="fil19" d="M11961.68 10646.54c84.69,-24.43 686,-281.06 812.8,-311.71 52.13,-12.6 191.17,37.61 138.06,110.09 -318.9,435.26 -1680.69,705.99 -1977.35,705.99 -187.88,0 -690.17,214.94 -701.52,126.38 -21.11,-164.8 27.9,-637.64 60.15,-913.5 12.45,-106.54 53.6,205.97 224.71,338.2 135.57,104.75 406.01,25.68 433.36,33.04 233.03,62.72 615.44,25.31 1009.79,-88.49z"/>
   <path class="fil19" d="M11791.47 8929.96c44.02,0 -112.04,226.71 -116.64,381.87 -4.59,155.16 100.56,210.52 85.9,273.25 -14.66,62.74 -124.38,-113.37 -122.98,-260.07 1.4,-146.7 109.7,-395.05 153.72,-395.05z"/>
   <path class="fil19" d="M12204.09 3624.83c0,0 -54.96,315.79 -59.55,470.95 -4.6,155.16 -8.6,476.75 -23.26,539.48 -14.66,62.74 -50.48,-176.69 -2.54,-586.94 47.94,-410.24 85.35,-423.49 85.35,-423.49z"/>
   <path class="fil19" d="M12492.78 3463.06c0,0 -54.95,315.78 -59.54,470.94 -4.6,155.16 -8.6,476.76 -23.26,539.49 -14.66,62.74 -50.48,-176.7 -2.54,-586.94 47.94,-410.24 85.34,-423.49 85.34,-423.49z"/>
   <path class="fil19" d="M12794.15 3512.3c0,0 -54.95,315.79 -59.55,470.95 -4.59,155.16 -8.6,476.75 -23.26,539.49 -14.65,62.73 -50.47,-176.7 -2.53,-586.94 47.93,-410.25 85.34,-423.5 85.34,-423.5z"/>
   <path class="fil32" d="M12132.36 4511.33c55.17,108.27 151.16,209.69 277.62,-37.84 56.84,-8.78 103.65,167.12 147.46,169.16 91.85,4.26 125.4,-148.3 153.9,-119.91 65.8,65.53 -20.78,384.83 -375.37,746.55 43.7,52.07 27.61,39.74 82.48,33.74l9.18 230.7c1.34,229.51 15.46,462.1 17.24,689.7l17.07 684.24c10.18,371.41 13.46,781.77 28.24,1147.53 3.14,77.58 1.88,150.74 5.26,226.21l14.26 576.65c1.11,40.64 37.5,89.88 57.39,135.39l-806.36 591.63c-168.46,-237.9 4.01,-266.92 81.44,-698.82 60.42,-336.99 183.42,-779.93 189.24,-1133.93 3.52,-214.24 47.13,-1163.43 60.9,-1194.67 -1.24,-34.62 36.03,-62.54 -24.1,-807.42 -203.04,-495.69 -142.66,-614.91 -192.22,-1100.75 102.52,-359.49 -46.7,121.99 256.37,-138.16z"/>
   <path class="fil3" d="M13968.71 5931.22c7.4,-30.15 -255.15,-276.38 -210.21,-576.87 12.45,-83.24 -234.18,-942.86 -173.49,-1007.53 105.7,-112.64 279.71,197.81 422.58,585.62 0,0 138.57,-78.71 237.62,-101.76 273.35,-63.63 656.15,-300.29 720.03,-274.56 77.05,31.03 -240.82,1362.33 -240.82,1456.1 0,372.84 -205.08,3559.07 -400.99,3559.07 -57.71,0 -1035.76,976 -1268.81,799.25 -304.49,-230.94 -15.88,-1559.92 -74.51,-1628.35 -59.69,-69.68 354.01,-179.73 394.83,-299.65 123.44,-362.62 541.14,-2297.07 593.77,-2511.32z"/>
   <path class="fil19" d="M15173.52 4453.17c3.24,-0.24 26.49,-82.42 29.44,-90.55 16.5,-45.57 15.18,-28.81 5.96,5.65 -7.78,29.07 -16.57,43.96 -22.12,68.59 -2.46,10.94 -14.52,16.4 -13.28,16.31z"/>
   <path class="fil33" d="M13301.84 8535.71c80.24,-112.92 153.02,320.51 18.17,844.36 -134.86,523.85 -147.29,940.06 -261.05,940.06 -113.76,0 27.92,-434.88 27.92,-874.46 0,-238.38 -54.08,-651.37 0,-795.92 9.37,-25.06 59.02,-28.23 74.1,-39.59 58.1,-43.74 119.92,-44.99 140.86,-74.45z"/>
   <path class="fil32" d="M14458.02 7044.89l17.07 684.23c10.18,371.41 -548.61,686.34 -533.83,1052.11 3.14,77.57 1.88,150.74 5.25,226.21l184.59 361.93c1.11,40.64 -139.17,326.39 -154.54,401.08l-210.6 257.88 -382.18 269.32 -329.16 72.89c-168.47,-237.91 161.2,-326.36 238.63,-758.25 60.41,-336.98 71.38,-676.7 77.18,-1030.67 4.1,-249.98 180.74,-575.01 218.15,-763.02 200.37,-1007.02 651.4,-1056.15 869.44,-773.71z"/>
   <path class="fil32" d="M14754.8 4803.51l8.74 162.45c5.21,88.19 -280.79,162.96 -273.22,249.8 1.6,18.42 0.96,35.79 2.69,53.71l94.47 85.93c0.57,9.65 -71.23,77.5 -79.09,95.23l-107.79 61.23 -195.61 63.94 -168.47 17.31c-86.22,-56.49 82.5,-77.49 122.13,-180.03 30.92,-80.01 36.54,-160.67 39.51,-244.71 2.09,-59.35 92.5,-136.52 111.65,-181.16 102.55,-239.1 333.4,-250.76 444.99,-183.7z"/>
   <g>
    <path class="fil19" d="M14427.05 4772.08c-19.27,1.43 -157.57,490.29 -175.09,538.64 -98.19,271.08 -90.32,171.38 -35.47,-33.6 46.28,-172.93 98.56,-261.54 131.55,-408.05 14.64,-65.03 86.38,-97.54 79.01,-96.99z"/>
    <path class="fil19" d="M14624.65 4693.95c-8.02,0.6 -65.54,203.94 -72.83,224.05 -40.84,112.75 -37.56,71.28 -14.75,-13.98 19.25,-71.92 41,-108.78 54.72,-169.72 6.09,-27.05 35.92,-40.57 32.86,-40.35z"/>
    <path class="fil19" d="M14786.51 4617.5c-5.61,0.42 -45.82,142.57 -50.92,156.63 -28.55,78.83 -26.26,49.84 -10.31,-9.77 13.46,-50.28 28.66,-76.05 38.25,-118.65 4.26,-18.91 25.12,-28.37 22.98,-28.21z"/>
   </g>
   <path class="fil34" d="M8241.85 23680.86c67.31,-56.16 273.38,-72.84 451.04,20.36 136.11,71.39 149.59,280.26 259.95,435.58 194.06,273.14 360.93,814.87 325.64,893.13 -169.27,375.27 -478.32,501.48 -920.82,556.99 -442.5,55.51 -1254.19,-512 -1350.02,-771.71 -96.69,-262.07 84.72,-158.45 116.54,-193.45 257.36,-283 935.39,-788.83 1117.67,-940.9z"/>
   <path class="fil35" d="M8468.59 24094.42c71.59,-13.08 398.05,42.59 498.24,136.91 150.29,141.46 -170.6,157.15 -406.27,144.61 -19.8,-1.04 -481.84,305.39 -507.56,305.39 -25.72,0 -85.16,3.06 -85.16,-104.99 0,-108.04 347.38,-453.87 500.75,-481.92z"/>
   <path class="fil35" d="M8783.65 24779.2c71.59,-13.08 398.05,42.59 498.24,136.9 150.29,141.46 -129.72,357.55 -365.39,345.02 -19.79,-1.04 -546.57,181.33 -572.28,181.33 -25.72,0 -61.32,-73.29 -61.32,-181.33 0,-108.04 347.38,-453.88 500.75,-481.92z"/>
   <path class="fil35" d="M8388.49 23867.03c71.6,-11.29 398.05,36.76 498.25,118.17 150.29,122.11 -170.6,135.65 -406.28,124.83 -19.8,-0.9 -481.84,263.6 -507.55,263.6 -25.72,0 -85.16,2.63 -85.16,-90.62 0,-93.26 347.38,-391.77 500.74,-415.98z"/>
   <path class="fil36" d="M6995.84 24645.74c16.41,0 397.03,565.63 675.73,664.33 369.6,130.88 544.93,95.49 633.5,53.57 15.16,-7.17 375.5,-82.55 609.45,-193.47 241.44,-114.46 356.87,-263.92 378.99,-225.84 24.05,41.39 139.6,319.84 42.44,445.6 -206.65,267.43 -843.35,336.59 -887.56,361.11 -345.27,191.5 -1231.63,-486.61 -1258.45,-486.61 -35.75,0 -301.95,-257.22 -301.95,-373.17 0,-115.95 72.1,-245.52 107.85,-245.52z"/>
   <path class="fil34" d="M11410.85 23175.56c67.31,-56.16 273.38,-72.84 451.04,20.36 136.11,71.39 149.59,280.26 259.95,435.58 194.06,273.15 360.93,814.87 325.64,893.13 -169.27,375.28 -478.32,501.49 -920.82,557 -442.5,55.5 -1254.19,-512.01 -1350.02,-771.71 -96.69,-262.07 84.72,-158.46 116.54,-193.45 257.36,-283 935.39,-788.84 1117.67,-940.91z"/>
   <path class="fil35" d="M11637.59 23589.12c71.59,-13.08 398.05,42.59 498.25,136.91 150.28,141.47 -170.61,157.16 -406.28,144.61 -19.8,-1.04 -481.84,305.39 -507.56,305.39 -25.72,0 -85.16,3.06 -85.16,-104.98 0,-108.04 347.38,-453.88 500.75,-481.93z"/>
   <path class="fil35" d="M11952.65 24273.9c71.59,-13.08 398.05,42.59 498.24,136.91 150.29,141.46 -129.72,357.54 -365.39,345.01 -19.79,-1.04 -546.57,181.34 -572.28,181.34 -25.72,0 -61.32,-73.29 -61.32,-181.34 0,-108.04 347.38,-453.88 500.75,-481.92z"/>
   <path class="fil35" d="M11557.49 23361.74c71.6,-11.3 398.05,36.76 498.25,118.17 150.29,122.1 -170.6,135.65 -406.28,124.82 -19.8,-0.9 -481.83,263.6 -507.55,263.6 -25.72,0 -85.16,2.64 -85.16,-90.62 0,-93.26 347.38,-391.77 500.74,-415.97z"/>
   <path class="fil36" d="M10164.84 24140.43c16.41,0 397.03,565.67 675.73,664.34 369.59,130.89 544.95,95.51 633.49,53.57 15.16,-7.18 375.52,-82.55 609.47,-193.45 241.44,-114.46 356.86,-263.96 378.97,-225.85 24.06,41.38 139.61,319.82 42.44,445.59 -206.63,267.44 -843.35,336.58 -887.54,361.1 -345.3,191.53 -1231.65,-486.59 -1258.45,-486.59 -35.74,0 -228.61,-396.69 -228.61,-512.64 0,-115.96 -1.25,-106.07 34.5,-106.07z"/>
  </g>
  <g id="_1703805506048">
   <g style="clip-path:url(#id1)">
    <image x="4776.27" y="2498.26" width="6473.99" height="433.03" xlink:href="Domingo Savio Telescopio_Images\Domingo Savio Telescopio_ImgID2.png"/>
   </g>
  </g>
 </g>
</svg>
